Palanquin Medium.ufo
<glyph name="numbersign" format="1">
  <advance width="523"/>
  <unicode hex="0023"/>
  <outline>
    <contour>
      <point x="466" y="509" type="line"/>
      <point x="384" y="511" type="line"/>
      <point x="356" y="389" type="line"/>
      <point x="228" y="389" type="line"/>
      <point x="257" y="509" type="line"/>
      <point x="176" y="511" type="line"/>
      <point x="147" y="389" type="line"/>
      <point x="21" y="389" type="line"/>
      <point x="30" y="316" type="line"/>
      <point x="129" y="316" type="line"/>
      <point x="101" y="194" type="line"/>
      <point x="21" y="194" type="line"/>
      <point x="30" y="121" type="line"/>
      <point x="84" y="121" type="line"/>
      <point x="56" y="-2" type="line"/>
      <point x="136" y="-7" type="line"/>
      <point x="166" y="121" type="line"/>
      <point x="294" y="121" type="line"/>
      <point x="266" y="-2" type="line"/>
      <point x="346" y="-7" type="line"/>
      <point x="375" y="121" type="line"/>
      <point x="501" y="121" type="line"/>
      <point x="493" y="194" type="line"/>
      <point x="392" y="194" type="line"/>
      <point x="421" y="316" type="line"/>
      <point x="501" y="316" type="line"/>
      <point x="493" y="389" type="line"/>
      <point x="438" y="389" type="line"/>
    </contour>
    <contour>
      <point x="212" y="316" type="line"/>
      <point x="339" y="316" type="line"/>
      <point x="310" y="194" type="line"/>
      <point x="183" y="194" type="line"/>
    </contour>
  </outline>
</glyph>
<glyph name="parenleft" format="1">
  <advance width="262"/>
  <unicode hex="0028"/>
  <outline>
    <contour>
      <point x="47" y="200"/>
      <point x="88" y="68"/>
      <point x="170" y="-38" type="curve"/>
      <point x="246" y="-10" type="line"/>
      <point x="188" y="56"/>
      <point x="138" y="221"/>
      <point x="138" y="321" type="curve"/>
      <point x="138" y="419"/>
      <point x="188" y="580"/>
      <point x="246" y="651" type="curve"/>
      <point x="170" y="678" type="line"/>
      <point x="87" y="567"/>
      <point x="47" y="438"/>
      <point x="47" y="320" type="curve"/>
    </contour>
  </outline>
</glyph>
<glyph name="hyphen" format="1">
  <advance width="296"/>
  <unicode hex="002D"/>
  <outline>
    <contour>
      <point x="280" y="235" type="line"/>
      <point x="271" y="311" type="line"/>
      <point x="16" y="311" type="line"/>
      <point x="25" y="235" type="line"/>
    </contour>
  </outline>
</glyph>
<glyph name="zero" format="1">
  <advance width="612"/>
  <unicode hex="0030"/>
  <outline>
    <contour>
      <point x="159" y="579"/>
      <point x="57" y="469"/>
      <point x="57" y="286" type="curve"/>
      <point x="57" y="99"/>
      <point x="161" y="-13"/>
      <point x="306" y="-13" type="curve"/>
      <point x="448" y="-13"/>
      <point x="554" y="104"/>
      <point x="554" y="288" type="curve"/>
      <point x="554" y="475"/>
      <point x="454" y="579"/>
      <point x="306" y="579" type="curve"/>
    </contour>
    <contour>
      <point x="216" y="69"/>
      <point x="149" y="149"/>
      <point x="149" y="289" type="curve"/>
      <point x="149" y="423"/>
      <point x="217" y="497"/>
      <point x="306" y="497" type="curve"/>
      <point x="396" y="497"/>
      <point x="463" y="423"/>
      <point x="463" y="284" type="curve"/>
      <point x="463" y="150"/>
      <point x="393" y="69"/>
      <point x="306" y="69" type="curve"/>
    </contour>
  </outline>
</glyph>
<glyph name="one" format="1">
  <advance width="412"/>
  <unicode hex="0031"/>
  <outline>
    <contour>
      <point x="360" y="0" type="line"/>
      <point x="351" y="70" type="line"/>
      <point x="268" y="70" type="line"/>
      <point x="268" y="566" type="line"/>
      <point x="204" y="566" type="line"/>
      <point x="63" y="478" type="line"/>
      <point x="108" y="412" type="line"/>
      <point x="172" y="453" type="line"/>
      <point x="172" y="70" type="line"/>
      <point x="64" y="70" type="line"/>
      <point x="73" y="0" type="line"/>
    </contour>
  </outline>
</glyph>
<glyph name="three" format="1">
  <advance width="523"/>
  <unicode hex="0033"/>
  <outline>
    <contour>
      <point x="449" y="500"/>
      <point x="382" y="579"/>
      <point x="244" y="579" type="curve"/>
      <point x="164" y="579"/>
      <point x="99" y="552"/>
      <point x="41" y="514" type="curve"/>
      <point x="87" y="450" type="line"/>
      <point x="121" y="473"/>
      <point x="175" y="501"/>
      <point x="241" y="501" type="curve"/>
      <point x="313" y="501"/>
      <point x="357" y="458"/>
      <point x="357" y="409" type="curve"/>
      <point x="357" y="346"/>
      <point x="298" y="305"/>
      <point x="201" y="305" type="curve"/>
      <point x="151" y="305" type="line"/>
      <point x="165" y="232" type="line"/>
      <point x="195" y="232" type="line" smooth="yes"/>
      <point x="318" y="232"/>
      <point x="369" y="185"/>
      <point x="369" y="112" type="curve"/>
      <point x="369" y="42"/>
      <point x="302" y="2"/>
      <point x="232" y="2" type="curve"/>
      <point x="166" y="2"/>
      <point x="125" y="17"/>
      <point x="75" y="47" type="curve"/>
      <point x="26" y="-19" type="line"/>
      <point x="79" y="-47"/>
      <point x="155" y="-76"/>
      <point x="230" y="-76" type="curve"/>
      <point x="372" y="-76"/>
      <point x="461" y="6"/>
      <point x="461" y="113" type="curve"/>
      <point x="461" y="196"/>
      <point x="408" y="256"/>
      <point x="351" y="270" type="curve"/>
      <point x="402" y="289"/>
      <point x="449" y="344"/>
      <point x="449" y="411" type="curve"/>
    </contour>
  </outline>
</glyph>
<glyph name="four" format="1">
  <advance width="568"/>
  <unicode hex="0034"/>
  <outline>
    <contour>
      <point x="526" y="66" type="line"/>
      <point x="537" y="145" type="line"/>
      <point x="432" y="145" type="line"/>
      <point x="432" y="571" type="line"/>
      <point x="363" y="571" type="line"/>
      <point x="31" y="145" type="line"/>
      <point x="44" y="66" type="line"/>
      <point x="336" y="66" type="line"/>
      <point x="336" y="-69" type="line"/>
      <point x="432" y="-69" type="line"/>
      <point x="432" y="66" type="line"/>
    </contour>
    <contour>
      <point x="134" y="145" type="line"/>
      <point x="336" y="409" type="line"/>
      <point x="336" y="145" type="line"/>
    </contour>
  </outline>
</glyph>
<glyph name="nine" format="1">
  <advance width="549"/>
  <unicode hex="0039"/>
  <outline>
    <contour>
      <point x="125" y="579"/>
      <point x="41" y="478"/>
      <point x="41" y="369" type="curve"/>
      <point x="41" y="263"/>
      <point x="124" y="169"/>
      <point x="252" y="169" type="curve"/>
      <point x="301" y="169"/>
      <point x="351" y="193"/>
      <point x="386" y="221" type="curve"/>
      <point x="356" y="116"/>
      <point x="270" y="19"/>
      <point x="157" y="-7" type="curve"/>
      <point x="199" y="-69" type="line"/>
      <point x="373" y="-33"/>
      <point x="491" y="156"/>
      <point x="491" y="304" type="curve"/>
      <point x="491" y="486"/>
      <point x="392" y="579"/>
      <point x="250" y="579" type="curve"/>
    </contour>
    <contour>
      <point x="176" y="241"/>
      <point x="131" y="306"/>
      <point x="131" y="375" type="curve"/>
      <point x="131" y="439"/>
      <point x="177" y="499"/>
      <point x="252" y="499" type="curve"/>
      <point x="346" y="499"/>
      <point x="392" y="431"/>
      <point x="400" y="329" type="curve"/>
      <point x="377" y="285"/>
      <point x="323" y="241"/>
      <point x="252" y="241" type="curve"/>
    </contour>
  </outline>
</glyph>
<glyph name="less" format="1">
  <advance width="329"/>
  <unicode hex="003C"/>
  <outline>
    <contour>
      <point x="275" y="19" type="line"/>
      <point x="298" y="95" type="line"/>
      <point x="106" y="245" type="line"/>
      <point x="298" y="394" type="line"/>
      <point x="275" y="470" type="line"/>
      <point x="13" y="271" type="line"/>
      <point x="13" y="218" type="line"/>
    </contour>
  </outline>
</glyph>
<glyph name="equal" format="1">
  <advance width="489"/>
  <unicode hex="003D"/>
  <outline>
    <contour>
      <point x="467" y="316" type="line"/>
      <point x="459" y="389" type="line"/>
      <point x="21" y="389" type="line"/>
      <point x="30" y="316" type="line"/>
    </contour>
    <contour>
      <point x="467" y="121" type="line"/>
      <point x="459" y="194" type="line"/>
      <point x="21" y="194" type="line"/>
      <point x="30" y="121" type="line"/>
    </contour>
  </outline>
</glyph>
<glyph name="greater" format="1">
  <advance width="329"/>
  <unicode hex="003E"/>
  <outline>
    <contour>
      <point x="316" y="218" type="line"/>
      <point x="316" y="271" type="line"/>
      <point x="54" y="470" type="line"/>
      <point x="31" y="394" type="line"/>
      <point x="95" y="345"/>
      <point x="159" y="294"/>
      <point x="223" y="245" type="curve"/>
      <point x="31" y="95" type="line"/>
      <point x="54" y="19" type="line"/>
    </contour>
  </outline>
</glyph>
<glyph name="B" format="1">
  <advance width="627"/>
  <unicode hex="0042"/>
  <outline>
    <contour>
      <point x="532" y="634"/>
      <point x="436" y="680"/>
      <point x="298" y="680" type="curve"/>
      <point x="94" y="680" type="line"/>
      <point x="94" y="0" type="line"/>
      <point x="329" y="0" type="line"/>
      <point x="473" y="0"/>
      <point x="577" y="59"/>
      <point x="577" y="194" type="curve"/>
      <point x="577" y="283"/>
      <point x="527" y="337"/>
      <point x="455" y="365" type="curve"/>
      <point x="501" y="394"/>
      <point x="532" y="437"/>
      <point x="532" y="496" type="curve"/>
    </contour>
    <contour>
      <point x="335" y="312" type="line" smooth="yes"/>
      <point x="422" y="312"/>
      <point x="479" y="275"/>
      <point x="479" y="192" type="curve"/>
      <point x="479" y="110"/>
      <point x="414" y="79"/>
      <point x="325" y="79" type="curve"/>
      <point x="190" y="79" type="line"/>
      <point x="190" y="312" type="line"/>
    </contour>
    <contour>
      <point x="290" y="599" type="line" smooth="yes"/>
      <point x="377" y="599"/>
      <point x="433" y="579"/>
      <point x="433" y="495" type="curve"/>
      <point x="433" y="417"/>
      <point x="372" y="391"/>
      <point x="283" y="390" type="curve"/>
      <point x="190" y="390" type="line"/>
      <point x="190" y="599" type="line"/>
    </contour>
  </outline>
</glyph>
<glyph name="F" format="1">
  <advance width="491"/>
  <unicode hex="0046"/>
  <outline>
    <contour>
      <point x="383" y="305" type="line"/>
      <point x="371" y="378" type="line"/>
      <point x="190" y="378" type="line"/>
      <point x="190" y="606" type="line"/>
      <point x="475" y="606" type="line"/>
      <point x="461" y="680" type="line"/>
      <point x="94" y="680" type="line"/>
      <point x="94" y="0" type="line"/>
      <point x="190" y="0" type="line"/>
      <point x="190" y="305" type="line"/>
    </contour>
  </outline>
</glyph>
<glyph name="H" format="1">
  <advance width="682"/>
  <unicode hex="0048"/>
  <outline>
    <contour>
      <point x="492" y="0" type="line"/>
      <point x="588" y="0" type="line"/>
      <point x="588" y="680" type="line"/>
      <point x="492" y="680" type="line"/>
      <point x="492" y="380" type="line"/>
      <point x="190" y="380" type="line"/>
      <point x="190" y="685" type="line"/>
      <point x="94" y="680" type="line"/>
      <point x="94" y="0" type="line"/>
      <point x="190" y="0" type="line"/>
      <point x="190" y="303" type="line"/>
      <point x="492" y="303" type="line"/>
    </contour>
  </outline>
</glyph>
<glyph name="I" format="1">
  <advance width="284"/>
  <unicode hex="0049"/>
  <outline>
    <contour>
      <point x="94" y="0" type="line"/>
      <point x="190" y="0" type="line"/>
      <point x="190" y="680" type="line"/>
      <point x="94" y="680" type="line"/>
    </contour>
  </outline>
</glyph>
<glyph name="K" format="1">
  <advance width="618"/>
  <unicode hex="004B"/>
  <outline>
    <contour>
      <point x="613" y="0" type="line"/>
      <point x="316" y="389" type="line"/>
      <point x="532" y="639" type="line"/>
      <point x="510" y="658"/>
      <point x="487" y="676"/>
      <point x="464" y="695" type="curve"/>
      <point x="184" y="365" type="line"/>
      <point x="184" y="680" type="line"/>
      <point x="88" y="680" type="line"/>
      <point x="88" y="0" type="line"/>
      <point x="184" y="0" type="line"/>
      <point x="184" y="235" type="line"/>
      <point x="207" y="262"/>
      <point x="231" y="289"/>
      <point x="254" y="317" type="curve"/>
      <point x="335" y="211"/>
      <point x="415" y="105"/>
      <point x="496" y="0" type="curve"/>
    </contour>
  </outline>
</glyph>
<glyph name="L" format="1">
  <advance width="525"/>
  <unicode hex="004C"/>
  <outline>
    <contour>
      <point x="509" y="0" type="line"/>
      <point x="497" y="75" type="line"/>
      <point x="190" y="75" type="line"/>
      <point x="190" y="680" type="line"/>
      <point x="94" y="680" type="line"/>
      <point x="94" y="0" type="line"/>
    </contour>
  </outline>
</glyph>
<glyph name="N" format="1">
  <advance width="722"/>
  <unicode hex="004E"/>
  <outline>
    <contour>
      <point x="94" y="0" type="line"/>
      <point x="190" y="0" type="line"/>
      <point x="190" y="507" type="line"/>
      <point x="228" y="447" type="line"/>
      <point x="543" y="0" type="line"/>
      <point x="629" y="0" type="line"/>
      <point x="629" y="680" type="line"/>
      <point x="532" y="680" type="line"/>
      <point x="532" y="177" type="line"/>
      <point x="484" y="252" type="line"/>
      <point x="179" y="680" type="line"/>
      <point x="94" y="680" type="line"/>
    </contour>
  </outline>
</glyph>
<glyph name="S" format="1">
  <advance width="542"/>
  <unicode hex="0053"/>
  <outline>
    <contour>
      <point x="187" y="70"/>
      <point x="119" y="94"/>
      <point x="81" y="113" type="curve"/>
      <point x="73" y="88"/>
      <point x="66" y="62"/>
      <point x="59" y="37" type="curve"/>
      <point x="86" y="13"/>
      <point x="192" y="-13"/>
      <point x="250" y="-13" type="curve" smooth="yes"/>
      <point x="408" y="-13"/>
      <point x="495" y="63"/>
      <point x="495" y="170" type="curve" smooth="yes"/>
      <point x="495" y="370"/>
      <point x="143" y="384"/>
      <point x="143" y="522" type="curve" smooth="yes"/>
      <point x="143" y="582"/>
      <point x="201" y="611"/>
      <point x="277" y="611" type="curve" smooth="yes"/>
      <point x="341" y="611"/>
      <point x="383" y="592"/>
      <point x="418" y="575" type="curve"/>
      <point x="428" y="601"/>
      <point x="440" y="625"/>
      <point x="450" y="651" type="curve"/>
      <point x="404" y="674"/>
      <point x="338" y="696"/>
      <point x="270" y="696" type="curve" smooth="yes"/>
      <point x="130" y="696"/>
      <point x="47" y="619"/>
      <point x="47" y="520" type="curve" smooth="yes"/>
      <point x="47" y="313"/>
      <point x="398" y="303"/>
      <point x="398" y="168" type="curve" smooth="yes"/>
      <point x="398" y="109"/>
      <point x="347" y="70"/>
      <point x="249" y="70" type="curve" smooth="yes"/>
    </contour>
  </outline>
</glyph>
<glyph name="T" format="1">
  <advance width="548"/>
  <unicode hex="0054"/>
  <outline>
    <contour>
      <point x="540" y="604" type="line"/>
      <point x="535" y="629"/>
      <point x="531" y="655"/>
      <point x="527" y="680" type="curve"/>
      <point x="8" y="680" type="line"/>
      <point x="8" y="604" type="line"/>
      <point x="219" y="604" type="line"/>
      <point x="219" y="0" type="line"/>
      <point x="316" y="0" type="line"/>
      <point x="316" y="604" type="line"/>
    </contour>
  </outline>
</glyph>
<glyph name="X" format="1">
  <advance width="648"/>
  <unicode hex="0058"/>
  <outline>
    <contour>
      <point x="13" y="4" type="line"/>
      <point x="104" y="-10" type="line"/>
      <point x="314" y="276" type="line"/>
      <point x="519" y="0" type="line"/>
      <point x="622" y="0" type="line"/>
      <point x="375" y="335" type="line"/>
      <point x="635" y="680" type="line"/>
      <point x="534" y="680" type="line"/>
      <point x="326" y="402" type="line"/>
      <point x="123" y="680" type="line"/>
      <point x="28" y="665" type="line"/>
      <point x="264" y="344" type="line"/>
    </contour>
  </outline>
</glyph>
<glyph name="Y" format="1">
  <advance width="576"/>
  <unicode hex="0059"/>
  <outline>
    <contour>
      <point x="237" y="0" type="line"/>
      <point x="333" y="0" type="line"/>
      <point x="334" y="271" type="line"/>
      <point x="571" y="680" type="line"/>
      <point x="469" y="680" type="line"/>
      <point x="285" y="366" type="line"/>
      <point x="105" y="680" type="line"/>
      <point x="6" y="666" type="line"/>
      <point x="237" y="270" type="line"/>
    </contour>
  </outline>
</glyph>
<glyph name="bracketleft" format="1">
  <advance width="289"/>
  <unicode hex="005B"/>
  <outline>
    <contour>
      <point x="76" y="696" type="line"/>
      <point x="76" y="-88" type="line"/>
      <point x="284" y="-88" type="line"/>
      <point x="270" y="-15" type="line"/>
      <point x="169" y="-15" type="line"/>
      <point x="169" y="622" type="line"/>
      <point x="270" y="622" type="line"/>
      <point x="284" y="696" type="line"/>
    </contour>
  </outline>
</glyph>
<glyph name="backslash" format="1">
  <advance width="411"/>
  <unicode hex="005C"/>
  <outline>
    <contour>
      <point x="309" y="-4" type="line"/>
      <point x="405" y="0" type="line"/>
      <point x="102" y="710" type="line"/>
      <point x="6" y="706" type="line"/>
    </contour>
  </outline>
</glyph>
<glyph name="bracketright" format="1">
  <advance width="289"/>
  <unicode hex="005D"/>
  <outline>
    <contour>
      <point x="213" y="-88" type="line"/>
      <point x="213" y="696" type="line"/>
      <point x="6" y="696" type="line"/>
      <point x="10" y="671"/>
      <point x="14" y="647"/>
      <point x="19" y="622" type="curve"/>
      <point x="119" y="622" type="line"/>
      <point x="119" y="-15" type="line"/>
      <point x="19" y="-15" type="line"/>
      <point x="14" y="-40"/>
      <point x="10" y="-63"/>
      <point x="6" y="-88" type="curve"/>
    </contour>
  </outline>
</glyph>
<glyph name="b" format="1">
  <advance width="561"/>
  <unicode hex="0062"/>
  <outline>
    <contour>
      <point x="76" y="0" type="line"/>
      <point x="130" y="0" type="line"/>
      <point x="153" y="42" type="line"/>
      <point x="196" y="8"/>
      <point x="253" y="-12"/>
      <point x="299" y="-12" type="curve" smooth="yes"/>
      <point x="441" y="-12"/>
      <point x="514" y="96"/>
      <point x="514" y="244" type="curve" smooth="yes"/>
      <point x="514" y="392"/>
      <point x="443" y="501"/>
      <point x="299" y="501" type="curve" smooth="yes"/>
      <point x="259" y="501"/>
      <point x="211" y="483"/>
      <point x="172" y="457" type="curve"/>
      <point x="172" y="706" type="line"/>
      <point x="76" y="695" type="line"/>
    </contour>
    <contour>
      <point x="246" y="69"/>
      <point x="206" y="85"/>
      <point x="172" y="112" type="curve"/>
      <point x="172" y="375" type="line"/>
      <point x="206" y="403"/>
      <point x="246" y="419"/>
      <point x="280" y="419" type="curve" smooth="yes"/>
      <point x="384" y="419"/>
      <point x="416" y="341"/>
      <point x="416" y="243" type="curve" smooth="yes"/>
      <point x="416" y="151"/>
      <point x="380" y="69"/>
      <point x="280" y="69" type="curve" smooth="yes"/>
    </contour>
  </outline>
</glyph>
<glyph name="h" format="1">
  <advance width="568"/>
  <unicode hex="0068"/>
  <outline>
    <contour>
      <point x="279" y="501"/>
      <point x="214" y="472"/>
      <point x="172" y="432" type="curve"/>
      <point x="172" y="706" type="line"/>
      <point x="76" y="695" type="line"/>
      <point x="76" y="0" type="line"/>
      <point x="172" y="0" type="line"/>
      <point x="172" y="350" type="line"/>
      <point x="211" y="392"/>
      <point x="270" y="419"/>
      <point x="310" y="419" type="curve"/>
      <point x="374" y="418"/>
      <point x="405" y="376"/>
      <point x="405" y="311" type="curve"/>
      <point x="405" y="0" type="line"/>
      <point x="501" y="0" type="line"/>
      <point x="501" y="320" type="line"/>
      <point x="501" y="424"/>
      <point x="450" y="501"/>
      <point x="331" y="501" type="curve"/>
    </contour>
  </outline>
</glyph>
<glyph name="i" format="1">
  <advance width="244"/>
  <unicode hex="0069"/>
  <outline>
    <contour>
      <point x="62" y="598"/>
      <point x="87" y="572"/>
      <point x="121" y="572" type="curve" smooth="yes"/>
      <point x="155" y="572"/>
      <point x="182" y="598"/>
      <point x="182" y="632" type="curve" smooth="yes"/>
      <point x="182" y="666"/>
      <point x="155" y="692"/>
      <point x="121" y="692" type="curve" smooth="yes"/>
      <point x="87" y="692"/>
      <point x="61" y="666"/>
      <point x="62" y="632" type="curve" smooth="yes"/>
    </contour>
    <contour>
      <point x="73" y="0" type="line"/>
      <point x="170" y="0" type="line"/>
      <point x="170" y="485" type="line"/>
      <point x="73" y="485" type="line"/>
    </contour>
  </outline>
</glyph>
<glyph name="j" format="1">
  <advance width="255"/>
  <unicode hex="006A"/>
  <outline>
    <contour>
      <point x="82" y="-13" type="line" smooth="yes"/>
      <point x="82" y="-82"/>
      <point x="57" y="-110"/>
      <point x="-13" y="-135" type="curve"/>
      <point x="24" y="-206" type="line"/>
      <point x="151" y="-166"/>
      <point x="179" y="-114"/>
      <point x="179" y="2" type="curve" smooth="yes"/>
      <point x="179" y="485" type="line"/>
      <point x="82" y="485" type="line"/>
    </contour>
    <contour>
      <point x="70" y="598"/>
      <point x="96" y="572"/>
      <point x="130" y="572" type="curve" smooth="yes"/>
      <point x="164" y="572"/>
      <point x="191" y="598"/>
      <point x="191" y="632" type="curve" smooth="yes"/>
      <point x="191" y="666"/>
      <point x="164" y="692"/>
      <point x="130" y="692" type="curve" smooth="yes"/>
      <point x="96" y="692"/>
      <point x="70" y="666"/>
      <point x="70" y="632" type="curve" smooth="yes"/>
    </contour>
  </outline>
</glyph>
<glyph name="l" format="1">
  <advance width="248"/>
  <unicode hex="006C"/>
  <outline>
    <contour>
      <point x="76" y="0" type="line"/>
      <point x="172" y="0" type="line"/>
      <point x="172" y="706" type="line"/>
      <point x="76" y="695" type="line"/>
    </contour>
  </outline>
</glyph>
<glyph name="m" format="1">
  <advance width="868"/>
  <unicode hex="006D"/>
  <outline>
    <contour>
      <point x="574" y="501"/>
      <point x="502" y="468"/>
      <point x="460" y="422" type="curve"/>
      <point x="435" y="470"/>
      <point x="387" y="501"/>
      <point x="313" y="501" type="curve"/>
      <point x="261" y="501"/>
      <point x="196" y="473"/>
      <point x="153" y="433" type="curve"/>
      <point x="127" y="485" type="line"/>
      <point x="73" y="485" type="line"/>
      <point x="73" y="0" type="line"/>
      <point x="169" y="0" type="line"/>
      <point x="169" y="361" type="line"/>
      <point x="207" y="398"/>
      <point x="253" y="419"/>
      <point x="293" y="419" type="curve"/>
      <point x="355" y="418"/>
      <point x="385" y="376"/>
      <point x="385" y="311" type="curve"/>
      <point x="385" y="0" type="line"/>
      <point x="482" y="0" type="line"/>
      <point x="482" y="320" type="line"/>
      <point x="482" y="333"/>
      <point x="482" y="344"/>
      <point x="480" y="357" type="curve"/>
      <point x="519" y="394"/>
      <point x="569" y="419"/>
      <point x="610" y="419" type="curve"/>
      <point x="673" y="418"/>
      <point x="704" y="376"/>
      <point x="704" y="311" type="curve"/>
      <point x="704" y="0" type="line"/>
      <point x="801" y="0" type="line"/>
      <point x="801" y="320" type="line"/>
      <point x="801" y="424"/>
      <point x="750" y="501"/>
      <point x="631" y="501" type="curve"/>
    </contour>
  </outline>
</glyph>
<glyph name="o" format="1">
  <advance width="559"/>
  <unicode hex="006F"/>
  <outline>
    <contour>
      <point x="47" y="92"/>
      <point x="124" y="-11"/>
      <point x="271" y="-13" type="curve"/>
      <point x="421" y="-12"/>
      <point x="511" y="88"/>
      <point x="511" y="239" type="curve"/>
      <point x="511" y="392"/>
      <point x="433" y="498"/>
      <point x="280" y="498" type="curve"/>
      <point x="132" y="497"/>
      <point x="48" y="394"/>
      <point x="47" y="244" type="curve"/>
    </contour>
    <contour>
      <point x="375" y="416"/>
      <point x="414" y="343"/>
      <point x="414" y="239" type="curve"/>
      <point x="413" y="132"/>
      <point x="364" y="69"/>
      <point x="273" y="69" type="curve"/>
      <point x="180" y="69"/>
      <point x="145" y="137"/>
      <point x="145" y="245" type="curve"/>
      <point x="146" y="350"/>
      <point x="191" y="416"/>
      <point x="283" y="416" type="curve"/>
    </contour>
  </outline>
</glyph>
<glyph name="p" format="1">
  <advance width="561"/>
  <unicode hex="0070"/>
  <outline>
    <contour>
      <point x="76" y="-219" type="line"/>
      <point x="172" y="-208" type="line"/>
      <point x="172" y="31" type="line"/>
      <point x="211" y="4"/>
      <point x="259" y="-12"/>
      <point x="299" y="-12" type="curve" smooth="yes"/>
      <point x="441" y="-12"/>
      <point x="514" y="96"/>
      <point x="514" y="244" type="curve" smooth="yes"/>
      <point x="514" y="392"/>
      <point x="443" y="501"/>
      <point x="299" y="501" type="curve" smooth="yes"/>
      <point x="253" y="501"/>
      <point x="194" y="477"/>
      <point x="151" y="444" type="curve"/>
      <point x="130" y="485" type="line"/>
      <point x="76" y="485" type="line"/>
    </contour>
    <contour>
      <point x="246" y="69"/>
      <point x="206" y="85"/>
      <point x="172" y="112" type="curve"/>
      <point x="172" y="375" type="line"/>
      <point x="206" y="403"/>
      <point x="246" y="419"/>
      <point x="280" y="419" type="curve" smooth="yes"/>
      <point x="384" y="419"/>
      <point x="416" y="341"/>
      <point x="416" y="243" type="curve" smooth="yes"/>
      <point x="416" y="151"/>
      <point x="380" y="69"/>
      <point x="280" y="69" type="curve" smooth="yes"/>
    </contour>
  </outline>
</glyph>
<glyph name="q" format="1">
  <advance width="567"/>
  <unicode hex="0071"/>
  <outline>
    <contour>
      <point x="491" y="485" type="line"/>
      <point x="436" y="485" type="line"/>
      <point x="413" y="442" type="line"/>
      <point x="371" y="477"/>
      <point x="311" y="501"/>
      <point x="264" y="501" type="curve"/>
      <point x="122" y="501"/>
      <point x="47" y="392"/>
      <point x="47" y="243" type="curve"/>
      <point x="47" y="95"/>
      <point x="119" y="-13"/>
      <point x="261" y="-13" type="curve"/>
      <point x="303" y="-13"/>
      <point x="354" y="5"/>
      <point x="394" y="33" type="curve"/>
      <point x="394" y="-219" type="line"/>
      <point x="491" y="-209" type="line"/>
    </contour>
    <contour>
      <point x="145" y="337"/>
      <point x="181" y="419"/>
      <point x="281" y="419" type="curve"/>
      <point x="317" y="419"/>
      <point x="358" y="401"/>
      <point x="394" y="372" type="curve"/>
      <point x="394" y="116" type="line"/>
      <point x="358" y="87"/>
      <point x="317" y="69"/>
      <point x="281" y="69" type="curve"/>
      <point x="177" y="69"/>
      <point x="145" y="146"/>
      <point x="145" y="244" type="curve"/>
    </contour>
  </outline>
</glyph>
<glyph name="t" format="1">
  <advance width="340"/>
  <unicode hex="0074"/>
  <outline>
    <contour>
      <point x="267" y="-17"/>
      <point x="302" y="-6"/>
      <point x="319" y="4" type="curve"/>
      <point x="294" y="77" type="line"/>
      <point x="281" y="71"/>
      <point x="263" y="66"/>
      <point x="247" y="66" type="curve"/>
      <point x="199" y="66"/>
      <point x="178" y="101"/>
      <point x="178" y="150" type="curve"/>
      <point x="178" y="406" type="line"/>
      <point x="296" y="406" type="line"/>
      <point x="266" y="479" type="line"/>
      <point x="178" y="479" type="line"/>
      <point x="178" y="622" type="line"/>
      <point x="82" y="600" type="line"/>
      <point x="82" y="479" type="line"/>
      <point x="13" y="479" type="line"/>
      <point x="14" y="406" type="line"/>
      <point x="82" y="406" type="line"/>
      <point x="82" y="135" type="line"/>
      <point x="82" y="36"/>
      <point x="142" y="-17"/>
      <point x="237" y="-17" type="curve"/>
    </contour>
  </outline>
</glyph>
<glyph name="u" format="1">
  <advance width="553"/>
  <unicode hex="0075"/>
  <outline>
    <contour>
      <point x="289" y="-16"/>
      <point x="354" y="11"/>
      <point x="397" y="51" type="curve"/>
      <point x="425" y="0" type="line"/>
      <point x="480" y="0" type="line"/>
      <point x="480" y="485" type="line"/>
      <point x="384" y="485" type="line"/>
      <point x="384" y="120" type="line"/>
      <point x="344" y="87"/>
      <point x="293" y="66"/>
      <point x="257" y="66" type="curve"/>
      <point x="195" y="66"/>
      <point x="164" y="109"/>
      <point x="164" y="172" type="curve"/>
      <point x="164" y="485" type="line"/>
      <point x="67" y="485" type="line"/>
      <point x="67" y="165" type="line"/>
      <point x="67" y="61"/>
      <point x="118" y="-16"/>
      <point x="237" y="-16" type="curve"/>
    </contour>
  </outline>
</glyph>
<glyph name="v" format="1">
  <advance width="484"/>
  <unicode hex="0076"/>
  <outline>
    <contour>
      <point x="199" y="0" type="line"/>
      <point x="288" y="0" type="line"/>
      <point x="472" y="485" type="line"/>
      <point x="373" y="485" type="line"/>
      <point x="245" y="135" type="line"/>
      <point x="111" y="485" type="line"/>
      <point x="13" y="471" type="line"/>
    </contour>
  </outline>
</glyph>
<glyph name="y" format="1">
  <advance width="484"/>
  <unicode hex="0079"/>
  <outline>
    <contour>
      <point x="168" y="-61" type="line"/>
      <point x="151" y="-106"/>
      <point x="105" y="-126"/>
      <point x="57" y="-147" type="curve"/>
      <point x="89" y="-221" type="line"/>
      <point x="164" y="-204"/>
      <point x="231" y="-155"/>
      <point x="257" y="-88" type="curve"/>
      <point x="309" y="58" type="line"/>
      <point x="472" y="485" type="line"/>
      <point x="373" y="485" type="line"/>
      <point x="245" y="137" type="line"/>
      <point x="110" y="485" type="line"/>
      <point x="13" y="471" type="line"/>
      <point x="196" y="13" type="line"/>
    </contour>
  </outline>
</glyph>
<glyph name="bar" format="1">
  <advance width="269"/>
  <unicode hex="007C"/>
  <outline>
    <contour>
      <point x="182" y="704" type="line"/>
      <point x="87" y="711" type="line"/>
      <point x="87" y="0" type="line"/>
      <point x="182" y="-7" type="line"/>
    </contour>
  </outline>
</glyph>
<glyph name="braceright" format="1">
  <advance width="281"/>
  <unicode hex="007D"/>
  <outline>
    <contour>
      <point x="67" y="163"/>
      <point x="103" y="107"/>
      <point x="103" y="71" type="curve" smooth="yes"/>
      <point x="103" y="52"/>
      <point x="85" y="30"/>
      <point x="49" y="30" type="curve" smooth="yes"/>
      <point x="19" y="30" type="line"/>
      <point x="11" y="-42" type="line"/>
      <point x="37" y="-42" type="line" smooth="yes"/>
      <point x="132" y="-42"/>
      <point x="183" y="-6"/>
      <point x="183" y="68" type="curve" smooth="yes"/>
      <point x="183" y="104"/>
      <point x="164" y="147"/>
      <point x="158" y="186" type="curve"/>
      <point x="158" y="185" type="line"/>
      <point x="156" y="196"/>
      <point x="154" y="207"/>
      <point x="154" y="217" type="curve" smooth="yes"/>
      <point x="154" y="253"/>
      <point x="180" y="278"/>
      <point x="210" y="278" type="curve" smooth="yes"/>
      <point x="249" y="278" type="line"/>
      <point x="249" y="340" type="line"/>
      <point x="210" y="340" type="line" smooth="yes"/>
      <point x="179" y="340"/>
      <point x="150" y="371"/>
      <point x="150" y="402" type="curve" smooth="yes"/>
      <point x="150" y="441"/>
      <point x="186" y="504"/>
      <point x="186" y="543" type="curve" smooth="yes"/>
      <point x="186" y="620"/>
      <point x="138" y="659"/>
      <point x="37" y="659" type="curve" smooth="yes"/>
      <point x="11" y="659" type="line"/>
      <point x="19" y="586" type="line"/>
      <point x="49" y="586" type="line" smooth="yes"/>
      <point x="88" y="586"/>
      <point x="103" y="563"/>
      <point x="103" y="546" type="curve" smooth="yes"/>
      <point x="103" y="508"/>
      <point x="67" y="446"/>
      <point x="67" y="413" type="curve" smooth="yes"/>
      <point x="67" y="365"/>
      <point x="84" y="328"/>
      <point x="118" y="307" type="curve"/>
      <point x="82" y="288"/>
      <point x="67" y="255"/>
      <point x="67" y="204" type="curve" smooth="yes"/>
    </contour>
  </outline>
</glyph>
<glyph name="exclamdown" format="1">
  <advance width="237"/>
  <unicode hex="00A1"/>
  <outline>
    <contour>
      <point x="65" y="0" type="line"/>
      <point x="170" y="0" type="line"/>
      <point x="155" y="471" type="line"/>
      <point x="81" y="505" type="line"/>
    </contour>
    <contour>
      <point x="57" y="607"/>
      <point x="84" y="580"/>
      <point x="118" y="580" type="curve" smooth="yes"/>
      <point x="152" y="580"/>
      <point x="178" y="607"/>
      <point x="178" y="641" type="curve" smooth="yes"/>
      <point x="178" y="674"/>
      <point x="152" y="702"/>
      <point x="118" y="702" type="curve" smooth="yes"/>
      <point x="84" y="702"/>
      <point x="57" y="674"/>
      <point x="57" y="641" type="curve" smooth="yes"/>
    </contour>
  </outline>
</glyph>
<glyph name="cent" format="1">
  <advance width="474"/>
  <unicode hex="00A2"/>
  <outline>
    <contour>
      <point x="327" y="608" type="line"/>
      <point x="239" y="608" type="line"/>
      <point x="239" y="494" type="line"/>
      <point x="115" y="476"/>
      <point x="48" y="379"/>
      <point x="47" y="243" type="curve"/>
      <point x="47" y="104"/>
      <point x="114" y="6"/>
      <point x="240" y="-10" type="curve"/>
      <point x="240" y="-106" type="line"/>
      <point x="328" y="-113" type="line"/>
      <point x="328" y="-7" type="line"/>
      <point x="365" y="-1"/>
      <point x="405" y="12"/>
      <point x="433" y="33" type="curve"/>
      <point x="404" y="102" type="line"/>
      <point x="363" y="82"/>
      <point x="337" y="69"/>
      <point x="278" y="69" type="curve"/>
      <point x="186" y="69"/>
      <point x="145" y="142"/>
      <point x="145" y="244" type="curve"/>
      <point x="146" y="342"/>
      <point x="190" y="416"/>
      <point x="281" y="416" type="curve"/>
      <point x="339" y="416"/>
      <point x="366" y="401"/>
      <point x="407" y="383" type="curve"/>
      <point x="435" y="451" type="line"/>
      <point x="406" y="471"/>
      <point x="364" y="486"/>
      <point x="327" y="491" type="curve"/>
    </contour>
  </outline>
</glyph>
<glyph name="sterling" format="1">
  <advance width="475"/>
  <unicode hex="00A3"/>
  <outline>
    <contour>
      <point x="223" y="515" type="line" smooth="yes"/>
      <point x="223" y="565"/>
      <point x="241" y="600"/>
      <point x="290" y="600" type="curve" smooth="yes"/>
      <point x="304" y="600"/>
      <point x="324" y="595"/>
      <point x="337" y="589" type="curve"/>
      <point x="345" y="613"/>
      <point x="353" y="637"/>
      <point x="362" y="661" type="curve"/>
      <point x="344" y="673"/>
      <point x="309" y="684"/>
      <point x="280" y="684" type="curve" smooth="yes"/>
      <point x="175" y="684"/>
      <point x="126" y="615"/>
      <point x="126" y="507" type="curve" smooth="yes"/>
      <point x="126" y="383" type="line"/>
      <point x="52" y="383" type="line"/>
      <point x="52" y="359"/>
      <point x="52" y="334"/>
      <point x="53" y="310" type="curve"/>
      <point x="126" y="310" type="line"/>
      <point x="126" y="160" type="line" smooth="yes"/>
      <point x="126" y="111"/>
      <point x="109" y="77"/>
      <point x="64" y="75" type="curve" smooth="yes"/>
      <point x="60" y="75" type="line"/>
      <point x="63" y="0" type="line"/>
      <point x="460" y="0" type="line"/>
      <point x="456" y="25"/>
      <point x="452" y="50"/>
      <point x="447" y="75" type="curve"/>
      <point x="195" y="75" type="line"/>
      <point x="218" y="105"/>
      <point x="223" y="158"/>
      <point x="223" y="212" type="curve" smooth="yes"/>
      <point x="223" y="310" type="line"/>
      <point x="382" y="310" type="line"/>
      <point x="350" y="383" type="line"/>
      <point x="223" y="383" type="line"/>
    </contour>
  </outline>
</glyph>
<glyph name="brokenbar" format="1">
  <advance width="269"/>
  <unicode hex="00A6"/>
  <outline>
    <contour>
      <point x="182" y="288" type="line"/>
      <point x="87" y="294" type="line"/>
      <point x="87" y="0" type="line"/>
      <point x="182" y="-7" type="line"/>
    </contour>
    <contour>
      <point x="182" y="704" type="line"/>
      <point x="87" y="711" type="line"/>
      <point x="87" y="413" type="line"/>
      <point x="182" y="406" type="line"/>
    </contour>
  </outline>
</glyph>
<glyph name="logicalnot" format="1">
  <advance width="511"/>
  <unicode hex="00AC"/>
  <outline>
    <contour>
      <point x="490" y="356" type="line"/>
      <point x="482" y="406" type="line"/>
      <point x="16" y="406" type="line"/>
      <point x="24" y="330" type="line"/>
      <point x="406" y="330" type="line"/>
      <point x="406" y="117" type="line"/>
      <point x="490" y="112" type="line"/>
    </contour>
  </outline>
</glyph>
<glyph name="registered" format="1">
  <advance width="741"/>
  <unicode hex="00AE"/>
  <outline>
    <contour>
      <point x="575" y="162"/>
      <point x="700" y="305"/>
      <point x="700" y="487" type="curve" smooth="yes"/>
      <point x="700" y="671"/>
      <point x="575" y="814"/>
      <point x="371" y="814" type="curve" smooth="yes"/>
      <point x="167" y="814"/>
      <point x="41" y="671"/>
      <point x="41" y="487" type="curve" smooth="yes"/>
      <point x="41" y="305"/>
      <point x="167" y="162"/>
      <point x="371" y="162" type="curve" smooth="yes"/>
    </contour>
    <contour>
      <point x="205" y="223"/>
      <point x="107" y="335"/>
      <point x="107" y="488" type="curve" smooth="yes"/>
      <point x="107" y="643"/>
      <point x="205" y="755"/>
      <point x="371" y="755" type="curve" smooth="yes"/>
      <point x="535" y="755"/>
      <point x="634" y="643"/>
      <point x="634" y="488" type="curve" smooth="yes"/>
      <point x="634" y="335"/>
      <point x="535" y="223"/>
      <point x="371" y="221" type="curve"/>
    </contour>
    <contour>
      <point x="536" y="304" type="line"/>
      <point x="507" y="359"/>
      <point x="476" y="414"/>
      <point x="447" y="470" type="curve"/>
      <point x="482" y="486"/>
      <point x="511" y="518"/>
      <point x="511" y="569" type="curve" smooth="yes"/>
      <point x="511" y="648"/>
      <point x="450" y="680"/>
      <point x="370" y="680" type="curve" smooth="yes"/>
      <point x="246" y="680" type="line"/>
      <point x="246" y="304" type="line"/>
      <point x="317" y="304" type="line"/>
      <point x="317" y="454" type="line"/>
      <point x="352" y="454" type="line" smooth="yes"/>
      <point x="361" y="454"/>
      <point x="370" y="455"/>
      <point x="380" y="455" type="curve"/>
      <point x="405" y="404"/>
      <point x="430" y="354"/>
      <point x="456" y="304" type="curve"/>
    </contour>
    <contour>
      <point x="351" y="622" type="line" smooth="yes"/>
      <point x="403" y="622"/>
      <point x="438" y="618"/>
      <point x="438" y="566" type="curve" smooth="yes"/>
      <point x="438" y="519"/>
      <point x="399" y="511"/>
      <point x="349" y="511" type="curve" smooth="yes"/>
      <point x="317" y="511" type="line"/>
      <point x="317" y="622" type="line"/>
    </contour>
  </outline>
</glyph>
<glyph name="twosuperior" format="1">
  <advance width="395"/>
  <unicode hex="00B2"/>
  <outline>
    <contour>
      <point x="335" y="701"/>
      <point x="291" y="771"/>
      <point x="179" y="771" type="curve"/>
      <point x="109" y="771"/>
      <point x="61" y="736"/>
      <point x="47" y="725" type="curve"/>
      <point x="80" y="661" type="line"/>
      <point x="81" y="664"/>
      <point x="131" y="700"/>
      <point x="175" y="700" type="curve"/>
      <point x="225" y="700"/>
      <point x="247" y="670"/>
      <point x="247" y="641" type="curve"/>
      <point x="247" y="602"/>
      <point x="229" y="568"/>
      <point x="177" y="523" type="curve"/>
      <point x="31" y="399" type="line"/>
      <point x="31" y="336" type="line"/>
      <point x="348" y="336" type="line"/>
      <point x="338" y="403" type="line"/>
      <point x="142" y="403" type="line"/>
      <point x="228" y="475" type="line" smooth="yes"/>
      <point x="302" y="538"/>
      <point x="335" y="583"/>
      <point x="335" y="641" type="curve"/>
    </contour>
  </outline>
</glyph>
<glyph name="threesuperior" format="1">
  <advance width="416"/>
  <unicode hex="00B3"/>
  <outline>
    <contour>
      <point x="345" y="713"/>
      <point x="294" y="771"/>
      <point x="190" y="771" type="curve"/>
      <point x="129" y="771"/>
      <point x="82" y="750"/>
      <point x="38" y="722" type="curve"/>
      <point x="72" y="662" type="line"/>
      <point x="97" y="680"/>
      <point x="131" y="700"/>
      <point x="181" y="700" type="curve"/>
      <point x="234" y="700"/>
      <point x="257" y="674"/>
      <point x="257" y="644" type="curve"/>
      <point x="257" y="604"/>
      <point x="231" y="571"/>
      <point x="158" y="571" type="curve"/>
      <point x="121" y="571" type="line"/>
      <point x="131" y="504" type="line"/>
      <point x="153" y="504" type="line" smooth="yes"/>
      <point x="233" y="504"/>
      <point x="266" y="475"/>
      <point x="266" y="420" type="curve"/>
      <point x="266" y="374"/>
      <point x="226" y="348"/>
      <point x="174" y="348" type="curve"/>
      <point x="127" y="348"/>
      <point x="100" y="360"/>
      <point x="63" y="382" type="curve"/>
      <point x="26" y="322" type="line"/>
      <point x="66" y="301"/>
      <point x="123" y="278"/>
      <point x="179" y="278" type="curve"/>
      <point x="286" y="278"/>
      <point x="353" y="341"/>
      <point x="353" y="421" type="curve"/>
      <point x="353" y="484"/>
      <point x="314" y="529"/>
      <point x="271" y="539" type="curve"/>
      <point x="309" y="552"/>
      <point x="345" y="594"/>
      <point x="345" y="645" type="curve"/>
    </contour>
  </outline>
</glyph>
<glyph name="mu" format="1">
  <advance width="560"/>
  <unicode hex="00B5"/>
  <outline>
    <contour>
      <point x="297" y="-16"/>
      <point x="362" y="11"/>
      <point x="406" y="51" type="curve"/>
      <point x="433" y="0" type="line"/>
      <point x="487" y="0" type="line"/>
      <point x="487" y="485" type="line"/>
      <point x="391" y="485" type="line"/>
      <point x="391" y="120" type="line"/>
      <point x="352" y="87"/>
      <point x="302" y="66"/>
      <point x="265" y="66" type="curve"/>
      <point x="202" y="66"/>
      <point x="172" y="109"/>
      <point x="172" y="172" type="curve"/>
      <point x="172" y="485" type="line"/>
      <point x="76" y="485" type="line"/>
      <point x="76" y="-219" type="line"/>
      <point x="172" y="-209" type="line"/>
      <point x="172" y="-1" type="line"/>
      <point x="191" y="-11"/>
      <point x="216" y="-16"/>
      <point x="245" y="-16" type="curve"/>
    </contour>
  </outline>
</glyph>
<glyph name="paragraph" format="1">
  <advance width="880"/>
  <unicode hex="00B6"/>
  <outline>
    <contour>
      <point x="345" y="0" type="line"/>
      <point x="441" y="0" type="line"/>
      <point x="441" y="604" type="line"/>
      <point x="655" y="604" type="line"/>
      <point x="655" y="0" type="line"/>
      <point x="752" y="0" type="line"/>
      <point x="752" y="604" type="line"/>
      <point x="848" y="604" type="line"/>
      <point x="848" y="680" type="line"/>
      <point x="303" y="680" type="line" smooth="yes"/>
      <point x="158" y="680"/>
      <point x="47" y="621"/>
      <point x="47" y="468" type="curve" smooth="yes"/>
      <point x="47" y="317"/>
      <point x="171" y="250"/>
      <point x="314" y="250" type="curve" smooth="yes"/>
      <point x="345" y="250" type="line"/>
    </contour>
  </outline>
</glyph>
<glyph name="cedilla" format="1">
  <advance width="235"/>
  <unicode hex="00B8"/>
  <outline>
    <contour>
      <point x="93" y="13" type="line"/>
      <point x="57" y="-78" type="line"/>
      <point x="109" y="-84"/>
      <point x="146" y="-103"/>
      <point x="146" y="-127" type="curve"/>
      <point x="146" y="-147"/>
      <point x="122" y="-156"/>
      <point x="100" y="-156" type="curve"/>
      <point x="81" y="-156"/>
      <point x="53" y="-146"/>
      <point x="38" y="-139" type="curve"/>
      <point x="16" y="-198" type="line"/>
      <point x="36" y="-212"/>
      <point x="75" y="-221"/>
      <point x="100" y="-221" type="curve"/>
      <point x="162" y="-221"/>
      <point x="219" y="-191"/>
      <point x="219" y="-125" type="curve"/>
      <point x="219" y="-90"/>
      <point x="187" y="-53"/>
      <point x="144" y="-42" type="curve"/>
      <point x="166" y="13" type="line"/>
    </contour>
  </outline>
</glyph>
<glyph name="onesuperior" format="1">
  <advance width="355"/>
  <unicode hex="00B9"/>
  <outline>
    <contour>
      <point x="303" y="336" type="line"/>
      <point x="300" y="358"/>
      <point x="297" y="380"/>
      <point x="295" y="402" type="curve"/>
      <point x="231" y="402" type="line"/>
      <point x="231" y="764" type="line"/>
      <point x="174" y="764" type="line"/>
      <point x="137" y="741"/>
      <point x="100" y="719"/>
      <point x="63" y="697" type="curve"/>
      <point x="97" y="637" type="line"/>
      <point x="113" y="646"/>
      <point x="129" y="657"/>
      <point x="144" y="666" type="curve"/>
      <point x="144" y="402" type="line"/>
      <point x="63" y="402" type="line"/>
      <point x="71" y="336" type="line"/>
    </contour>
  </outline>
</glyph>
<glyph name="questiondown" format="1">
  <advance width="435"/>
  <unicode hex="00BF"/>
  <outline>
    <contour>
      <point x="36" y="11"/>
      <point x="96" y="-59"/>
      <point x="230" y="-59" type="curve"/>
      <point x="306" y="-59"/>
      <point x="359" y="-38"/>
      <point x="415" y="-1" type="curve"/>
      <point x="403" y="85" type="line"/>
      <point x="343" y="43"/>
      <point x="291" y="22"/>
      <point x="233" y="22" type="curve"/>
      <point x="167" y="22"/>
      <point x="128" y="51"/>
      <point x="128" y="113" type="curve"/>
      <point x="128" y="180"/>
      <point x="198" y="237"/>
      <point x="299" y="270" type="curve"/>
      <point x="290" y="455" type="line"/>
      <point x="221" y="484" type="line"/>
      <point x="209" y="319" type="line"/>
      <point x="107" y="269"/>
      <point x="36" y="187"/>
      <point x="36" y="112" type="curve"/>
    </contour>
    <contour>
      <point x="199" y="548"/>
      <point x="226" y="521"/>
      <point x="260" y="521" type="curve"/>
      <point x="294" y="521"/>
      <point x="321" y="548"/>
      <point x="321" y="582" type="curve"/>
      <point x="321" y="615"/>
      <point x="294" y="643"/>
      <point x="260" y="643" type="curve"/>
      <point x="226" y="643"/>
      <point x="199" y="615"/>
      <point x="199" y="582" type="curve"/>
    </contour>
  </outline>
</glyph>
<glyph name="Acircumflex" format="1">
  <advance width="617"/>
  <unicode hex="00C2"/>
  <outline>
    <contour>
      <point x="349" y="680" type="line"/>
      <point x="262" y="680" type="line"/>
      <point x="6" y="0" type="line"/>
      <point x="100" y="0" type="line"/>
      <point x="168" y="182" type="line"/>
      <point x="445" y="182" type="line"/>
      <point x="516" y="0" type="line"/>
      <point x="611" y="14" type="line"/>
    </contour>
    <contour>
      <point x="304" y="551" type="line"/>
      <point x="416" y="259" type="line"/>
      <point x="195" y="259" type="line"/>
    </contour>
    <contour>
      <point x="233" y="739" type="line"/>
      <point x="304" y="826" type="line"/>
      <point x="374" y="739" type="line"/>
      <point x="464" y="739" type="line"/>
      <point x="335" y="897" type="line"/>
      <point x="270" y="897" type="line"/>
      <point x="141" y="739" type="line"/>
    </contour>
  </outline>
</glyph>
<glyph name="Aring" format="1">
  <advance width="617"/>
  <unicode hex="00C5"/>
  <outline>
    <contour>
      <point x="349" y="680" type="line"/>
      <point x="262" y="680" type="line"/>
      <point x="6" y="0" type="line"/>
      <point x="100" y="0" type="line"/>
      <point x="168" y="182" type="line"/>
      <point x="445" y="182" type="line"/>
      <point x="516" y="0" type="line"/>
      <point x="611" y="14" type="line"/>
    </contour>
    <contour>
      <point x="304" y="551" type="line"/>
      <point x="416" y="259" type="line"/>
      <point x="195" y="259" type="line"/>
    </contour>
    <contour>
      <point x="345" y="811"/>
      <point x="327" y="792"/>
      <point x="304" y="792" type="curve"/>
      <point x="281" y="792"/>
      <point x="262" y="811"/>
      <point x="262" y="833" type="curve"/>
      <point x="262" y="857"/>
      <point x="281" y="875"/>
      <point x="304" y="875" type="curve"/>
      <point x="327" y="875"/>
      <point x="345" y="857"/>
      <point x="345" y="833" type="curve"/>
    </contour>
    <contour>
      <point x="401" y="886"/>
      <point x="356" y="926"/>
      <point x="304" y="926" type="curve"/>
      <point x="251" y="926"/>
      <point x="206" y="886"/>
      <point x="206" y="833" type="curve"/>
      <point x="206" y="781"/>
      <point x="251" y="744"/>
      <point x="304" y="744" type="curve"/>
      <point x="356" y="744"/>
      <point x="401" y="781"/>
      <point x="401" y="833" type="curve"/>
    </contour>
  </outline>
</glyph>
<glyph name="AE" format="1">
  <advance width="906"/>
  <unicode hex="00C6"/>
  <outline>
    <contour>
      <point x="448" y="0" type="line"/>
      <point x="880" y="0" type="line"/>
      <point x="868" y="75" type="line"/>
      <point x="545" y="75" type="line"/>
      <point x="545" y="309" type="line"/>
      <point x="749" y="309" type="line"/>
      <point x="735" y="383" type="line"/>
      <point x="545" y="383" type="line"/>
      <point x="545" y="606" type="line"/>
      <point x="845" y="606" type="line"/>
      <point x="833" y="680" type="line"/>
      <point x="437" y="680" type="line"/>
      <point x="3" y="14" type="line"/>
      <point x="33" y="9"/>
      <point x="63" y="4"/>
      <point x="93" y="0" type="curve"/>
      <point x="133" y="60"/>
      <point x="172" y="121"/>
      <point x="211" y="182" type="curve"/>
      <point x="448" y="182" type="line"/>
    </contour>
    <contour>
      <point x="262" y="259" type="line"/>
      <point x="448" y="548" type="line"/>
      <point x="448" y="259" type="line"/>
    </contour>
  </outline>
</glyph>
<glyph name="Ecircumflex" format="1">
  <advance width="552"/>
  <unicode hex="00CA"/>
  <outline>
    <contour>
      <point x="94" y="0" type="line"/>
      <point x="526" y="0" type="line"/>
      <point x="513" y="75" type="line"/>
      <point x="190" y="75" type="line"/>
      <point x="190" y="309" type="line"/>
      <point x="394" y="309" type="line"/>
      <point x="389" y="333"/>
      <point x="385" y="358"/>
      <point x="381" y="383" type="curve"/>
      <point x="190" y="383" type="line"/>
      <point x="190" y="606" type="line"/>
      <point x="490" y="606" type="line"/>
      <point x="485" y="631"/>
      <point x="482" y="655"/>
      <point x="477" y="680" type="curve"/>
      <point x="94" y="680" type="line"/>
    </contour>
    <contour>
      <point x="216" y="739" type="line"/>
      <point x="240" y="768"/>
      <point x="264" y="797"/>
      <point x="287" y="826" type="curve"/>
      <point x="311" y="797"/>
      <point x="334" y="768"/>
      <point x="357" y="739" type="curve"/>
      <point x="448" y="739" type="line"/>
      <point x="319" y="897" type="line"/>
      <point x="253" y="897" type="line"/>
      <point x="125" y="739" type="line"/>
    </contour>
  </outline>
</glyph>
<glyph name="Edieresis" format="1">
  <advance width="552"/>
  <unicode hex="00CB"/>
  <outline>
    <contour>
      <point x="94" y="0" type="line"/>
      <point x="526" y="0" type="line"/>
      <point x="513" y="75" type="line"/>
      <point x="190" y="75" type="line"/>
      <point x="190" y="309" type="line"/>
      <point x="394" y="309" type="line"/>
      <point x="389" y="333"/>
      <point x="385" y="358"/>
      <point x="381" y="383" type="curve"/>
      <point x="190" y="383" type="line"/>
      <point x="190" y="606" type="line"/>
      <point x="490" y="606" type="line"/>
      <point x="485" y="631"/>
      <point x="482" y="655"/>
      <point x="477" y="680" type="curve"/>
      <point x="94" y="680" type="line"/>
    </contour>
    <contour>
      <point x="254" y="844"/>
      <point x="231" y="868"/>
      <point x="201" y="868" type="curve" smooth="yes"/>
      <point x="171" y="868"/>
      <point x="146" y="844"/>
      <point x="146" y="814" type="curve" smooth="yes"/>
      <point x="146" y="784"/>
      <point x="171" y="760"/>
      <point x="201" y="760" type="curve" smooth="yes"/>
      <point x="231" y="760"/>
      <point x="254" y="784"/>
      <point x="254" y="814" type="curve" smooth="yes"/>
    </contour>
    <contour>
      <point x="428" y="844"/>
      <point x="405" y="868"/>
      <point x="374" y="868" type="curve" smooth="yes"/>
      <point x="345" y="868"/>
      <point x="320" y="844"/>
      <point x="320" y="814" type="curve" smooth="yes"/>
      <point x="320" y="784"/>
      <point x="345" y="760"/>
      <point x="374" y="760" type="curve" smooth="yes"/>
      <point x="405" y="760"/>
      <point x="428" y="784"/>
      <point x="428" y="814" type="curve" smooth="yes"/>
    </contour>
  </outline>
</glyph>
<glyph name="Igrave" format="1">
  <advance width="284"/>
  <unicode hex="00CC"/>
  <outline>
    <contour>
      <point x="94" y="0" type="line"/>
      <point x="190" y="0" type="line"/>
      <point x="190" y="680" type="line"/>
      <point x="94" y="680" type="line"/>
    </contour>
    <contour>
      <point x="46" y="897" type="line"/>
      <point x="136" y="739" type="line"/>
      <point x="209" y="739" type="line"/>
      <point x="148" y="897" type="line"/>
    </contour>
  </outline>
</glyph>
<glyph name="Iacute" format="1">
  <advance width="284"/>
  <unicode hex="00CD"/>
  <outline>
    <contour>
      <point x="94" y="0" type="line"/>
      <point x="190" y="0" type="line"/>
      <point x="190" y="680" type="line"/>
      <point x="94" y="680" type="line"/>
    </contour>
    <contour>
      <point x="138" y="897" type="line"/>
      <point x="78" y="739" type="line"/>
      <point x="150" y="739" type="line"/>
      <point x="241" y="897" type="line"/>
    </contour>
  </outline>
</glyph>
<glyph name="Eth" format="1">
  <advance width="705"/>
  <unicode hex="00D0"/>
  <outline>
    <contour>
      <point x="100" y="0" type="line"/>
      <point x="331" y="0" type="line" smooth="yes"/>
      <point x="531" y="0"/>
      <point x="639" y="144"/>
      <point x="639" y="344" type="curve" smooth="yes"/>
      <point x="639" y="536"/>
      <point x="547" y="680"/>
      <point x="336" y="680" type="curve" smooth="yes"/>
      <point x="100" y="680" type="line"/>
      <point x="100" y="375" type="line"/>
      <point x="19" y="375" type="line"/>
      <point x="23" y="350"/>
      <point x="25" y="325"/>
      <point x="29" y="300" type="curve"/>
      <point x="100" y="300" type="line"/>
    </contour>
    <contour>
      <point x="286" y="300" type="line"/>
      <point x="277" y="375" type="line"/>
      <point x="197" y="375" type="line"/>
      <point x="197" y="598" type="line"/>
      <point x="340" y="598" type="line" smooth="yes"/>
      <point x="478" y="598"/>
      <point x="541" y="495"/>
      <point x="541" y="343" type="curve" smooth="yes"/>
      <point x="541" y="170"/>
      <point x="458" y="80"/>
      <point x="331" y="80" type="curve" smooth="yes"/>
      <point x="197" y="80" type="line"/>
      <point x="197" y="300" type="line"/>
    </contour>
  </outline>
</glyph>
<glyph name="Otilde" format="1">
  <advance width="738"/>
  <unicode hex="00D5"/>
  <outline>
    <contour>
      <point x="674" y="535"/>
      <point x="582" y="696"/>
      <point x="370" y="696" type="curve"/>
      <point x="172" y="692"/>
      <point x="65" y="542"/>
      <point x="65" y="337" type="curve" smooth="yes"/>
      <point x="65" y="146"/>
      <point x="156" y="-14"/>
      <point x="367" y="-14" type="curve"/>
      <point x="566" y="-10"/>
      <point x="674" y="144"/>
      <point x="674" y="344" type="curve" smooth="yes"/>
    </contour>
    <contour>
      <point x="227" y="68"/>
      <point x="165" y="185"/>
      <point x="165" y="338" type="curve" smooth="yes"/>
      <point x="165" y="502"/>
      <point x="247" y="613"/>
      <point x="372" y="613" type="curve" smooth="yes"/>
      <point x="511" y="613"/>
      <point x="572" y="496"/>
      <point x="572" y="344" type="curve" smooth="yes"/>
      <point x="572" y="170"/>
      <point x="493" y="68"/>
      <point x="366" y="68" type="curve" smooth="yes"/>
    </contour>
    <contour>
      <point x="456" y="857" type="line"/>
      <point x="455" y="834"/>
      <point x="440" y="820"/>
      <point x="423" y="820" type="curve" smooth="yes"/>
      <point x="387" y="820"/>
      <point x="363" y="861"/>
      <point x="311" y="861" type="curve" smooth="yes"/>
      <point x="259" y="861"/>
      <point x="216" y="836"/>
      <point x="216" y="756" type="curve"/>
      <point x="281" y="756" type="line"/>
      <point x="282" y="778"/>
      <point x="299" y="793"/>
      <point x="315" y="793" type="curve" smooth="yes"/>
      <point x="350" y="793"/>
      <point x="376" y="751"/>
      <point x="424" y="751" type="curve" smooth="yes"/>
      <point x="475" y="751"/>
      <point x="519" y="777"/>
      <point x="519" y="857" type="curve"/>
    </contour>
  </outline>
</glyph>
<glyph name="Odieresis" format="1">
  <advance width="738"/>
  <unicode hex="00D6"/>
  <outline>
    <contour>
      <point x="172" y="692"/>
      <point x="65" y="542"/>
      <point x="65" y="337" type="curve"/>
      <point x="65" y="146"/>
      <point x="156" y="-14"/>
      <point x="367" y="-14" type="curve"/>
      <point x="566" y="-11"/>
      <point x="674" y="144"/>
      <point x="674" y="344" type="curve"/>
      <point x="674" y="535"/>
      <point x="582" y="696"/>
      <point x="370" y="696" type="curve"/>
    </contour>
    <contour>
      <point x="227" y="68"/>
      <point x="165" y="185"/>
      <point x="165" y="338" type="curve"/>
      <point x="165" y="502"/>
      <point x="247" y="613"/>
      <point x="372" y="613" type="curve"/>
      <point x="511" y="613"/>
      <point x="572" y="496"/>
      <point x="572" y="344" type="curve"/>
      <point x="572" y="170"/>
      <point x="493" y="68"/>
      <point x="366" y="68" type="curve"/>
    </contour>
    <contour>
      <point x="511" y="844"/>
      <point x="488" y="868"/>
      <point x="457" y="868" type="curve"/>
      <point x="428" y="868"/>
      <point x="403" y="844"/>
      <point x="403" y="814" type="curve"/>
      <point x="403" y="784"/>
      <point x="428" y="760"/>
      <point x="457" y="760" type="curve"/>
      <point x="488" y="760"/>
      <point x="511" y="784"/>
      <point x="511" y="814" type="curve"/>
    </contour>
    <contour>
      <point x="337" y="844"/>
      <point x="314" y="868"/>
      <point x="284" y="868" type="curve"/>
      <point x="254" y="868"/>
      <point x="229" y="844"/>
      <point x="229" y="814" type="curve"/>
      <point x="229" y="784"/>
      <point x="254" y="760"/>
      <point x="284" y="760" type="curve"/>
      <point x="314" y="760"/>
      <point x="337" y="784"/>
      <point x="337" y="814" type="curve"/>
    </contour>
  </outline>
</glyph>
<glyph name="multiply" format="1">
  <advance width="510"/>
  <unicode hex="00D7"/>
  <outline>
    <contour>
      <point x="21" y="43" type="line"/>
      <point x="109" y="28" type="line"/>
      <point x="153" y="80"/>
      <point x="198" y="135"/>
      <point x="244" y="191" type="curve"/>
      <point x="375" y="30" type="line"/>
      <point x="473" y="30" type="line"/>
      <point x="369" y="159" type="line" smooth="yes"/>
      <point x="346" y="187"/>
      <point x="324" y="217"/>
      <point x="301" y="246" type="curve"/>
      <point x="363" y="322"/>
      <point x="427" y="398"/>
      <point x="489" y="474" type="curve"/>
      <point x="391" y="474" type="line"/>
      <point x="345" y="418"/>
      <point x="298" y="364"/>
      <point x="252" y="308" type="curve"/>
      <point x="118" y="475" type="line"/>
      <point x="88" y="470"/>
      <point x="58" y="465"/>
      <point x="28" y="461" type="curve"/>
      <point x="194" y="254" type="line"/>
    </contour>
  </outline>
</glyph>
<glyph name="Ugrave" format="1">
  <advance width="699"/>
  <unicode hex="00D9"/>
  <outline>
    <contour>
      <point x="248" y="68"/>
      <point x="182" y="137"/>
      <point x="182" y="252" type="curve" smooth="yes"/>
      <point x="182" y="680" type="line"/>
      <point x="86" y="680" type="line"/>
      <point x="86" y="243" type="line" smooth="yes"/>
      <point x="86" y="96"/>
      <point x="186" y="-11"/>
      <point x="349" y="-11" type="curve" smooth="yes"/>
      <point x="512" y="-11"/>
      <point x="612" y="97"/>
      <point x="612" y="243" type="curve" smooth="yes"/>
      <point x="612" y="680" type="line"/>
      <point x="515" y="680" type="line"/>
      <point x="515" y="252" type="line" smooth="yes"/>
      <point x="515" y="139"/>
      <point x="453" y="68"/>
      <point x="349" y="68" type="curve" smooth="yes"/>
    </contour>
    <contour>
      <point x="258" y="897" type="line"/>
      <point x="348" y="739" type="line"/>
      <point x="421" y="739" type="line"/>
      <point x="360" y="897" type="line"/>
    </contour>
  </outline>
</glyph>
<glyph name="Uacute" format="1">
  <advance width="699"/>
  <unicode hex="00DA"/>
  <outline>
    <contour>
      <point x="248" y="68"/>
      <point x="182" y="137"/>
      <point x="182" y="252" type="curve" smooth="yes"/>
      <point x="182" y="680" type="line"/>
      <point x="86" y="680" type="line"/>
      <point x="86" y="243" type="line" smooth="yes"/>
      <point x="86" y="96"/>
      <point x="186" y="-11"/>
      <point x="349" y="-11" type="curve" smooth="yes"/>
      <point x="512" y="-11"/>
      <point x="612" y="97"/>
      <point x="612" y="243" type="curve" smooth="yes"/>
      <point x="612" y="680" type="line"/>
      <point x="515" y="680" type="line"/>
      <point x="515" y="252" type="line" smooth="yes"/>
      <point x="515" y="139"/>
      <point x="453" y="68"/>
      <point x="349" y="68" type="curve" smooth="yes"/>
    </contour>
    <contour>
      <point x="335" y="897" type="line"/>
      <point x="275" y="739" type="line"/>
      <point x="348" y="739" type="line"/>
      <point x="438" y="897" type="line"/>
    </contour>
  </outline>
</glyph>
<glyph name="Thorn" format="1">
  <advance width="598"/>
  <unicode hex="00DE"/>
  <outline>
    <contour>
      <point x="94" y="0" type="line"/>
      <point x="190" y="0" type="line"/>
      <point x="190" y="136" type="line"/>
      <point x="279" y="136" type="line" smooth="yes"/>
      <point x="420" y="136"/>
      <point x="546" y="203"/>
      <point x="546" y="355" type="curve" smooth="yes"/>
      <point x="546" y="508"/>
      <point x="434" y="566"/>
      <point x="289" y="566" type="curve" smooth="yes"/>
      <point x="190" y="566" type="line"/>
      <point x="190" y="680" type="line"/>
      <point x="94" y="680" type="line"/>
    </contour>
    <contour>
      <point x="288" y="487" type="line" smooth="yes"/>
      <point x="386" y="487"/>
      <point x="446" y="453"/>
      <point x="446" y="351" type="curve"/>
      <point x="442" y="255"/>
      <point x="376" y="216"/>
      <point x="283" y="216" type="curve" smooth="yes"/>
      <point x="190" y="216" type="line"/>
      <point x="190" y="487" type="line"/>
    </contour>
  </outline>
</glyph>
<glyph name="agrave" format="1">
  <advance width="508"/>
  <unicode hex="00E0"/>
  <outline>
    <contour>
      <point x="203" y="498"/>
      <point x="117" y="480"/>
      <point x="79" y="455" type="curve"/>
      <point x="106" y="379" type="line"/>
      <point x="142" y="395"/>
      <point x="188" y="412"/>
      <point x="246" y="412" type="curve" smooth="yes"/>
      <point x="322" y="412"/>
      <point x="343" y="357"/>
      <point x="343" y="290" type="curve"/>
      <point x="228" y="290" type="line" smooth="yes"/>
      <point x="122" y="290"/>
      <point x="50" y="238"/>
      <point x="50" y="140" type="curve" smooth="yes"/>
      <point x="50" y="51"/>
      <point x="104" y="-12"/>
      <point x="219" y="-12" type="curve" smooth="yes"/>
      <point x="271" y="-12"/>
      <point x="327" y="16"/>
      <point x="361" y="46" type="curve"/>
      <point x="369" y="31"/>
      <point x="377" y="15"/>
      <point x="386" y="0" type="curve"/>
      <point x="440" y="0" type="line"/>
      <point x="440" y="329" type="line" smooth="yes"/>
      <point x="440" y="429"/>
      <point x="357" y="498"/>
      <point x="244" y="498" type="curve" smooth="yes"/>
    </contour>
    <contour>
      <point x="162" y="64"/>
      <point x="136" y="103"/>
      <point x="136" y="140" type="curve" smooth="yes"/>
      <point x="136" y="186"/>
      <point x="167" y="226"/>
      <point x="226" y="226" type="curve" smooth="yes"/>
      <point x="344" y="226" type="line"/>
      <point x="344" y="128" type="line"/>
      <point x="310" y="91"/>
      <point x="266" y="64"/>
      <point x="217" y="64" type="curve" smooth="yes"/>
    </contour>
    <contour>
      <point x="148" y="747" type="line"/>
      <point x="238" y="589" type="line"/>
      <point x="311" y="589" type="line"/>
      <point x="251" y="747" type="line"/>
    </contour>
  </outline>
</glyph>
<glyph name="atilde" format="1">
  <advance width="508"/>
  <unicode hex="00E3"/>
  <outline>
    <contour>
      <point x="203" y="498"/>
      <point x="117" y="480"/>
      <point x="79" y="455" type="curve"/>
      <point x="106" y="379" type="line"/>
      <point x="142" y="395"/>
      <point x="188" y="412"/>
      <point x="246" y="412" type="curve" smooth="yes"/>
      <point x="322" y="412"/>
      <point x="343" y="357"/>
      <point x="343" y="290" type="curve"/>
      <point x="228" y="290" type="line" smooth="yes"/>
      <point x="122" y="290"/>
      <point x="50" y="238"/>
      <point x="50" y="140" type="curve" smooth="yes"/>
      <point x="50" y="51"/>
      <point x="104" y="-12"/>
      <point x="219" y="-12" type="curve" smooth="yes"/>
      <point x="271" y="-12"/>
      <point x="327" y="16"/>
      <point x="361" y="46" type="curve"/>
      <point x="369" y="31"/>
      <point x="377" y="15"/>
      <point x="386" y="0" type="curve"/>
      <point x="440" y="0" type="line"/>
      <point x="440" y="329" type="line" smooth="yes"/>
      <point x="440" y="429"/>
      <point x="357" y="498"/>
      <point x="244" y="498" type="curve" smooth="yes"/>
    </contour>
    <contour>
      <point x="162" y="64"/>
      <point x="136" y="103"/>
      <point x="136" y="140" type="curve" smooth="yes"/>
      <point x="136" y="186"/>
      <point x="167" y="226"/>
      <point x="226" y="226" type="curve" smooth="yes"/>
      <point x="344" y="226" type="line"/>
      <point x="344" y="128" type="line"/>
      <point x="310" y="91"/>
      <point x="266" y="64"/>
      <point x="217" y="64" type="curve" smooth="yes"/>
    </contour>
    <contour>
      <point x="335" y="707" type="line"/>
      <point x="334" y="685"/>
      <point x="318" y="670"/>
      <point x="302" y="670" type="curve" smooth="yes"/>
      <point x="266" y="670"/>
      <point x="243" y="711"/>
      <point x="190" y="711" type="curve" smooth="yes"/>
      <point x="138" y="711"/>
      <point x="94" y="686"/>
      <point x="94" y="606" type="curve"/>
      <point x="161" y="606" type="line"/>
      <point x="161" y="627"/>
      <point x="177" y="643"/>
      <point x="193" y="643" type="curve" smooth="yes"/>
      <point x="229" y="643"/>
      <point x="255" y="601"/>
      <point x="302" y="601" type="curve" smooth="yes"/>
      <point x="354" y="601"/>
      <point x="399" y="627"/>
      <point x="399" y="707" type="curve"/>
    </contour>
  </outline>
</glyph>
<glyph name="aring" format="1">
  <advance width="508"/>
  <unicode hex="00E5"/>
  <outline>
    <contour>
      <point x="203" y="498"/>
      <point x="117" y="480"/>
      <point x="79" y="455" type="curve"/>
      <point x="106" y="379" type="line"/>
      <point x="142" y="395"/>
      <point x="188" y="412"/>
      <point x="246" y="412" type="curve" smooth="yes"/>
      <point x="322" y="412"/>
      <point x="343" y="357"/>
      <point x="343" y="290" type="curve"/>
      <point x="228" y="290" type="line" smooth="yes"/>
      <point x="122" y="290"/>
      <point x="50" y="238"/>
      <point x="50" y="140" type="curve" smooth="yes"/>
      <point x="50" y="51"/>
      <point x="104" y="-12"/>
      <point x="219" y="-12" type="curve" smooth="yes"/>
      <point x="271" y="-12"/>
      <point x="327" y="16"/>
      <point x="361" y="46" type="curve"/>
      <point x="369" y="31"/>
      <point x="377" y="15"/>
      <point x="386" y="0" type="curve"/>
      <point x="440" y="0" type="line"/>
      <point x="440" y="329" type="line" smooth="yes"/>
      <point x="440" y="429"/>
      <point x="357" y="498"/>
      <point x="244" y="498" type="curve" smooth="yes"/>
    </contour>
    <contour>
      <point x="162" y="64"/>
      <point x="136" y="103"/>
      <point x="136" y="140" type="curve" smooth="yes"/>
      <point x="136" y="186"/>
      <point x="167" y="226"/>
      <point x="226" y="226" type="curve" smooth="yes"/>
      <point x="344" y="226" type="line"/>
      <point x="344" y="128" type="line"/>
      <point x="310" y="91"/>
      <point x="266" y="64"/>
      <point x="217" y="64" type="curve" smooth="yes"/>
    </contour>
    <contour>
      <point x="292" y="661"/>
      <point x="274" y="642"/>
      <point x="251" y="642" type="curve" smooth="yes"/>
      <point x="228" y="642"/>
      <point x="209" y="661"/>
      <point x="209" y="683" type="curve" smooth="yes"/>
      <point x="209" y="707"/>
      <point x="228" y="725"/>
      <point x="251" y="725" type="curve" smooth="yes"/>
      <point x="274" y="725"/>
      <point x="292" y="707"/>
      <point x="292" y="683" type="curve" smooth="yes"/>
    </contour>
    <contour>
      <point x="349" y="736"/>
      <point x="303" y="776"/>
      <point x="251" y="776" type="curve" smooth="yes"/>
      <point x="198" y="776"/>
      <point x="152" y="736"/>
      <point x="152" y="683" type="curve" smooth="yes"/>
      <point x="152" y="631"/>
      <point x="198" y="594"/>
      <point x="251" y="594" type="curve" smooth="yes"/>
      <point x="303" y="594"/>
      <point x="349" y="631"/>
      <point x="349" y="683" type="curve" smooth="yes"/>
    </contour>
  </outline>
</glyph>
<glyph name="edieresis" format="1">
  <advance width="533"/>
  <unicode hex="00EB"/>
  <outline>
    <contour>
      <point x="491" y="221" type="line"/>
      <point x="491" y="370"/>
      <point x="437" y="498"/>
      <point x="279" y="498" type="curve" smooth="yes"/>
      <point x="133" y="498"/>
      <point x="47" y="394"/>
      <point x="47" y="243" type="curve" smooth="yes"/>
      <point x="47" y="90"/>
      <point x="136" y="-12"/>
      <point x="300" y="-12" type="curve" smooth="yes"/>
      <point x="341" y="-12"/>
      <point x="419" y="1"/>
      <point x="462" y="31" type="curve"/>
      <point x="432" y="101" type="line"/>
      <point x="392" y="82"/>
      <point x="358" y="68"/>
      <point x="300" y="68" type="curve" smooth="yes"/>
      <point x="201" y="68"/>
      <point x="154" y="131"/>
      <point x="147" y="221" type="curve"/>
    </contour>
    <contour>
      <point x="350" y="416"/>
      <point x="386" y="366"/>
      <point x="398" y="286" type="curve"/>
      <point x="149" y="286" type="line"/>
      <point x="159" y="365"/>
      <point x="201" y="416"/>
      <point x="276" y="416" type="curve" smooth="yes"/>
    </contour>
    <contour>
      <point x="245" y="694"/>
      <point x="221" y="718"/>
      <point x="190" y="718" type="curve" smooth="yes"/>
      <point x="160" y="718"/>
      <point x="136" y="694"/>
      <point x="136" y="664" type="curve" smooth="yes"/>
      <point x="136" y="634"/>
      <point x="160" y="610"/>
      <point x="190" y="610" type="curve" smooth="yes"/>
      <point x="221" y="610"/>
      <point x="245" y="634"/>
      <point x="245" y="664" type="curve" smooth="yes"/>
    </contour>
    <contour>
      <point x="418" y="694"/>
      <point x="395" y="718"/>
      <point x="365" y="718" type="curve" smooth="yes"/>
      <point x="334" y="718"/>
      <point x="310" y="694"/>
      <point x="310" y="664" type="curve" smooth="yes"/>
      <point x="310" y="634"/>
      <point x="334" y="610"/>
      <point x="365" y="610" type="curve" smooth="yes"/>
      <point x="395" y="610"/>
      <point x="418" y="634"/>
      <point x="418" y="664" type="curve" smooth="yes"/>
    </contour>
  </outline>
</glyph>
<glyph name="igrave" format="1">
  <advance width="244"/>
  <unicode hex="00EC"/>
  <outline>
    <contour>
      <point x="73" y="0" type="line"/>
      <point x="170" y="0" type="line"/>
      <point x="170" y="485" type="line"/>
      <point x="73" y="485" type="line"/>
    </contour>
    <contour>
      <point x="7" y="747" type="line"/>
      <point x="97" y="589" type="line"/>
      <point x="169" y="589" type="line"/>
      <point x="150" y="642"/>
      <point x="130" y="694"/>
      <point x="110" y="747" type="curve"/>
    </contour>
  </outline>
</glyph>
<glyph name="icircumflex" format="1">
  <advance width="244"/>
  <unicode hex="00EE"/>
  <outline>
    <contour>
      <point x="73" y="0" type="line"/>
      <point x="170" y="0" type="line"/>
      <point x="170" y="485" type="line"/>
      <point x="73" y="485" type="line"/>
    </contour>
    <contour>
      <point x="52" y="589" type="line"/>
      <point x="124" y="676" type="line"/>
      <point x="193" y="589" type="line"/>
      <point x="284" y="589" type="line"/>
      <point x="154" y="747" type="line"/>
      <point x="90" y="747" type="line"/>
      <point x="46" y="694"/>
      <point x="4" y="642"/>
      <point x="-39" y="589" type="curve"/>
    </contour>
  </outline>
</glyph>
<glyph name="eth" format="1">
  <advance width="549"/>
  <unicode hex="00F0"/>
  <outline>
    <contour>
      <point x="399" y="637" type="line"/>
      <point x="360" y="702" type="line"/>
      <point x="283" y="637" type="line"/>
      <point x="238" y="667"/>
      <point x="191" y="688"/>
      <point x="145" y="698" type="curve"/>
      <point x="102" y="635" type="line"/>
      <point x="140" y="627"/>
      <point x="180" y="609"/>
      <point x="216" y="585" type="curve"/>
      <point x="136" y="517" type="line"/>
      <point x="175" y="452" type="line"/>
      <point x="278" y="537" type="line"/>
      <point x="331" y="487"/>
      <point x="374" y="419"/>
      <point x="390" y="342" type="curve"/>
      <point x="354" y="372"/>
      <point x="303" y="397"/>
      <point x="252" y="397" type="curve"/>
      <point x="124" y="397"/>
      <point x="41" y="303"/>
      <point x="41" y="197" type="curve"/>
      <point x="41" y="88"/>
      <point x="125" y="-13"/>
      <point x="250" y="-13" type="curve"/>
      <point x="392" y="-13"/>
      <point x="491" y="81"/>
      <point x="491" y="262" type="curve"/>
      <point x="491" y="395"/>
      <point x="429" y="510"/>
      <point x="344" y="590" type="curve"/>
    </contour>
    <contour>
      <point x="177" y="67"/>
      <point x="131" y="127"/>
      <point x="131" y="192" type="curve"/>
      <point x="131" y="260"/>
      <point x="176" y="325"/>
      <point x="252" y="325" type="curve"/>
      <point x="323" y="325"/>
      <point x="377" y="282"/>
      <point x="400" y="237" type="curve"/>
      <point x="392" y="135"/>
      <point x="346" y="67"/>
      <point x="252" y="67" type="curve"/>
    </contour>
  </outline>
</glyph>
<glyph name="oslash" format="1">
  <advance width="559"/>
  <unicode hex="00F8"/>
  <outline>
    <contour>
      <point x="47" y="92"/>
      <point x="124" y="-11"/>
      <point x="271" y="-13" type="curve"/>
      <point x="421" y="-12"/>
      <point x="511" y="88"/>
      <point x="511" y="239" type="curve"/>
      <point x="511" y="392"/>
      <point x="433" y="498"/>
      <point x="280" y="498" type="curve"/>
      <point x="132" y="497"/>
      <point x="48" y="394"/>
      <point x="47" y="244" type="curve"/>
    </contour>
    <contour>
      <point x="413" y="132"/>
      <point x="364" y="69"/>
      <point x="273" y="69" type="curve"/>
      <point x="261" y="69"/>
      <point x="250" y="70"/>
      <point x="241" y="74" type="curve"/>
      <point x="390" y="350" type="line"/>
      <point x="406" y="322"/>
      <point x="414" y="282"/>
      <point x="414" y="239" type="curve"/>
    </contour>
    <contour>
      <point x="297" y="416"/>
      <point x="313" y="413"/>
      <point x="322" y="407" type="curve"/>
      <point x="172" y="126" type="line"/>
      <point x="152" y="155"/>
      <point x="145" y="197"/>
      <point x="145" y="245" type="curve"/>
      <point x="146" y="350"/>
      <point x="191" y="416"/>
      <point x="283" y="416" type="curve"/>
    </contour>
  </outline>
</glyph>
<glyph name="ydieresis" format="1">
  <advance width="484"/>
  <unicode hex="00FF"/>
  <outline>
    <contour>
      <point x="168" y="-61" type="line"/>
      <point x="151" y="-106"/>
      <point x="105" y="-126"/>
      <point x="57" y="-147" type="curve"/>
      <point x="89" y="-221" type="line"/>
      <point x="164" y="-204"/>
      <point x="231" y="-155"/>
      <point x="257" y="-88" type="curve"/>
      <point x="309" y="58" type="line"/>
      <point x="472" y="485" type="line"/>
      <point x="373" y="485" type="line"/>
      <point x="245" y="137" type="line"/>
      <point x="110" y="485" type="line"/>
      <point x="13" y="471" type="line"/>
      <point x="196" y="13" type="line"/>
    </contour>
    <contour>
      <point x="213" y="694"/>
      <point x="190" y="718"/>
      <point x="159" y="718" type="curve"/>
      <point x="130" y="718"/>
      <point x="105" y="694"/>
      <point x="105" y="664" type="curve"/>
      <point x="105" y="634"/>
      <point x="130" y="610"/>
      <point x="159" y="610" type="curve"/>
      <point x="190" y="610"/>
      <point x="213" y="634"/>
      <point x="213" y="664" type="curve"/>
    </contour>
    <contour>
      <point x="387" y="694"/>
      <point x="364" y="718"/>
      <point x="335" y="718" type="curve"/>
      <point x="303" y="718"/>
      <point x="279" y="694"/>
      <point x="279" y="664" type="curve"/>
      <point x="279" y="634"/>
      <point x="303" y="610"/>
      <point x="335" y="610" type="curve"/>
      <point x="364" y="610"/>
      <point x="387" y="634"/>
      <point x="387" y="664" type="curve"/>
    </contour>
  </outline>
</glyph>
<glyph name="Amacron" format="1">
  <advance width="617"/>
  <unicode hex="0100"/>
  <outline>
    <contour>
      <point x="349" y="680" type="line"/>
      <point x="262" y="680" type="line"/>
      <point x="6" y="0" type="line"/>
      <point x="100" y="0" type="line"/>
      <point x="168" y="182" type="line"/>
      <point x="445" y="182" type="line"/>
      <point x="516" y="0" type="line"/>
      <point x="611" y="14" type="line"/>
    </contour>
    <contour>
      <point x="304" y="551" type="line"/>
      <point x="416" y="259" type="line"/>
      <point x="195" y="259" type="line"/>
    </contour>
    <contour>
      <point x="177" y="852" type="line"/>
      <point x="177" y="776" type="line"/>
      <point x="428" y="776" type="line"/>
      <point x="428" y="852" type="line"/>
    </contour>
  </outline>
</glyph>
<glyph name="Aogonek" format="1">
  <advance width="617"/>
  <unicode hex="0104"/>
  <outline>
    <contour>
      <point x="262" y="680" type="line"/>
      <point x="6" y="0" type="line"/>
      <point x="100" y="0" type="line"/>
      <point x="123" y="60"/>
      <point x="145" y="121"/>
      <point x="168" y="182" type="curve"/>
      <point x="445" y="182" type="line"/>
      <point x="514" y="4" type="line"/>
      <point x="488" y="-19"/>
      <point x="467" y="-68"/>
      <point x="467" y="-102" type="curve" smooth="yes"/>
      <point x="467" y="-162"/>
      <point x="512" y="-207"/>
      <point x="577" y="-207" type="curve" smooth="yes"/>
      <point x="613" y="-207"/>
      <point x="643" y="-196"/>
      <point x="668" y="-175" type="curve"/>
      <point x="638" y="-116" type="line"/>
      <point x="623" y="-129"/>
      <point x="605" y="-135"/>
      <point x="590" y="-135" type="curve" smooth="yes"/>
      <point x="566" y="-135"/>
      <point x="549" y="-122"/>
      <point x="549" y="-95" type="curve" smooth="yes"/>
      <point x="549" y="-64"/>
      <point x="587" y="-6"/>
      <point x="611" y="14" type="curve"/>
      <point x="524" y="236"/>
      <point x="437" y="458"/>
      <point x="349" y="680" type="curve"/>
    </contour>
    <contour>
      <point x="416" y="259" type="line"/>
      <point x="195" y="259" type="line"/>
      <point x="232" y="356"/>
      <point x="268" y="454"/>
      <point x="304" y="551" type="curve"/>
    </contour>
  </outline>
</glyph>
<glyph name="ccaron" format="1">
  <advance width="474"/>
  <unicode hex="010D"/>
  <outline>
    <contour>
      <point x="146" y="342"/>
      <point x="190" y="416"/>
      <point x="281" y="416" type="curve"/>
      <point x="339" y="416"/>
      <point x="366" y="401"/>
      <point x="407" y="383" type="curve"/>
      <point x="435" y="451" type="line"/>
      <point x="392" y="481"/>
      <point x="322" y="498"/>
      <point x="282" y="498" type="curve"/>
      <point x="131" y="498"/>
      <point x="48" y="394"/>
      <point x="47" y="243" type="curve"/>
      <point x="47" y="90"/>
      <point x="128" y="-13"/>
      <point x="278" y="-13" type="curve"/>
      <point x="320" y="-13"/>
      <point x="390" y="3"/>
      <point x="433" y="33" type="curve"/>
      <point x="404" y="102" type="line"/>
      <point x="363" y="82"/>
      <point x="337" y="69"/>
      <point x="278" y="69" type="curve"/>
      <point x="186" y="69"/>
      <point x="145" y="142"/>
      <point x="145" y="244" type="curve"/>
    </contour>
    <contour>
      <point x="117" y="747" type="line"/>
      <point x="246" y="589" type="line"/>
      <point x="311" y="589" type="line"/>
      <point x="439" y="747" type="line"/>
      <point x="351" y="747" type="line"/>
      <point x="280" y="661" type="line"/>
      <point x="209" y="747" type="line"/>
    </contour>
  </outline>
</glyph>
<glyph name="Dcaron" format="1">
  <advance width="698"/>
  <unicode hex="010E"/>
  <outline>
    <contour>
      <point x="94" y="0" type="line"/>
      <point x="325" y="0" type="line" smooth="yes"/>
      <point x="524" y="0"/>
      <point x="632" y="144"/>
      <point x="632" y="344" type="curve" smooth="yes"/>
      <point x="632" y="536"/>
      <point x="541" y="680"/>
      <point x="329" y="680" type="curve" smooth="yes"/>
      <point x="94" y="680" type="line"/>
    </contour>
    <contour>
      <point x="333" y="598" type="line" smooth="yes"/>
      <point x="472" y="598"/>
      <point x="535" y="495"/>
      <point x="535" y="343" type="curve" smooth="yes"/>
      <point x="535" y="170"/>
      <point x="451" y="80"/>
      <point x="325" y="80" type="curve" smooth="yes"/>
      <point x="190" y="80" type="line"/>
      <point x="190" y="598" type="line"/>
    </contour>
    <contour>
      <point x="149" y="897" type="line"/>
      <point x="278" y="738" type="line"/>
      <point x="343" y="738" type="line"/>
      <point x="472" y="897" type="line"/>
      <point x="382" y="897" type="line"/>
      <point x="358" y="868"/>
      <point x="335" y="839"/>
      <point x="312" y="810" type="curve"/>
      <point x="288" y="839"/>
      <point x="264" y="868"/>
      <point x="241" y="897" type="curve"/>
    </contour>
  </outline>
</glyph>
<glyph name="dcaron" format="1">
  <advance width="715"/>
  <unicode hex="010F"/>
  <outline>
    <contour>
      <point x="491" y="705" type="line"/>
      <point x="394" y="695" type="line"/>
      <point x="394" y="456" type="line"/>
      <point x="354" y="483"/>
      <point x="304" y="501"/>
      <point x="264" y="501" type="curve"/>
      <point x="122" y="501"/>
      <point x="47" y="392"/>
      <point x="47" y="243" type="curve"/>
      <point x="47" y="95"/>
      <point x="119" y="-13"/>
      <point x="261" y="-13" type="curve"/>
      <point x="308" y="-13"/>
      <point x="368" y="9"/>
      <point x="410" y="45" type="curve"/>
      <point x="436" y="0" type="line"/>
      <point x="491" y="0" type="line"/>
    </contour>
    <contour>
      <point x="145" y="337"/>
      <point x="181" y="419"/>
      <point x="281" y="419" type="curve"/>
      <point x="317" y="419"/>
      <point x="358" y="401"/>
      <point x="394" y="372" type="curve"/>
      <point x="394" y="116" type="line"/>
      <point x="358" y="87"/>
      <point x="317" y="69"/>
      <point x="281" y="69" type="curve"/>
      <point x="177" y="69"/>
      <point x="145" y="146"/>
      <point x="145" y="244" type="curve"/>
    </contour>
    <contour>
      <point x="707" y="693"/>
      <point x="679" y="722"/>
      <point x="646" y="722" type="curve"/>
      <point x="611" y="722"/>
      <point x="584" y="691"/>
      <point x="584" y="661" type="curve"/>
      <point x="584" y="631"/>
      <point x="609" y="603"/>
      <point x="635" y="601" type="curve"/>
      <point x="628" y="562"/>
      <point x="605" y="541"/>
      <point x="572" y="515" type="curve"/>
      <point x="595" y="470" type="line"/>
      <point x="659" y="504"/>
      <point x="707" y="582"/>
      <point x="707" y="650" type="curve"/>
    </contour>
  </outline>
</glyph>
<glyph name="dcroat" format="1">
  <advance width="567"/>
  <unicode hex="0111"/>
  <outline>
    <contour>
      <point x="549" y="555" type="line"/>
      <point x="540" y="625" type="line"/>
      <point x="491" y="625" type="line"/>
      <point x="491" y="705" type="line"/>
      <point x="394" y="695" type="line"/>
      <point x="394" y="625" type="line"/>
      <point x="285" y="625" type="line"/>
      <point x="295" y="555" type="line"/>
      <point x="394" y="555" type="line"/>
      <point x="394" y="456" type="line"/>
      <point x="354" y="483"/>
      <point x="304" y="501"/>
      <point x="264" y="501" type="curve"/>
      <point x="122" y="501"/>
      <point x="47" y="392"/>
      <point x="47" y="243" type="curve"/>
      <point x="47" y="95"/>
      <point x="119" y="-13"/>
      <point x="261" y="-13" type="curve"/>
      <point x="308" y="-13"/>
      <point x="368" y="9"/>
      <point x="410" y="45" type="curve"/>
      <point x="436" y="0" type="line"/>
      <point x="491" y="0" type="line"/>
      <point x="491" y="555" type="line"/>
    </contour>
    <contour>
      <point x="145" y="337"/>
      <point x="181" y="419"/>
      <point x="281" y="419" type="curve"/>
      <point x="317" y="419"/>
      <point x="358" y="401"/>
      <point x="394" y="372" type="curve"/>
      <point x="394" y="116" type="line"/>
      <point x="358" y="87"/>
      <point x="317" y="69"/>
      <point x="281" y="69" type="curve"/>
      <point x="177" y="69"/>
      <point x="145" y="146"/>
      <point x="145" y="244" type="curve"/>
    </contour>
  </outline>
</glyph>
<glyph name="Edotaccent" format="1">
  <advance width="552"/>
  <unicode hex="0116"/>
  <outline>
    <contour>
      <point x="94" y="0" type="line"/>
      <point x="526" y="0" type="line"/>
      <point x="513" y="75" type="line"/>
      <point x="190" y="75" type="line"/>
      <point x="190" y="309" type="line"/>
      <point x="394" y="309" type="line"/>
      <point x="389" y="333"/>
      <point x="385" y="358"/>
      <point x="381" y="383" type="curve"/>
      <point x="190" y="383" type="line"/>
      <point x="190" y="606" type="line"/>
      <point x="490" y="606" type="line"/>
      <point x="485" y="631"/>
      <point x="482" y="655"/>
      <point x="477" y="680" type="curve"/>
      <point x="94" y="680" type="line"/>
    </contour>
    <contour>
      <point x="347" y="850"/>
      <point x="321" y="877"/>
      <point x="287" y="877" type="curve" smooth="yes"/>
      <point x="253" y="877"/>
      <point x="226" y="850"/>
      <point x="226" y="816" type="curve" smooth="yes"/>
      <point x="226" y="782"/>
      <point x="253" y="756"/>
      <point x="287" y="756" type="curve" smooth="yes"/>
      <point x="321" y="756"/>
      <point x="347" y="782"/>
      <point x="347" y="816" type="curve" smooth="yes"/>
    </contour>
  </outline>
</glyph>
<glyph name="Eogonek" format="1">
  <advance width="552"/>
  <unicode hex="0118"/>
  <outline>
    <contour>
      <point x="94" y="0" type="line"/>
      <point x="369" y="0" type="line"/>
      <point x="345" y="-25"/>
      <point x="326" y="-70"/>
      <point x="326" y="-102" type="curve" smooth="yes"/>
      <point x="326" y="-162"/>
      <point x="371" y="-207"/>
      <point x="436" y="-207" type="curve" smooth="yes"/>
      <point x="472" y="-207"/>
      <point x="503" y="-196"/>
      <point x="527" y="-175" type="curve"/>
      <point x="518" y="-155"/>
      <point x="507" y="-136"/>
      <point x="498" y="-116" type="curve"/>
      <point x="482" y="-129"/>
      <point x="465" y="-135"/>
      <point x="450" y="-135" type="curve" smooth="yes"/>
      <point x="426" y="-135"/>
      <point x="408" y="-122"/>
      <point x="408" y="-95" type="curve" smooth="yes"/>
      <point x="408" y="-66"/>
      <point x="435" y="-22"/>
      <point x="461" y="0" type="curve"/>
      <point x="526" y="0" type="line"/>
      <point x="513" y="75" type="line"/>
      <point x="190" y="75" type="line"/>
      <point x="190" y="309" type="line"/>
      <point x="394" y="309" type="line"/>
      <point x="389" y="333"/>
      <point x="385" y="358"/>
      <point x="381" y="383" type="curve"/>
      <point x="190" y="383" type="line"/>
      <point x="190" y="606" type="line"/>
      <point x="490" y="606" type="line"/>
      <point x="485" y="631"/>
      <point x="482" y="655"/>
      <point x="477" y="680" type="curve"/>
      <point x="94" y="680" type="line"/>
    </contour>
  </outline>
</glyph>
<glyph name="eogonek" format="1">
  <advance width="533"/>
  <unicode hex="0119"/>
  <outline>
    <contour>
      <point x="491" y="221" type="line"/>
      <point x="491" y="371"/>
      <point x="439" y="498"/>
      <point x="279" y="498" type="curve" smooth="yes"/>
      <point x="133" y="498"/>
      <point x="47" y="394"/>
      <point x="47" y="243" type="curve" smooth="yes"/>
      <point x="47" y="88"/>
      <point x="130" y="1"/>
      <point x="289" y="-11" type="curve"/>
      <point x="269" y="-37"/>
      <point x="256" y="-74"/>
      <point x="256" y="-102" type="curve" smooth="yes"/>
      <point x="256" y="-162"/>
      <point x="302" y="-207"/>
      <point x="366" y="-207" type="curve" smooth="yes"/>
      <point x="402" y="-207"/>
      <point x="432" y="-196"/>
      <point x="457" y="-175" type="curve"/>
      <point x="427" y="-116" type="line"/>
      <point x="412" y="-129"/>
      <point x="395" y="-135"/>
      <point x="380" y="-135" type="curve" smooth="yes"/>
      <point x="355" y="-135"/>
      <point x="339" y="-122"/>
      <point x="339" y="-95" type="curve" smooth="yes"/>
      <point x="339" y="-65"/>
      <point x="366" y="-21"/>
      <point x="392" y="1" type="curve"/>
      <point x="418" y="8"/>
      <point x="443" y="18"/>
      <point x="462" y="31" type="curve"/>
      <point x="432" y="101" type="line"/>
      <point x="392" y="82"/>
      <point x="358" y="68"/>
      <point x="300" y="68" type="curve" smooth="yes"/>
      <point x="201" y="68"/>
      <point x="154" y="131"/>
      <point x="147" y="221" type="curve"/>
    </contour>
    <contour>
      <point x="350" y="416"/>
      <point x="386" y="366"/>
      <point x="398" y="286" type="curve"/>
      <point x="149" y="286" type="line"/>
      <point x="159" y="365"/>
      <point x="201" y="416"/>
      <point x="276" y="416" type="curve" smooth="yes"/>
    </contour>
  </outline>
</glyph>
<glyph name="Gcedilla" format="1">
  <advance width="656"/>
  <unicode hex="0122"/>
  <outline>
    <contour>
      <point x="354" y="357" type="line"/>
      <point x="346" y="284" type="line"/>
      <point x="494" y="284" type="line"/>
      <point x="494" y="85" type="line"/>
      <point x="465" y="76"/>
      <point x="429" y="68"/>
      <point x="383" y="68" type="curve" smooth="yes"/>
      <point x="246" y="68"/>
      <point x="165" y="171"/>
      <point x="165" y="337" type="curve" smooth="yes"/>
      <point x="165" y="517"/>
      <point x="266" y="612"/>
      <point x="398" y="612" type="curve" smooth="yes"/>
      <point x="463" y="612"/>
      <point x="492" y="601"/>
      <point x="542" y="584" type="curve"/>
      <point x="572" y="653" type="line"/>
      <point x="524" y="682"/>
      <point x="437" y="694"/>
      <point x="396" y="694" type="curve" smooth="yes"/>
      <point x="195" y="694"/>
      <point x="65" y="548"/>
      <point x="65" y="336" type="curve" smooth="yes"/>
      <point x="65" y="153"/>
      <point x="159" y="8"/>
      <point x="340" y="-11" type="curve"/>
      <point x="332" y="-33"/>
      <point x="323" y="-56"/>
      <point x="314" y="-78" type="curve"/>
      <point x="366" y="-83"/>
      <point x="402" y="-103"/>
      <point x="402" y="-127" type="curve" smooth="yes"/>
      <point x="402" y="-147"/>
      <point x="378" y="-155"/>
      <point x="357" y="-155" type="curve" smooth="yes"/>
      <point x="339" y="-155"/>
      <point x="310" y="-146"/>
      <point x="295" y="-138" type="curve"/>
      <point x="287" y="-158"/>
      <point x="280" y="-178"/>
      <point x="272" y="-197" type="curve"/>
      <point x="293" y="-211"/>
      <point x="331" y="-221"/>
      <point x="357" y="-221" type="curve" smooth="yes"/>
      <point x="419" y="-221"/>
      <point x="476" y="-191"/>
      <point x="476" y="-125" type="curve" smooth="yes"/>
      <point x="476" y="-90"/>
      <point x="444" y="-52"/>
      <point x="402" y="-41" type="curve"/>
      <point x="413" y="-12" type="line"/>
      <point x="474" y="-8"/>
      <point x="544" y="10"/>
      <point x="583" y="33" type="curve"/>
      <point x="582" y="34" type="line"/>
      <point x="582" y="43"/>
      <point x="583" y="52"/>
      <point x="583" y="62" type="curve" smooth="yes"/>
      <point x="583" y="357" type="line"/>
    </contour>
  </outline>
</glyph>
<glyph name="iogonek" format="1">
  <advance width="244"/>
  <unicode hex="012F"/>
  <outline>
    <contour>
      <point x="170" y="485" type="line"/>
      <point x="73" y="485" type="line"/>
      <point x="73" y="3" type="line"/>
      <point x="58" y="-12"/>
      <point x="47" y="-34"/>
      <point x="47" y="-55" type="curve"/>
      <point x="39" y="-66"/>
      <point x="31" y="-89"/>
      <point x="31" y="-102" type="curve" smooth="yes"/>
      <point x="31" y="-162"/>
      <point x="77" y="-207"/>
      <point x="140" y="-207" type="curve" smooth="yes"/>
      <point x="177" y="-207"/>
      <point x="208" y="-196"/>
      <point x="233" y="-175" type="curve"/>
      <point x="203" y="-116" type="line"/>
      <point x="187" y="-129"/>
      <point x="170" y="-135"/>
      <point x="156" y="-135" type="curve" smooth="yes"/>
      <point x="130" y="-135"/>
      <point x="114" y="-122"/>
      <point x="114" y="-95" type="curve" smooth="yes"/>
      <point x="114" y="-63"/>
      <point x="144" y="-21"/>
      <point x="167" y="0" type="curve"/>
      <point x="170" y="0" type="line"/>
    </contour>
    <contour>
      <point x="62" y="598"/>
      <point x="87" y="572"/>
      <point x="121" y="572" type="curve" smooth="yes"/>
      <point x="155" y="572"/>
      <point x="182" y="598"/>
      <point x="182" y="632" type="curve" smooth="yes"/>
      <point x="182" y="666"/>
      <point x="155" y="692"/>
      <point x="121" y="692" type="curve" smooth="yes"/>
      <point x="87" y="692"/>
      <point x="62" y="666"/>
      <point x="62" y="632" type="curve" smooth="yes"/>
    </contour>
  </outline>
</glyph>
<glyph name="Kcedilla" format="1">
  <advance width="618"/>
  <unicode hex="0136"/>
  <outline>
    <contour>
      <point x="613" y="0" type="line"/>
      <point x="316" y="389" type="line"/>
      <point x="532" y="639" type="line"/>
      <point x="510" y="658"/>
      <point x="487" y="676"/>
      <point x="464" y="695" type="curve"/>
      <point x="184" y="365" type="line"/>
      <point x="184" y="680" type="line"/>
      <point x="88" y="680" type="line"/>
      <point x="88" y="0" type="line"/>
      <point x="184" y="0" type="line"/>
      <point x="184" y="235" type="line"/>
      <point x="207" y="262"/>
      <point x="231" y="289"/>
      <point x="254" y="317" type="curve"/>
      <point x="335" y="211"/>
      <point x="415" y="105"/>
      <point x="496" y="0" type="curve"/>
    </contour>
    <contour>
      <point x="392" y="-49"/>
      <point x="365" y="-21"/>
      <point x="332" y="-21" type="curve" smooth="yes"/>
      <point x="298" y="-21"/>
      <point x="270" y="-51"/>
      <point x="270" y="-82" type="curve" smooth="yes"/>
      <point x="270" y="-112"/>
      <point x="294" y="-140"/>
      <point x="320" y="-141" type="curve"/>
      <point x="314" y="-173"/>
      <point x="289" y="-195"/>
      <point x="265" y="-209" type="curve"/>
      <point x="288" y="-254" type="line"/>
      <point x="345" y="-226"/>
      <point x="392" y="-160"/>
      <point x="392" y="-93" type="curve" smooth="yes"/>
    </contour>
  </outline>
</glyph>
<glyph name="kcedilla" format="1">
  <advance width="504"/>
  <unicode hex="0137"/>
  <outline>
    <contour>
      <point x="76" y="0" type="line"/>
      <point x="172" y="0" type="line"/>
      <point x="172" y="174" type="line"/>
      <point x="234" y="234" type="line"/>
      <point x="381" y="0" type="line"/>
      <point x="493" y="0" type="line"/>
      <point x="300" y="296" type="line"/>
      <point x="444" y="434" type="line"/>
      <point x="388" y="498" type="line"/>
      <point x="172" y="287" type="line"/>
      <point x="172" y="706" type="line"/>
      <point x="76" y="695" type="line"/>
    </contour>
    <contour>
      <point x="326" y="-49"/>
      <point x="298" y="-21"/>
      <point x="263" y="-21" type="curve" smooth="yes"/>
      <point x="230" y="-21"/>
      <point x="203" y="-51"/>
      <point x="203" y="-82" type="curve" smooth="yes"/>
      <point x="203" y="-112"/>
      <point x="228" y="-140"/>
      <point x="253" y="-141" type="curve"/>
      <point x="246" y="-173"/>
      <point x="222" y="-195"/>
      <point x="197" y="-209" type="curve"/>
      <point x="221" y="-254" type="line"/>
      <point x="277" y="-226"/>
      <point x="326" y="-160"/>
      <point x="326" y="-93" type="curve" smooth="yes"/>
    </contour>
  </outline>
</glyph>
<glyph name="Lacute" format="1">
  <advance width="525"/>
  <unicode hex="0139"/>
  <outline>
    <contour>
      <point x="509" y="0" type="line"/>
      <point x="497" y="75" type="line"/>
      <point x="190" y="75" type="line"/>
      <point x="190" y="680" type="line"/>
      <point x="94" y="680" type="line"/>
      <point x="94" y="0" type="line"/>
    </contour>
    <contour>
      <point x="177" y="897" type="line"/>
      <point x="117" y="739" type="line"/>
      <point x="190" y="739" type="line"/>
      <point x="280" y="897" type="line"/>
    </contour>
  </outline>
</glyph>
<glyph name="lacute" format="1">
  <advance width="248"/>
  <unicode hex="013A"/>
  <outline>
    <contour>
      <point x="76" y="0" type="line"/>
      <point x="172" y="0" type="line"/>
      <point x="172" y="685" type="line"/>
      <point x="76" y="673" type="line"/>
    </contour>
    <contour>
      <point x="142" y="833" type="line"/>
      <point x="85" y="712" type="line"/>
      <point x="158" y="712" type="line"/>
      <point x="246" y="833" type="line"/>
    </contour>
  </outline>
</glyph>
<glyph name="lcedilla" format="1">
  <advance width="248"/>
  <unicode hex="013C"/>
  <outline>
    <contour>
      <point x="76" y="0" type="line"/>
      <point x="172" y="0" type="line"/>
      <point x="172" y="706" type="line"/>
      <point x="76" y="695" type="line"/>
    </contour>
    <contour>
      <point x="187" y="-49"/>
      <point x="160" y="-21"/>
      <point x="127" y="-21" type="curve" smooth="yes"/>
      <point x="92" y="-21"/>
      <point x="66" y="-51"/>
      <point x="66" y="-82" type="curve" smooth="yes"/>
      <point x="66" y="-112"/>
      <point x="90" y="-140"/>
      <point x="115" y="-141" type="curve"/>
      <point x="109" y="-173"/>
      <point x="86" y="-195"/>
      <point x="60" y="-209" type="curve"/>
      <point x="84" y="-254" type="line"/>
      <point x="140" y="-226"/>
      <point x="187" y="-160"/>
      <point x="187" y="-93" type="curve" smooth="yes"/>
    </contour>
  </outline>
</glyph>
<glyph name="Lcaron" format="1">
  <advance width="525"/>
  <unicode hex="013D"/>
  <outline>
    <contour>
      <point x="509" y="0" type="line"/>
      <point x="497" y="75" type="line"/>
      <point x="190" y="75" type="line"/>
      <point x="190" y="680" type="line"/>
      <point x="94" y="680" type="line"/>
      <point x="94" y="0" type="line"/>
    </contour>
    <contour>
      <point x="435" y="693"/>
      <point x="407" y="722"/>
      <point x="374" y="722" type="curve"/>
      <point x="339" y="722"/>
      <point x="313" y="691"/>
      <point x="313" y="661" type="curve"/>
      <point x="313" y="631"/>
      <point x="338" y="603"/>
      <point x="362" y="601" type="curve"/>
      <point x="356" y="562"/>
      <point x="333" y="541"/>
      <point x="300" y="515" type="curve"/>
      <point x="323" y="470" type="line"/>
      <point x="387" y="504"/>
      <point x="435" y="582"/>
      <point x="435" y="650" type="curve"/>
    </contour>
  </outline>
</glyph>
<glyph name="lslash" format="1">
  <advance width="248"/>
  <unicode hex="0142"/>
  <outline>
    <contour>
      <point x="284" y="450" type="line"/>
      <point x="271" y="471"/>
      <point x="258" y="493"/>
      <point x="244" y="514" type="curve"/>
      <point x="172" y="454" type="line"/>
      <point x="172" y="706" type="line"/>
      <point x="76" y="695" type="line"/>
      <point x="76" y="378" type="line"/>
      <point x="38" y="347"/>
      <point x="1" y="316"/>
      <point x="-37" y="286" type="curve"/>
      <point x="3" y="221" type="line"/>
      <point x="76" y="281" type="line"/>
      <point x="76" y="0" type="line"/>
      <point x="172" y="0" type="line"/>
      <point x="172" y="358" type="line"/>
    </contour>
  </outline>
</glyph>
<glyph name="Ncedilla" format="1">
  <advance width="722"/>
  <unicode hex="0145"/>
  <outline>
    <contour>
      <point x="94" y="0" type="line"/>
      <point x="190" y="0" type="line"/>
      <point x="190" y="507" type="line"/>
      <point x="228" y="447" type="line"/>
      <point x="543" y="0" type="line"/>
      <point x="629" y="0" type="line"/>
      <point x="629" y="680" type="line"/>
      <point x="532" y="680" type="line"/>
      <point x="532" y="177" type="line"/>
      <point x="484" y="252" type="line"/>
      <point x="179" y="680" type="line"/>
      <point x="94" y="680" type="line"/>
    </contour>
    <contour>
      <point x="427" y="-49"/>
      <point x="401" y="-20"/>
      <point x="366" y="-20" type="curve" smooth="yes"/>
      <point x="333" y="-20"/>
      <point x="306" y="-49"/>
      <point x="306" y="-81" type="curve" smooth="yes"/>
      <point x="306" y="-111"/>
      <point x="330" y="-139"/>
      <point x="355" y="-141" type="curve"/>
      <point x="349" y="-173"/>
      <point x="324" y="-194"/>
      <point x="300" y="-208" type="curve"/>
      <point x="307" y="-223"/>
      <point x="315" y="-238"/>
      <point x="323" y="-253" type="curve"/>
      <point x="380" y="-225"/>
      <point x="427" y="-160"/>
      <point x="427" y="-92" type="curve" smooth="yes"/>
    </contour>
  </outline>
</glyph>
<glyph name="ncedilla" format="1">
  <advance width="566"/>
  <unicode hex="0146"/>
  <outline>
    <contour>
      <point x="272" y="501"/>
      <point x="199" y="467"/>
      <point x="157" y="421" type="curve"/>
      <point x="127" y="485" type="line"/>
      <point x="73" y="485" type="line"/>
      <point x="73" y="0" type="line"/>
      <point x="169" y="0" type="line"/>
      <point x="169" y="350" type="line"/>
      <point x="208" y="392"/>
      <point x="268" y="419"/>
      <point x="308" y="419" type="curve"/>
      <point x="371" y="418"/>
      <point x="402" y="376"/>
      <point x="402" y="311" type="curve"/>
      <point x="402" y="0" type="line"/>
      <point x="498" y="0" type="line"/>
      <point x="498" y="320" type="line"/>
      <point x="498" y="424"/>
      <point x="447" y="501"/>
      <point x="328" y="501" type="curve"/>
    </contour>
    <contour>
      <point x="344" y="-49"/>
      <point x="317" y="-21"/>
      <point x="283" y="-21" type="curve"/>
      <point x="248" y="-21"/>
      <point x="222" y="-51"/>
      <point x="222" y="-82" type="curve"/>
      <point x="222" y="-112"/>
      <point x="247" y="-140"/>
      <point x="271" y="-142" type="curve"/>
      <point x="265" y="-173"/>
      <point x="241" y="-195"/>
      <point x="217" y="-209" type="curve"/>
      <point x="239" y="-255" type="line"/>
      <point x="296" y="-227"/>
      <point x="344" y="-161"/>
      <point x="344" y="-93" type="curve"/>
    </contour>
  </outline>
</glyph>
<glyph name="Ncaron" format="1">
  <advance width="722"/>
  <unicode hex="0147"/>
  <outline>
    <contour>
      <point x="94" y="0" type="line"/>
      <point x="190" y="0" type="line"/>
      <point x="190" y="507" type="line"/>
      <point x="228" y="447" type="line"/>
      <point x="543" y="0" type="line"/>
      <point x="629" y="0" type="line"/>
      <point x="629" y="680" type="line"/>
      <point x="532" y="680" type="line"/>
      <point x="532" y="177" type="line"/>
      <point x="484" y="252" type="line"/>
      <point x="179" y="680" type="line"/>
      <point x="94" y="680" type="line"/>
    </contour>
    <contour>
      <point x="208" y="897" type="line"/>
      <point x="337" y="739" type="line"/>
      <point x="402" y="739" type="line"/>
      <point x="531" y="897" type="line"/>
      <point x="441" y="897" type="line"/>
      <point x="371" y="811" type="line"/>
      <point x="347" y="840"/>
      <point x="323" y="868"/>
      <point x="300" y="897" type="curve"/>
    </contour>
  </outline>
</glyph>
<glyph name="oe" format="1">
  <advance width="852"/>
  <unicode hex="0153"/>
  <outline>
    <contour>
      <point x="811" y="221" type="line"/>
      <point x="811" y="370"/>
      <point x="759" y="498"/>
      <point x="597" y="498" type="curve" smooth="yes"/>
      <point x="541" y="498"/>
      <point x="495" y="482"/>
      <point x="458" y="456" type="curve"/>
      <point x="415" y="484"/>
      <point x="347" y="497"/>
      <point x="310" y="497" type="curve" smooth="yes"/>
      <point x="147" y="497"/>
      <point x="47" y="393"/>
      <point x="47" y="241" type="curve" smooth="yes"/>
      <point x="47" y="90"/>
      <point x="148" y="-12"/>
      <point x="310" y="-12" type="curve" smooth="yes"/>
      <point x="352" y="-12"/>
      <point x="419" y="1"/>
      <point x="461" y="31" type="curve"/>
      <point x="502" y="3"/>
      <point x="555" y="-12"/>
      <point x="619" y="-12" type="curve" smooth="yes"/>
      <point x="661" y="-12"/>
      <point x="739" y="1"/>
      <point x="781" y="31" type="curve"/>
      <point x="752" y="101" type="line"/>
      <point x="712" y="82"/>
      <point x="678" y="68"/>
      <point x="619" y="68" type="curve" smooth="yes"/>
      <point x="520" y="68"/>
      <point x="473" y="131"/>
      <point x="466" y="221" type="curve"/>
    </contour>
    <contour>
      <point x="203" y="68"/>
      <point x="145" y="142"/>
      <point x="145" y="244" type="curve" smooth="yes"/>
      <point x="145" y="342"/>
      <point x="205" y="418"/>
      <point x="310" y="418" type="curve" smooth="yes"/>
      <point x="355" y="418"/>
      <point x="379" y="408"/>
      <point x="406" y="396" type="curve"/>
      <point x="380" y="356"/>
      <point x="367" y="304"/>
      <point x="367" y="243" type="curve" smooth="yes"/>
      <point x="367" y="182"/>
      <point x="380" y="130"/>
      <point x="408" y="89" type="curve"/>
      <point x="380" y="76"/>
      <point x="356" y="68"/>
      <point x="310" y="68" type="curve" smooth="yes"/>
    </contour>
    <contour>
      <point x="669" y="416"/>
      <point x="706" y="366"/>
      <point x="717" y="286" type="curve"/>
      <point x="468" y="286" type="line"/>
      <point x="479" y="365"/>
      <point x="520" y="416"/>
      <point x="595" y="416" type="curve" smooth="yes"/>
    </contour>
  </outline>
</glyph>
<glyph name="Racute" format="1">
  <advance width="630"/>
  <unicode hex="0154"/>
  <outline>
    <contour>
      <point x="494" y="0" type="line"/>
      <point x="598" y="0" type="line"/>
      <point x="427" y="300" type="line"/>
      <point x="497" y="330"/>
      <point x="545" y="388"/>
      <point x="546" y="478" type="curve"/>
      <point x="546" y="622"/>
      <point x="434" y="680"/>
      <point x="289" y="680" type="curve"/>
      <point x="94" y="680" type="line"/>
      <point x="94" y="0" type="line"/>
      <point x="190" y="0" type="line"/>
      <point x="190" y="272" type="line"/>
      <point x="279" y="272" type="line" smooth="yes"/>
      <point x="300" y="272"/>
      <point x="321" y="273"/>
      <point x="342" y="275" type="curve"/>
    </contour>
    <contour>
      <point x="288" y="599" type="line" smooth="yes"/>
      <point x="383" y="599"/>
      <point x="446" y="571"/>
      <point x="446" y="474" type="curve"/>
      <point x="445" y="381"/>
      <point x="373" y="350"/>
      <point x="283" y="350" type="curve"/>
      <point x="190" y="350" type="line"/>
      <point x="190" y="599" type="line"/>
    </contour>
    <contour>
      <point x="283" y="897" type="line"/>
      <point x="223" y="739" type="line"/>
      <point x="296" y="739" type="line"/>
      <point x="386" y="897" type="line"/>
    </contour>
  </outline>
</glyph>
<glyph name="rcedilla" format="1">
  <advance width="339"/>
  <unicode hex="0157"/>
  <outline>
    <contour>
      <point x="73" y="0" type="line"/>
      <point x="169" y="0" type="line"/>
      <point x="169" y="331" type="line"/>
      <point x="216" y="376"/>
      <point x="278" y="408"/>
      <point x="331" y="408" type="curve"/>
      <point x="310" y="485" type="line"/>
      <point x="258" y="485"/>
      <point x="195" y="448"/>
      <point x="158" y="416" type="curve"/>
      <point x="127" y="485" type="line"/>
      <point x="73" y="485" type="line"/>
    </contour>
    <contour>
      <point x="185" y="-49"/>
      <point x="158" y="-21"/>
      <point x="124" y="-21" type="curve" smooth="yes"/>
      <point x="90" y="-21"/>
      <point x="63" y="-51"/>
      <point x="63" y="-82" type="curve" smooth="yes"/>
      <point x="63" y="-112"/>
      <point x="87" y="-140"/>
      <point x="113" y="-141" type="curve"/>
      <point x="107" y="-173"/>
      <point x="82" y="-195"/>
      <point x="58" y="-209" type="curve"/>
      <point x="80" y="-254" type="line"/>
      <point x="138" y="-226"/>
      <point x="185" y="-160"/>
      <point x="185" y="-93" type="curve" smooth="yes"/>
    </contour>
  </outline>
</glyph>
<glyph name="rcaron" format="1">
  <advance width="339"/>
  <unicode hex="0159"/>
  <outline>
    <contour>
      <point x="73" y="0" type="line"/>
      <point x="169" y="0" type="line"/>
      <point x="169" y="331" type="line"/>
      <point x="216" y="376"/>
      <point x="278" y="408"/>
      <point x="331" y="408" type="curve"/>
      <point x="310" y="485" type="line"/>
      <point x="258" y="485"/>
      <point x="195" y="448"/>
      <point x="158" y="416" type="curve"/>
      <point x="127" y="485" type="line"/>
      <point x="73" y="485" type="line"/>
    </contour>
    <contour>
      <point x="8" y="747" type="line"/>
      <point x="137" y="589" type="line"/>
      <point x="201" y="589" type="line"/>
      <point x="331" y="747" type="line"/>
      <point x="241" y="747" type="line"/>
      <point x="171" y="661" type="line"/>
      <point x="147" y="690"/>
      <point x="123" y="718"/>
      <point x="100" y="747" type="curve"/>
    </contour>
  </outline>
</glyph>
<glyph name="Tcedilla" format="1">
  <advance width="548"/>
  <unicode hex="0162"/>
  <outline>
    <contour>
      <point x="540" y="604" type="line"/>
      <point x="535" y="629"/>
      <point x="531" y="655"/>
      <point x="527" y="680" type="curve"/>
      <point x="8" y="680" type="line"/>
      <point x="8" y="604" type="line"/>
      <point x="219" y="604" type="line"/>
      <point x="219" y="0" type="line"/>
      <point x="232" y="0" type="line"/>
      <point x="221" y="-26"/>
      <point x="211" y="-52"/>
      <point x="201" y="-78" type="curve"/>
      <point x="252" y="-83"/>
      <point x="289" y="-103"/>
      <point x="289" y="-127" type="curve" smooth="yes"/>
      <point x="289" y="-147"/>
      <point x="265" y="-155"/>
      <point x="244" y="-155" type="curve" smooth="yes"/>
      <point x="225" y="-155"/>
      <point x="197" y="-146"/>
      <point x="182" y="-138" type="curve"/>
      <point x="174" y="-158"/>
      <point x="167" y="-178"/>
      <point x="159" y="-197" type="curve"/>
      <point x="179" y="-211"/>
      <point x="219" y="-221"/>
      <point x="244" y="-221" type="curve" smooth="yes"/>
      <point x="306" y="-221"/>
      <point x="362" y="-191"/>
      <point x="362" y="-125" type="curve" smooth="yes"/>
      <point x="362" y="-90"/>
      <point x="330" y="-52"/>
      <point x="288" y="-41" type="curve"/>
      <point x="305" y="0" type="line"/>
      <point x="316" y="0" type="line"/>
      <point x="316" y="604" type="line"/>
    </contour>
  </outline>
</glyph>
<glyph name="tcaron" format="1">
  <advance width="489"/>
  <unicode hex="0165"/>
  <outline>
    <contour>
      <point x="267" y="-17"/>
      <point x="302" y="-6"/>
      <point x="319" y="4" type="curve"/>
      <point x="294" y="77" type="line"/>
      <point x="281" y="71"/>
      <point x="263" y="66"/>
      <point x="247" y="66" type="curve"/>
      <point x="199" y="66"/>
      <point x="178" y="101"/>
      <point x="178" y="150" type="curve"/>
      <point x="178" y="406" type="line"/>
      <point x="296" y="406" type="line"/>
      <point x="266" y="479" type="line"/>
      <point x="178" y="479" type="line"/>
      <point x="178" y="622" type="line"/>
      <point x="82" y="600" type="line"/>
      <point x="82" y="479" type="line"/>
      <point x="13" y="479" type="line"/>
      <point x="14" y="406" type="line"/>
      <point x="82" y="406" type="line"/>
      <point x="82" y="135" type="line"/>
      <point x="82" y="36"/>
      <point x="142" y="-17"/>
      <point x="237" y="-17" type="curve"/>
    </contour>
    <contour>
      <point x="481" y="693"/>
      <point x="453" y="722"/>
      <point x="420" y="722" type="curve"/>
      <point x="386" y="722"/>
      <point x="358" y="691"/>
      <point x="358" y="661" type="curve"/>
      <point x="358" y="631"/>
      <point x="383" y="603"/>
      <point x="409" y="601" type="curve"/>
      <point x="403" y="562"/>
      <point x="379" y="541"/>
      <point x="346" y="515" type="curve"/>
      <point x="369" y="470" type="line"/>
      <point x="433" y="504"/>
      <point x="481" y="582"/>
      <point x="481" y="650" type="curve"/>
    </contour>
  </outline>
</glyph>
<glyph name="uogonek" format="1">
  <advance width="553"/>
  <unicode hex="0173"/>
  <outline>
    <contour>
      <point x="289" y="-16"/>
      <point x="354" y="11"/>
      <point x="397" y="51" type="curve"/>
      <point x="409" y="24" type="line"/>
      <point x="378" y="-3"/>
      <point x="344" y="-52"/>
      <point x="344" y="-103" type="curve"/>
      <point x="344" y="-163"/>
      <point x="389" y="-207"/>
      <point x="453" y="-207" type="curve"/>
      <point x="490" y="-207"/>
      <point x="521" y="-197"/>
      <point x="545" y="-176" type="curve"/>
      <point x="515" y="-117" type="line"/>
      <point x="500" y="-129"/>
      <point x="483" y="-136"/>
      <point x="468" y="-136" type="curve"/>
      <point x="443" y="-136"/>
      <point x="426" y="-123"/>
      <point x="426" y="-95" type="curve"/>
      <point x="426" y="-61"/>
      <point x="456" y="-21"/>
      <point x="480" y="0" type="curve"/>
      <point x="480" y="485" type="line"/>
      <point x="384" y="485" type="line"/>
      <point x="384" y="120" type="line"/>
      <point x="344" y="87"/>
      <point x="293" y="66"/>
      <point x="257" y="66" type="curve"/>
      <point x="195" y="66"/>
      <point x="164" y="109"/>
      <point x="164" y="172" type="curve"/>
      <point x="164" y="485" type="line"/>
      <point x="67" y="485" type="line"/>
      <point x="67" y="165" type="line"/>
      <point x="67" y="61"/>
      <point x="118" y="-16"/>
      <point x="237" y="-16" type="curve"/>
    </contour>
  </outline>
</glyph>
<glyph name="Ydieresis" format="1">
  <advance width="576"/>
  <unicode hex="0178"/>
  <outline>
    <contour>
      <point x="237" y="0" type="line"/>
      <point x="333" y="0" type="line"/>
      <point x="334" y="271" type="line"/>
      <point x="571" y="680" type="line"/>
      <point x="469" y="680" type="line"/>
      <point x="285" y="366" type="line"/>
      <point x="105" y="680" type="line"/>
      <point x="6" y="666" type="line"/>
      <point x="237" y="270" type="line"/>
    </contour>
    <contour>
      <point x="428" y="844"/>
      <point x="405" y="868"/>
      <point x="374" y="868" type="curve"/>
      <point x="345" y="868"/>
      <point x="320" y="844"/>
      <point x="320" y="814" type="curve"/>
      <point x="320" y="784"/>
      <point x="345" y="760"/>
      <point x="374" y="760" type="curve"/>
      <point x="405" y="760"/>
      <point x="428" y="784"/>
      <point x="428" y="814" type="curve"/>
    </contour>
    <contour>
      <point x="254" y="844"/>
      <point x="231" y="868"/>
      <point x="201" y="868" type="curve"/>
      <point x="171" y="868"/>
      <point x="146" y="844"/>
      <point x="146" y="814" type="curve"/>
      <point x="146" y="784"/>
      <point x="171" y="760"/>
      <point x="201" y="760" type="curve"/>
      <point x="231" y="760"/>
      <point x="254" y="784"/>
      <point x="254" y="814" type="curve"/>
    </contour>
  </outline>
</glyph>
<glyph name="zacute" format="1">
  <advance width="460"/>
  <unicode hex="017A"/>
  <outline>
    <contour>
      <point x="425" y="437" type="line"/>
      <point x="420" y="490" type="line"/>
      <point x="49" y="490" type="line"/>
      <point x="70" y="412" type="line"/>
      <point x="295" y="412" type="line"/>
      <point x="29" y="50" type="line"/>
      <point x="41" y="0" type="line"/>
      <point x="427" y="0" type="line"/>
      <point x="417" y="76" type="line"/>
      <point x="156" y="76" type="line"/>
    </contour>
    <contour>
      <point x="255" y="747" type="line"/>
      <point x="194" y="589" type="line"/>
      <point x="266" y="589" type="line"/>
      <point x="357" y="747" type="line"/>
    </contour>
  </outline>
</glyph>
<glyph name="Zcaron" format="1">
  <advance width="572"/>
  <unicode hex="017D"/>
  <outline>
    <contour>
      <point x="541" y="0" type="line"/>
      <point x="537" y="25"/>
      <point x="534" y="50"/>
      <point x="531" y="75" type="curve"/>
      <point x="125" y="75" type="line"/>
      <point x="544" y="604" type="line"/>
      <point x="541" y="629"/>
      <point x="538" y="655"/>
      <point x="534" y="680" type="curve"/>
      <point x="48" y="680" type="line"/>
      <point x="61" y="604" type="line"/>
      <point x="435" y="604" type="line"/>
      <point x="297" y="428"/>
      <point x="158" y="252"/>
      <point x="20" y="75" type="curve"/>
      <point x="31" y="0" type="line"/>
    </contour>
    <contour>
      <point x="127" y="897" type="line"/>
      <point x="256" y="739" type="line"/>
      <point x="321" y="739" type="line"/>
      <point x="450" y="897" type="line"/>
      <point x="360" y="897" type="line"/>
      <point x="290" y="811" type="line"/>
      <point x="266" y="840"/>
      <point x="242" y="868"/>
      <point x="219" y="897" type="curve"/>
    </contour>
  </outline>
</glyph>
<glyph name="zcaron" format="1">
  <advance width="460"/>
  <unicode hex="017E"/>
  <outline>
    <contour>
      <point x="425" y="437" type="line"/>
      <point x="420" y="490" type="line"/>
      <point x="49" y="490" type="line"/>
      <point x="70" y="412" type="line"/>
      <point x="295" y="412" type="line"/>
      <point x="29" y="50" type="line"/>
      <point x="41" y="0" type="line"/>
      <point x="427" y="0" type="line"/>
      <point x="417" y="76" type="line"/>
      <point x="156" y="76" type="line"/>
    </contour>
    <contour>
      <point x="86" y="747" type="line"/>
      <point x="216" y="589" type="line"/>
      <point x="281" y="589" type="line"/>
      <point x="410" y="747" type="line"/>
      <point x="320" y="747" type="line"/>
      <point x="249" y="661" type="line"/>
      <point x="179" y="747" type="line"/>
    </contour>
  </outline>
</glyph>
<glyph name="florin" format="1">
  <advance width="330"/>
  <unicode hex="0192"/>
  <outline>
    <contour>
      <point x="126" y="-94"/>
      <point x="183" y="-33"/>
      <point x="183" y="64" type="curve"/>
      <point x="183" y="401" type="line"/>
      <point x="304" y="401" type="line"/>
      <point x="273" y="475" type="line"/>
      <point x="183" y="475" type="line"/>
      <point x="183" y="533" type="line" smooth="yes"/>
      <point x="183" y="582"/>
      <point x="202" y="617"/>
      <point x="250" y="617" type="curve"/>
      <point x="265" y="617"/>
      <point x="284" y="612"/>
      <point x="298" y="606" type="curve"/>
      <point x="322" y="680" type="line"/>
      <point x="305" y="691"/>
      <point x="270" y="702"/>
      <point x="241" y="702" type="curve"/>
      <point x="145" y="702"/>
      <point x="87" y="640"/>
      <point x="87" y="542" type="curve"/>
      <point x="87" y="475" type="line"/>
      <point x="13" y="475" type="line"/>
      <point x="14" y="401" type="line"/>
      <point x="87" y="401" type="line"/>
      <point x="87" y="73" type="line"/>
      <point x="87" y="23"/>
      <point x="69" y="-11"/>
      <point x="20" y="-11" type="curve"/>
      <point x="5" y="-11"/>
      <point x="-14" y="-6"/>
      <point x="-28" y="0" type="curve"/>
      <point x="-52" y="-73" type="line"/>
      <point x="-35" y="-84"/>
      <point x="1" y="-94"/>
      <point x="31" y="-94" type="curve"/>
    </contour>
  </outline>
</glyph>
<glyph name="Scommaaccent" format="1">
  <advance width="542"/>
  <unicode hex="0218"/>
  <outline>
    <contour>
      <point x="187" y="70"/>
      <point x="119" y="94"/>
      <point x="81" y="113" type="curve"/>
      <point x="73" y="88"/>
      <point x="66" y="62"/>
      <point x="59" y="37" type="curve"/>
      <point x="86" y="13"/>
      <point x="192" y="-13"/>
      <point x="250" y="-13" type="curve" smooth="yes"/>
      <point x="408" y="-13"/>
      <point x="495" y="63"/>
      <point x="495" y="170" type="curve" smooth="yes"/>
      <point x="495" y="370"/>
      <point x="143" y="384"/>
      <point x="143" y="522" type="curve" smooth="yes"/>
      <point x="143" y="582"/>
      <point x="201" y="611"/>
      <point x="277" y="611" type="curve" smooth="yes"/>
      <point x="341" y="611"/>
      <point x="383" y="592"/>
      <point x="418" y="575" type="curve"/>
      <point x="428" y="601"/>
      <point x="440" y="625"/>
      <point x="450" y="651" type="curve"/>
      <point x="404" y="674"/>
      <point x="338" y="696"/>
      <point x="270" y="696" type="curve" smooth="yes"/>
      <point x="130" y="696"/>
      <point x="47" y="619"/>
      <point x="47" y="520" type="curve" smooth="yes"/>
      <point x="47" y="313"/>
      <point x="398" y="303"/>
      <point x="398" y="168" type="curve" smooth="yes"/>
      <point x="398" y="109"/>
      <point x="347" y="70"/>
      <point x="249" y="70" type="curve" smooth="yes"/>
    </contour>
    <contour>
      <point x="310" y="-49"/>
      <point x="283" y="-21"/>
      <point x="249" y="-21" type="curve" smooth="yes"/>
      <point x="216" y="-21"/>
      <point x="189" y="-51"/>
      <point x="189" y="-82" type="curve" smooth="yes"/>
      <point x="189" y="-112"/>
      <point x="213" y="-140"/>
      <point x="238" y="-141" type="curve"/>
      <point x="232" y="-173"/>
      <point x="208" y="-195"/>
      <point x="184" y="-209" type="curve"/>
      <point x="191" y="-224"/>
      <point x="199" y="-239"/>
      <point x="207" y="-254" type="curve"/>
      <point x="264" y="-226"/>
      <point x="310" y="-160"/>
      <point x="310" y="-93" type="curve" smooth="yes"/>
    </contour>
  </outline>
</glyph>
<glyph name="scommaaccent" format="1">
  <advance width="441"/>
  <unicode hex="0219"/>
  <outline>
    <contour>
      <point x="275" y="416"/>
      <point x="314" y="400"/>
      <point x="351" y="383" type="curve"/>
      <point x="381" y="452" type="line"/>
      <point x="339" y="481"/>
      <point x="266" y="498"/>
      <point x="225" y="498" type="curve"/>
      <point x="111" y="498"/>
      <point x="41" y="446"/>
      <point x="41" y="357" type="curve"/>
      <point x="41" y="278"/>
      <point x="123" y="237"/>
      <point x="200" y="211" type="curve"/>
      <point x="263" y="191"/>
      <point x="304" y="164"/>
      <point x="304" y="127" type="curve"/>
      <point x="304" y="89"/>
      <point x="267" y="69"/>
      <point x="203" y="69" type="curve"/>
      <point x="159" y="69"/>
      <point x="114" y="82"/>
      <point x="73" y="102" type="curve"/>
      <point x="43" y="31" type="line"/>
      <point x="85" y="1"/>
      <point x="162" y="-13"/>
      <point x="203" y="-13" type="curve"/>
      <point x="332" y="-13"/>
      <point x="400" y="41"/>
      <point x="400" y="132" type="curve"/>
      <point x="400" y="213"/>
      <point x="317" y="260"/>
      <point x="236" y="289" type="curve"/>
      <point x="177" y="309"/>
      <point x="141" y="329"/>
      <point x="140" y="359" type="curve"/>
      <point x="140" y="394"/>
      <point x="172" y="416"/>
      <point x="223" y="416" type="curve"/>
    </contour>
    <contour>
      <point x="277" y="-49"/>
      <point x="249" y="-21"/>
      <point x="215" y="-21" type="curve"/>
      <point x="181" y="-21"/>
      <point x="154" y="-51"/>
      <point x="154" y="-82" type="curve"/>
      <point x="154" y="-112"/>
      <point x="179" y="-140"/>
      <point x="204" y="-142" type="curve"/>
      <point x="198" y="-173"/>
      <point x="174" y="-195"/>
      <point x="149" y="-209" type="curve"/>
      <point x="173" y="-255" type="line"/>
      <point x="229" y="-227"/>
      <point x="277" y="-161"/>
      <point x="277" y="-93" type="curve"/>
    </contour>
  </outline>
</glyph>
<glyph name="uni021B" format="1">
  <advance width="340"/>
  <unicode hex="021B"/>
  <outline>
    <contour>
      <point x="267" y="-17"/>
      <point x="302" y="-6"/>
      <point x="319" y="4" type="curve"/>
      <point x="294" y="77" type="line"/>
      <point x="281" y="71"/>
      <point x="263" y="66"/>
      <point x="247" y="66" type="curve"/>
      <point x="199" y="66"/>
      <point x="178" y="101"/>
      <point x="178" y="150" type="curve"/>
      <point x="178" y="406" type="line"/>
      <point x="296" y="406" type="line"/>
      <point x="266" y="479" type="line"/>
      <point x="178" y="479" type="line"/>
      <point x="178" y="622" type="line"/>
      <point x="82" y="600" type="line"/>
      <point x="82" y="479" type="line"/>
      <point x="13" y="479" type="line"/>
      <point x="14" y="406" type="line"/>
      <point x="82" y="406" type="line"/>
      <point x="82" y="135" type="line"/>
      <point x="82" y="36"/>
      <point x="142" y="-17"/>
      <point x="237" y="-17" type="curve"/>
    </contour>
    <contour>
      <point x="278" y="-49"/>
      <point x="250" y="-21"/>
      <point x="217" y="-21" type="curve"/>
      <point x="183" y="-21"/>
      <point x="156" y="-51"/>
      <point x="156" y="-82" type="curve"/>
      <point x="156" y="-112"/>
      <point x="181" y="-140"/>
      <point x="205" y="-142" type="curve"/>
      <point x="199" y="-173"/>
      <point x="175" y="-195"/>
      <point x="150" y="-209" type="curve"/>
      <point x="174" y="-255" type="line"/>
      <point x="231" y="-227"/>
      <point x="278" y="-161"/>
      <point x="278" y="-93" type="curve"/>
    </contour>
  </outline>
</glyph>
<glyph name="circumflex" format="1">
  <advance width="354"/>
  <unicode hex="02C6"/>
  <outline>
    <contour>
      <point x="107" y="589" type="line"/>
      <point x="178" y="676" type="line"/>
      <point x="248" y="589" type="line"/>
      <point x="339" y="589" type="line"/>
      <point x="210" y="747" type="line"/>
      <point x="144" y="747" type="line"/>
      <point x="16" y="589" type="line"/>
    </contour>
  </outline>
</glyph>
<glyph name="dotaccent" format="1">
  <advance width="153"/>
  <unicode hex="02D9"/>
  <outline>
    <contour>
      <point x="136" y="700"/>
      <point x="111" y="727"/>
      <point x="77" y="727" type="curve"/>
      <point x="43" y="727"/>
      <point x="16" y="700"/>
      <point x="16" y="666" type="curve"/>
      <point x="16" y="632"/>
      <point x="43" y="606"/>
      <point x="77" y="606" type="curve"/>
      <point x="111" y="606"/>
      <point x="136" y="632"/>
      <point x="136" y="666" type="curve"/>
    </contour>
  </outline>
</glyph>
<glyph name="tilde" format="1">
  <advance width="337"/>
  <unicode hex="02DC"/>
  <outline>
    <contour>
      <point x="257" y="707" type="line"/>
      <point x="256" y="684"/>
      <point x="241" y="670"/>
      <point x="224" y="670" type="curve" smooth="yes"/>
      <point x="188" y="670"/>
      <point x="164" y="711"/>
      <point x="112" y="711" type="curve" smooth="yes"/>
      <point x="60" y="711"/>
      <point x="17" y="686"/>
      <point x="17" y="606" type="curve"/>
      <point x="82" y="606" type="line"/>
      <point x="83" y="628"/>
      <point x="100" y="643"/>
      <point x="116" y="643" type="curve" smooth="yes"/>
      <point x="151" y="643"/>
      <point x="177" y="601"/>
      <point x="225" y="601" type="curve" smooth="yes"/>
      <point x="276" y="601"/>
      <point x="320" y="627"/>
      <point x="320" y="707" type="curve"/>
    </contour>
  </outline>
</glyph>
<glyph name="pi" format="1">
  <advance width="650"/>
  <unicode hex="03C0"/>
  <outline>
    <contour>
      <point x="123" y="0" type="line"/>
      <point x="219" y="0" type="line"/>
      <point x="219" y="409" type="line"/>
      <point x="431" y="409" type="line"/>
      <point x="431" y="0" type="line"/>
      <point x="527" y="0" type="line"/>
      <point x="527" y="409" type="line"/>
      <point x="625" y="409" type="line"/>
      <point x="625" y="485" type="line"/>
      <point x="26" y="485" type="line"/>
      <point x="26" y="409" type="line"/>
      <point x="123" y="409" type="line"/>
    </contour>
  </outline>
</glyph>
<glyph name="dv_Anusvara" format="1">
  <advance width="0"/>
  <unicode hex="0902"/>
  <outline>
    <contour>
      <point x="17" y="788"/>
      <point x="45" y="760"/>
      <point x="81" y="760" type="curve"/>
      <point x="118" y="760"/>
      <point x="147" y="788"/>
      <point x="147" y="824" type="curve"/>
      <point x="147" y="861"/>
      <point x="118" y="890"/>
      <point x="81" y="890" type="curve"/>
      <point x="45" y="890"/>
      <point x="17" y="861"/>
      <point x="17" y="824" type="curve"/>
    </contour>
  </outline>
</glyph>
<glyph name="dv_Visarga" format="1">
  <advance width="176"/>
  <unicode hex="0903"/>
  <outline>
    <contour>
      <point x="22" y="429"/>
      <point x="51" y="401"/>
      <point x="87" y="401" type="curve"/>
      <point x="124" y="401"/>
      <point x="153" y="429"/>
      <point x="153" y="465" type="curve"/>
      <point x="153" y="501"/>
      <point x="124" y="531"/>
      <point x="87" y="531" type="curve"/>
      <point x="51" y="531"/>
      <point x="22" y="501"/>
      <point x="22" y="465" type="curve"/>
    </contour>
    <contour>
      <point x="22" y="83"/>
      <point x="51" y="55"/>
      <point x="87" y="55" type="curve"/>
      <point x="124" y="55"/>
      <point x="153" y="83"/>
      <point x="153" y="120" type="curve"/>
      <point x="153" y="156"/>
      <point x="124" y="185"/>
      <point x="87" y="185" type="curve"/>
      <point x="51" y="185"/>
      <point x="22" y="156"/>
      <point x="22" y="120" type="curve"/>
    </contour>
  </outline>
</glyph>
<glyph name="dv_Aa" format="1">
  <advance width="1220"/>
  <unicode hex="0906"/>
  <outline>
    <contour>
      <point x="426" y="-15"/>
      <point x="515" y="71"/>
      <point x="515" y="187" type="curve" smooth="yes"/>
      <point x="515" y="239"/>
      <point x="491" y="284"/>
      <point x="447" y="311" type="curve"/>
      <point x="700" y="311" type="line"/>
      <point x="700" y="0" type="line"/>
      <point x="804" y="-16" type="line"/>
      <point x="804" y="597" type="line"/>
      <point x="1004" y="597" type="line"/>
      <point x="1004" y="0" type="line"/>
      <point x="1109" y="-16" type="line"/>
      <point x="1109" y="597" type="line"/>
      <point x="1231" y="597" type="line"/>
      <point x="1225" y="625"/>
      <point x="1221" y="652"/>
      <point x="1215" y="680" type="curve"/>
      <point x="577" y="680" type="line"/>
      <point x="594" y="597" type="line"/>
      <point x="700" y="597" type="line"/>
      <point x="700" y="389" type="line"/>
      <point x="433" y="389" type="line"/>
      <point x="473" y="417"/>
      <point x="501" y="463"/>
      <point x="501" y="510" type="curve" smooth="yes"/>
      <point x="501" y="608"/>
      <point x="437" y="696"/>
      <point x="287" y="696" type="curve" smooth="yes"/>
      <point x="206" y="696"/>
      <point x="132" y="670"/>
      <point x="77" y="631" type="curve"/>
      <point x="82" y="602"/>
      <point x="87" y="573"/>
      <point x="91" y="544" type="curve"/>
      <point x="153" y="588"/>
      <point x="212" y="611"/>
      <point x="279" y="611" type="curve" smooth="yes"/>
      <point x="356" y="611"/>
      <point x="394" y="563"/>
      <point x="394" y="508" type="curve" smooth="yes"/>
      <point x="394" y="441"/>
      <point x="346" y="388"/>
      <point x="241" y="388" type="curve" smooth="yes"/>
      <point x="137" y="388" type="line"/>
      <point x="155" y="313" type="line"/>
      <point x="234" y="313" type="line" smooth="yes"/>
      <point x="368" y="313"/>
      <point x="409" y="264"/>
      <point x="409" y="185" type="curve" smooth="yes"/>
      <point x="409" y="108"/>
      <point x="345" y="70"/>
      <point x="269" y="70" type="curve" smooth="yes"/>
      <point x="201" y="70"/>
      <point x="140" y="90"/>
      <point x="84" y="127" type="curve"/>
      <point x="65" y="41" type="line"/>
      <point x="116" y="10"/>
      <point x="191" y="-15"/>
      <point x="272" y="-15" type="curve" smooth="yes"/>
    </contour>
  </outline>
</glyph>
<glyph name="dv_Uu" format="1">
  <advance width="869"/>
  <unicode hex="090A"/>
  <outline>
    <contour>
      <point x="497" y="541"/>
      <point x="487" y="573"/>
      <point x="470" y="597" type="curve"/>
      <point x="881" y="597" type="line"/>
      <point x="865" y="680" type="line"/>
      <point x="-11" y="680" type="line"/>
      <point x="4" y="597" type="line"/>
      <point x="334" y="597" type="line"/>
      <point x="371" y="580"/>
      <point x="390" y="546"/>
      <point x="390" y="508" type="curve"/>
      <point x="390" y="441"/>
      <point x="341" y="388"/>
      <point x="237" y="388" type="curve"/>
      <point x="133" y="388" type="line"/>
      <point x="151" y="313" type="line"/>
      <point x="229" y="313" type="line" smooth="yes"/>
      <point x="363" y="313"/>
      <point x="404" y="264"/>
      <point x="404" y="185" type="curve"/>
      <point x="404" y="109"/>
      <point x="340" y="69"/>
      <point x="265" y="70" type="curve"/>
      <point x="197" y="70"/>
      <point x="136" y="90"/>
      <point x="80" y="127" type="curve"/>
      <point x="60" y="41" type="line"/>
      <point x="112" y="10"/>
      <point x="187" y="-16"/>
      <point x="267" y="-16" type="curve"/>
      <point x="421" y="-16"/>
      <point x="511" y="71"/>
      <point x="511" y="187" type="curve"/>
      <point x="511" y="204"/>
      <point x="508" y="224"/>
      <point x="501" y="242" type="curve"/>
      <point x="526" y="271"/>
      <point x="564" y="301"/>
      <point x="625" y="301" type="curve"/>
      <point x="691" y="301"/>
      <point x="737" y="254"/>
      <point x="737" y="184" type="curve"/>
      <point x="737" y="113"/>
      <point x="686" y="66"/>
      <point x="605" y="66" type="curve"/>
      <point x="624" y="-20" type="line"/>
      <point x="741" y="-20"/>
      <point x="842" y="55"/>
      <point x="842" y="181" type="curve"/>
      <point x="842" y="301"/>
      <point x="763" y="388"/>
      <point x="626" y="388" type="curve"/>
      <point x="548" y="388"/>
      <point x="487" y="349"/>
      <point x="454" y="316" type="curve"/>
      <point x="436" y="332"/>
      <point x="413" y="342"/>
      <point x="384" y="350" type="curve"/>
      <point x="461" y="374"/>
      <point x="497" y="450"/>
      <point x="497" y="510" type="curve"/>
    </contour>
  </outline>
</glyph>
<glyph name="dv_VocalicR" format="1">
  <advance width="903"/>
  <unicode hex="090B"/>
  <outline>
    <contour>
      <point x="645" y="116"/>
      <point x="634" y="117"/>
      <point x="595" y="129" type="curve"/>
      <point x="572" y="48" type="line"/>
      <point x="605" y="35"/>
      <point x="639" y="31"/>
      <point x="679" y="31" type="curve" smooth="yes"/>
      <point x="783" y="31"/>
      <point x="847" y="97"/>
      <point x="847" y="199" type="curve" smooth="yes"/>
      <point x="847" y="248"/>
      <point x="821" y="334"/>
      <point x="761" y="397" type="curve"/>
      <point x="777" y="413"/>
      <point x="781" y="429"/>
      <point x="781" y="445" type="curve" smooth="yes"/>
      <point x="781" y="495"/>
      <point x="727" y="524"/>
      <point x="681" y="524" type="curve" smooth="yes"/>
      <point x="650" y="524"/>
      <point x="624" y="508"/>
      <point x="624" y="472" type="curve" smooth="yes"/>
      <point x="624" y="444"/>
      <point x="635" y="423"/>
      <point x="646" y="409" type="curve"/>
      <point x="627" y="383"/>
      <point x="572" y="347"/>
      <point x="479" y="347" type="curve"/>
      <point x="479" y="597" type="line"/>
      <point x="914" y="597" type="line"/>
      <point x="898" y="680" type="line"/>
      <point x="-11" y="680" type="line"/>
      <point x="-5" y="652"/>
      <point x="-1" y="625"/>
      <point x="4" y="597" type="curve"/>
      <point x="374" y="597" type="line"/>
      <point x="374" y="404" type="line"/>
      <point x="300" y="481"/>
      <point x="233" y="484"/>
      <point x="175" y="484" type="curve" smooth="yes"/>
      <point x="151" y="484"/>
      <point x="76" y="467"/>
      <point x="39" y="449" type="curve"/>
      <point x="79" y="362" type="line"/>
      <point x="120" y="381"/>
      <point x="161" y="394"/>
      <point x="190" y="394" type="curve" smooth="yes"/>
      <point x="234" y="394"/>
      <point x="281" y="378"/>
      <point x="349" y="306" type="curve"/>
      <point x="85" y="155" type="line"/>
      <point x="141" y="79" type="line"/>
      <point x="374" y="212" type="line"/>
      <point x="374" y="0" type="line"/>
      <point x="479" y="-16" type="line"/>
      <point x="479" y="263" type="line"/>
      <point x="572" y="263"/>
      <point x="664" y="298"/>
      <point x="698" y="340" type="curve"/>
      <point x="734" y="291"/>
      <point x="753" y="247"/>
      <point x="753" y="204" type="curve" smooth="yes"/>
      <point x="753" y="143"/>
      <point x="716" y="116"/>
      <point x="676" y="116" type="curve" smooth="yes"/>
    </contour>
  </outline>
</glyph>
<glyph name="dv_ShortE" format="1">
  <advance width="706"/>
  <unicode hex="090E"/>
  <outline>
    <contour>
      <point x="285" y="851" type="line" smooth="yes"/>
      <point x="234" y="851"/>
      <point x="200" y="873"/>
      <point x="200" y="919" type="curve"/>
      <point x="168" y="924"/>
      <point x="137" y="929"/>
      <point x="105" y="935" type="curve"/>
      <point x="105" y="906" type="line" smooth="yes"/>
      <point x="105" y="824"/>
      <point x="177" y="766"/>
      <point x="286" y="766" type="curve" smooth="yes"/>
      <point x="410" y="766" type="line" smooth="yes"/>
      <point x="462" y="766"/>
      <point x="493" y="732"/>
      <point x="493" y="689" type="curve" smooth="yes"/>
      <point x="493" y="680" type="line"/>
      <point x="-11" y="680" type="line"/>
      <point x="-5" y="652"/>
      <point x="-1" y="625"/>
      <point x="4" y="597" type="curve"/>
      <point x="113" y="597" type="line"/>
      <point x="113" y="145" type="line" smooth="yes"/>
      <point x="113" y="44"/>
      <point x="157" y="0"/>
      <point x="239" y="-46" type="curve"/>
      <point x="468" y="-182" type="line"/>
      <point x="521" y="-104" type="line"/>
      <point x="435" y="-51"/>
      <point x="349" y="2"/>
      <point x="264" y="56" type="curve" smooth="yes"/>
      <point x="227" y="79"/>
      <point x="218" y="117"/>
      <point x="218" y="154" type="curve" smooth="yes"/>
      <point x="218" y="597" type="line"/>
      <point x="494" y="597" type="line"/>
      <point x="494" y="272" type="line" smooth="yes"/>
      <point x="494" y="198"/>
      <point x="463" y="174"/>
      <point x="387" y="147" type="curve"/>
      <point x="430" y="69" type="line"/>
      <point x="548" y="106"/>
      <point x="599" y="156"/>
      <point x="599" y="250" type="curve" smooth="yes"/>
      <point x="599" y="597" type="line"/>
      <point x="717" y="597" type="line"/>
      <point x="702" y="680" type="line"/>
      <point x="592" y="680" type="line"/>
      <point x="592" y="708" type="line" smooth="yes"/>
      <point x="592" y="787"/>
      <point x="513" y="851"/>
      <point x="411" y="851" type="curve" smooth="yes"/>
    </contour>
  </outline>
</glyph>
<glyph name="dv_Ai" format="1">
  <advance width="706"/>
  <unicode hex="0910"/>
  <outline>
    <contour>
      <point x="494" y="272" type="line"/>
      <point x="494" y="198"/>
      <point x="463" y="174"/>
      <point x="387" y="147" type="curve"/>
      <point x="430" y="69" type="line"/>
      <point x="548" y="106"/>
      <point x="599" y="156"/>
      <point x="599" y="250" type="curve"/>
      <point x="599" y="597" type="line"/>
      <point x="717" y="597" type="line"/>
      <point x="702" y="680" type="line"/>
      <point x="580" y="680" type="line"/>
      <point x="304" y="953" type="line"/>
      <point x="225" y="894" type="line"/>
      <point x="458" y="680" type="line"/>
      <point x="-11" y="680" type="line"/>
      <point x="4" y="597" type="line"/>
      <point x="113" y="597" type="line"/>
      <point x="113" y="145" type="line" smooth="yes"/>
      <point x="113" y="56"/>
      <point x="148" y="6"/>
      <point x="213" y="-32" type="curve"/>
      <point x="468" y="-183" type="line"/>
      <point x="521" y="-105" type="line"/>
      <point x="264" y="56" type="line" smooth="yes"/>
      <point x="227" y="79"/>
      <point x="218" y="117"/>
      <point x="218" y="154" type="curve"/>
      <point x="218" y="597" type="line"/>
      <point x="494" y="597" type="line"/>
    </contour>
  </outline>
</glyph>
<glyph name="dv_Ga" format="1">
  <advance width="654"/>
  <unicode hex="0917"/>
  <outline>
    <contour>
      <point x="439" y="0" type="line"/>
      <point x="544" y="-16" type="line"/>
      <point x="544" y="597" type="line"/>
      <point x="665" y="597" type="line"/>
      <point x="650" y="680" type="line"/>
      <point x="-11" y="680" type="line"/>
      <point x="-5" y="652"/>
      <point x="-1" y="625"/>
      <point x="4" y="597" type="curve"/>
      <point x="125" y="597" type="line"/>
      <point x="125" y="327" type="line"/>
      <point x="89" y="327"/>
      <point x="57" y="316"/>
      <point x="57" y="283" type="curve" smooth="yes"/>
      <point x="57" y="231"/>
      <point x="120" y="160"/>
      <point x="187" y="160" type="curve" smooth="yes"/>
      <point x="216" y="160"/>
      <point x="230" y="183"/>
      <point x="230" y="219" type="curve" smooth="yes"/>
      <point x="230" y="597" type="line"/>
      <point x="439" y="597" type="line"/>
    </contour>
  </outline>
</glyph>
<glyph name="dv_Nga" format="1">
  <advance width="622"/>
  <unicode hex="0919"/>
  <outline>
    <contour>
      <point x="498" y="330"/>
      <point x="526" y="301"/>
      <point x="562" y="301" type="curve" smooth="yes"/>
      <point x="599" y="301"/>
      <point x="628" y="330"/>
      <point x="628" y="365" type="curve" smooth="yes"/>
      <point x="628" y="402"/>
      <point x="599" y="431"/>
      <point x="562" y="431" type="curve" smooth="yes"/>
      <point x="526" y="431"/>
      <point x="498" y="402"/>
      <point x="498" y="365" type="curve" smooth="yes"/>
    </contour>
    <contour>
      <point x="200" y="69"/>
      <point x="133" y="86"/>
      <point x="76" y="124" type="curve"/>
      <point x="58" y="37" type="line"/>
      <point x="107" y="7"/>
      <point x="193" y="-17"/>
      <point x="273" y="-17" type="curve" smooth="yes"/>
      <point x="418" y="-17"/>
      <point x="498" y="63"/>
      <point x="498" y="152" type="curve" smooth="yes"/>
      <point x="498" y="266"/>
      <point x="417" y="319"/>
      <point x="295" y="319" type="curve" smooth="yes"/>
      <point x="215" y="319" type="line" smooth="yes"/>
      <point x="176" y="319"/>
      <point x="148" y="344"/>
      <point x="148" y="376" type="curve" smooth="yes"/>
      <point x="148" y="406"/>
      <point x="177" y="432"/>
      <point x="214" y="432" type="curve" smooth="yes"/>
      <point x="441" y="432" type="line"/>
      <point x="441" y="597" type="line"/>
      <point x="633" y="597" type="line"/>
      <point x="628" y="625"/>
      <point x="623" y="652"/>
      <point x="617" y="680" type="curve"/>
      <point x="-11" y="680" type="line"/>
      <point x="-5" y="652"/>
      <point x="-1" y="625"/>
      <point x="4" y="597" type="curve"/>
      <point x="343" y="597" type="line"/>
      <point x="343" y="519" type="line"/>
      <point x="211" y="519" type="line" smooth="yes"/>
      <point x="119" y="519"/>
      <point x="48" y="467"/>
      <point x="48" y="376" type="curve" smooth="yes"/>
      <point x="48" y="291"/>
      <point x="131" y="233"/>
      <point x="213" y="233" type="curve" smooth="yes"/>
      <point x="304" y="233" type="line" smooth="yes"/>
      <point x="360" y="233"/>
      <point x="392" y="199"/>
      <point x="392" y="153" type="curve" smooth="yes"/>
      <point x="392" y="112"/>
      <point x="358" y="68"/>
      <point x="269" y="68" type="curve"/>
    </contour>
  </outline>
</glyph>
<glyph name="dv_Cha" format="1">
  <advance width="819"/>
  <unicode hex="091B"/>
  <outline>
    <contour>
      <point x="620" y="-15"/>
      <point x="766" y="230"/>
      <point x="766" y="390" type="curve" smooth="yes"/>
      <point x="766" y="453"/>
      <point x="733" y="516"/>
      <point x="667" y="540" type="curve"/>
      <point x="667" y="597" type="line"/>
      <point x="830" y="597" type="line"/>
      <point x="814" y="680" type="line"/>
      <point x="-11" y="680" type="line"/>
      <point x="-5" y="652"/>
      <point x="0" y="625"/>
      <point x="5" y="597" type="curve"/>
      <point x="112" y="597" type="line"/>
      <point x="96" y="573"/>
      <point x="86" y="543"/>
      <point x="86" y="511" type="curve" smooth="yes"/>
      <point x="86" y="452"/>
      <point x="121" y="377"/>
      <point x="199" y="352" type="curve"/>
      <point x="111" y="332"/>
      <point x="72" y="255"/>
      <point x="72" y="188" type="curve" smooth="yes"/>
      <point x="72" y="58"/>
      <point x="185" y="-15"/>
      <point x="348" y="-15" type="curve" smooth="yes"/>
    </contour>
    <contour>
      <point x="263" y="70"/>
      <point x="179" y="110"/>
      <point x="179" y="190" type="curve" smooth="yes"/>
      <point x="179" y="269"/>
      <point x="232" y="316"/>
      <point x="354" y="316" type="curve" smooth="yes"/>
      <point x="388" y="316" type="line"/>
      <point x="370" y="392" type="line"/>
      <point x="346" y="392" type="line" smooth="yes"/>
      <point x="242" y="392"/>
      <point x="193" y="442"/>
      <point x="193" y="510" type="curve" smooth="yes"/>
      <point x="193" y="548"/>
      <point x="212" y="580"/>
      <point x="248" y="597" type="curve"/>
      <point x="580" y="597" type="line"/>
      <point x="580" y="547" type="line"/>
      <point x="508" y="535"/>
      <point x="457" y="472"/>
      <point x="457" y="390" type="curve" smooth="yes"/>
      <point x="457" y="303"/>
      <point x="531" y="237"/>
      <point x="610" y="227" type="curve"/>
      <point x="574" y="146"/>
      <point x="477" y="70"/>
      <point x="353" y="70" type="curve" smooth="yes"/>
    </contour>
    <contour>
      <point x="676" y="353"/>
      <point x="667" y="321"/>
      <point x="653" y="296" type="curve"/>
      <point x="602" y="299"/>
      <point x="546" y="335"/>
      <point x="546" y="390" type="curve" smooth="yes"/>
      <point x="546" y="433"/>
      <point x="570" y="467"/>
      <point x="609" y="467" type="curve" smooth="yes"/>
      <point x="658" y="467"/>
      <point x="676" y="427"/>
      <point x="676" y="385" type="curve" smooth="yes"/>
    </contour>
  </outline>
</glyph>
<glyph name="dv_Ta" format="1">
  <advance width="682"/>
  <unicode hex="0924"/>
  <outline>
    <contour>
      <point x="468" y="0" type="line"/>
      <point x="572" y="-16" type="line"/>
      <point x="572" y="597" type="line"/>
      <point x="694" y="597" type="line"/>
      <point x="678" y="680" type="line"/>
      <point x="-11" y="680" type="line"/>
      <point x="4" y="597" type="line"/>
      <point x="468" y="597" type="line"/>
      <point x="468" y="460" type="line"/>
      <point x="241" y="460" type="line" smooth="yes"/>
      <point x="127" y="460"/>
      <point x="62" y="390"/>
      <point x="62" y="295" type="curve"/>
      <point x="62" y="199"/>
      <point x="148" y="77"/>
      <point x="216" y="-20" type="curve"/>
      <point x="308" y="8" type="line"/>
      <point x="237" y="119"/>
      <point x="166" y="222"/>
      <point x="166" y="291" type="curve"/>
      <point x="166" y="348"/>
      <point x="204" y="376"/>
      <point x="280" y="376" type="curve"/>
      <point x="468" y="376" type="line"/>
    </contour>
  </outline>
</glyph>
<glyph name="dv_Tha" format="1">
  <advance width="691"/>
  <unicode hex="0925"/>
  <outline>
    <contour>
      <point x="197" y="480"/>
      <point x="233" y="501"/>
      <point x="244" y="525" type="curve"/>
      <point x="239" y="469"/>
      <point x="220" y="434"/>
      <point x="125" y="386" type="curve"/>
      <point x="105" y="361" type="line"/>
      <point x="105" y="258"/>
      <point x="217" y="164"/>
      <point x="338" y="164" type="curve" smooth="yes"/>
      <point x="401" y="164"/>
      <point x="442" y="181"/>
      <point x="475" y="205" type="curve"/>
      <point x="475" y="0" type="line"/>
      <point x="580" y="-16" type="line"/>
      <point x="580" y="597" type="line"/>
      <point x="702" y="597" type="line"/>
      <point x="696" y="625"/>
      <point x="692" y="652"/>
      <point x="686" y="680" type="curve"/>
      <point x="388" y="680" type="line"/>
      <point x="403" y="597" type="line"/>
      <point x="475" y="597" type="line"/>
      <point x="475" y="399" type="line" smooth="yes"/>
      <point x="475" y="307"/>
      <point x="432" y="252"/>
      <point x="341" y="252" type="curve"/>
      <point x="272" y="254"/>
      <point x="224" y="290"/>
      <point x="207" y="332" type="curve"/>
      <point x="267" y="365"/>
      <point x="332" y="405"/>
      <point x="332" y="523" type="curve" smooth="yes"/>
      <point x="332" y="622"/>
      <point x="256" y="696"/>
      <point x="174" y="696" type="curve" smooth="yes"/>
      <point x="98" y="696"/>
      <point x="45" y="648"/>
      <point x="45" y="581" type="curve" smooth="yes"/>
      <point x="45" y="519"/>
      <point x="99" y="480"/>
      <point x="158" y="480" type="curve" smooth="yes"/>
    </contour>
    <contour>
      <point x="187" y="624"/>
      <point x="204" y="610"/>
      <point x="213" y="594" type="curve"/>
      <point x="208" y="569"/>
      <point x="192" y="548"/>
      <point x="162" y="548" type="curve" smooth="yes"/>
      <point x="143" y="548"/>
      <point x="124" y="562"/>
      <point x="124" y="584" type="curve" smooth="yes"/>
      <point x="124" y="610"/>
      <point x="145" y="624"/>
      <point x="167" y="624" type="curve" smooth="yes"/>
    </contour>
  </outline>
</glyph>
<glyph name="dv_Dha" format="1">
  <advance width="745"/>
  <unicode hex="0927"/>
  <outline>
    <contour>
      <point x="183" y="573"/>
      <point x="227" y="604"/>
      <point x="264" y="604" type="curve" smooth="yes"/>
      <point x="297" y="604"/>
      <point x="323" y="595"/>
      <point x="344" y="574" type="curve"/>
      <point x="392" y="640" type="line"/>
      <point x="371" y="664"/>
      <point x="324" y="694"/>
      <point x="260" y="694" type="curve" smooth="yes"/>
      <point x="151" y="694"/>
      <point x="81" y="618"/>
      <point x="81" y="532" type="curve" smooth="yes"/>
      <point x="81" y="478"/>
      <point x="111" y="424"/>
      <point x="155" y="404" type="curve"/>
      <point x="102" y="385"/>
      <point x="68" y="324"/>
      <point x="68" y="261" type="curve" smooth="yes"/>
      <point x="68" y="157"/>
      <point x="150" y="74"/>
      <point x="304" y="74" type="curve" smooth="yes"/>
      <point x="415" y="74"/>
      <point x="488" y="122"/>
      <point x="529" y="176" type="curve"/>
      <point x="529" y="0" type="line"/>
      <point x="634" y="-16" type="line"/>
      <point x="634" y="597" type="line"/>
      <point x="756" y="597" type="line"/>
      <point x="740" y="680" type="line"/>
      <point x="435" y="680" type="line"/>
      <point x="450" y="597" type="line"/>
      <point x="529" y="597" type="line"/>
      <point x="529" y="454" type="line" smooth="yes"/>
      <point x="529" y="432"/>
      <point x="528" y="412"/>
      <point x="527" y="391" type="curve" smooth="yes"/>
      <point x="516" y="243"/>
      <point x="415" y="167"/>
      <point x="307" y="167" type="curve" smooth="yes"/>
      <point x="229" y="167"/>
      <point x="173" y="204"/>
      <point x="173" y="260" type="curve" smooth="yes"/>
      <point x="173" y="318"/>
      <point x="211" y="362"/>
      <point x="303" y="362" type="curve" smooth="yes"/>
      <point x="360" y="362" type="line"/>
      <point x="350" y="388"/>
      <point x="340" y="414"/>
      <point x="331" y="440" type="curve"/>
      <point x="297" y="440" type="line" smooth="yes"/>
      <point x="221" y="440"/>
      <point x="183" y="476"/>
      <point x="183" y="528" type="curve" smooth="yes"/>
    </contour>
  </outline>
</glyph>
<glyph name="dv_Na" format="1">
  <advance width="631"/>
  <unicode hex="0928"/>
  <outline>
    <contour>
      <point x="415" y="300" type="line"/>
      <point x="415" y="0" type="line"/>
      <point x="520" y="-16" type="line"/>
      <point x="520" y="597" type="line"/>
      <point x="642" y="597" type="line"/>
      <point x="627" y="680" type="line"/>
      <point x="-11" y="680" type="line"/>
      <point x="-5" y="652"/>
      <point x="-1" y="625"/>
      <point x="4" y="597" type="curve"/>
      <point x="415" y="597" type="line"/>
      <point x="415" y="381" type="line"/>
      <point x="87" y="381" type="line" smooth="yes"/>
      <point x="54" y="381"/>
      <point x="34" y="364"/>
      <point x="34" y="335" type="curve" smooth="yes"/>
      <point x="34" y="276"/>
      <point x="101" y="219"/>
      <point x="159" y="219" type="curve" smooth="yes"/>
      <point x="175" y="219"/>
      <point x="199" y="259"/>
      <point x="199" y="300" type="curve"/>
    </contour>
  </outline>
</glyph>
<glyph name="dv_Nnna" format="1">
  <advance width="631"/>
  <unicode hex="0929"/>
  <outline>
    <contour>
      <point x="100" y="-19"/>
      <point x="129" y="-48"/>
      <point x="165" y="-48" type="curve" smooth="yes"/>
      <point x="201" y="-48"/>
      <point x="230" y="-19"/>
      <point x="230" y="16" type="curve" smooth="yes"/>
      <point x="230" y="52"/>
      <point x="201" y="81"/>
      <point x="165" y="81" type="curve" smooth="yes"/>
      <point x="129" y="81"/>
      <point x="100" y="52"/>
      <point x="100" y="16" type="curve" smooth="yes"/>
    </contour>
    <contour>
      <point x="415" y="300" type="line"/>
      <point x="415" y="0" type="line"/>
      <point x="520" y="-16" type="line"/>
      <point x="520" y="597" type="line"/>
      <point x="642" y="597" type="line"/>
      <point x="627" y="680" type="line"/>
      <point x="-11" y="680" type="line"/>
      <point x="-5" y="652"/>
      <point x="-1" y="625"/>
      <point x="4" y="597" type="curve"/>
      <point x="415" y="597" type="line"/>
      <point x="415" y="381" type="line"/>
      <point x="87" y="381" type="line" smooth="yes"/>
      <point x="54" y="381"/>
      <point x="34" y="364"/>
      <point x="34" y="335" type="curve" smooth="yes"/>
      <point x="34" y="276"/>
      <point x="101" y="219"/>
      <point x="159" y="219" type="curve" smooth="yes"/>
      <point x="175" y="219"/>
      <point x="199" y="259"/>
      <point x="199" y="300" type="curve"/>
    </contour>
  </outline>
</glyph>
<glyph name="dv_Ra" format="1">
  <advance width="450"/>
  <unicode hex="0930"/>
  <outline>
    <contour>
      <point x="127" y="249" type="line"/>
      <point x="179" y="159"/>
      <point x="229" y="70"/>
      <point x="281" y="-19" type="curve"/>
      <point x="381" y="6" type="line"/>
      <point x="222" y="259" type="line"/>
      <point x="316" y="287"/>
      <point x="377" y="369"/>
      <point x="377" y="465" type="curve" smooth="yes"/>
      <point x="377" y="509"/>
      <point x="365" y="560"/>
      <point x="340" y="597" type="curve"/>
      <point x="462" y="597" type="line"/>
      <point x="446" y="680" type="line"/>
      <point x="-11" y="680" type="line"/>
      <point x="-5" y="652"/>
      <point x="-1" y="625"/>
      <point x="4" y="597" type="curve"/>
      <point x="220" y="597" type="line"/>
      <point x="254" y="572"/>
      <point x="277" y="519"/>
      <point x="277" y="466" type="curve" smooth="yes"/>
      <point x="277" y="408"/>
      <point x="245" y="362"/>
      <point x="196" y="344" type="curve"/>
      <point x="187" y="369"/>
      <point x="168" y="406"/>
      <point x="148" y="406" type="curve" smooth="yes"/>
      <point x="96" y="406"/>
      <point x="45" y="340"/>
      <point x="45" y="289" type="curve" smooth="yes"/>
      <point x="45" y="266"/>
      <point x="64" y="249"/>
      <point x="89" y="249" type="curve" smooth="yes"/>
    </contour>
  </outline>
</glyph>
<glyph name="dv_MatraOe" format="1">
  <advance width="0"/>
  <unicode hex="093A"/>
  <outline>
    <contour>
      <point x="-35" y="884" type="line"/>
      <point x="-134" y="900" type="line"/>
      <point x="-134" y="680" type="line"/>
      <point x="-35" y="680" type="line"/>
    </contour>
  </outline>
</glyph>
<glyph name="dv_MatraOoe" format="1">
  <advance width="326"/>
  <unicode hex="093B"/>
  <outline>
    <contour>
      <point x="212" y="884" type="line"/>
      <point x="113" y="900" type="line"/>
      <point x="113" y="680" type="line"/>
      <point x="-11" y="680" type="line"/>
      <point x="-5" y="652"/>
      <point x="-1" y="625"/>
      <point x="4" y="597" type="curve"/>
      <point x="110" y="597" type="line"/>
      <point x="110" y="0" type="line"/>
      <point x="215" y="-16" type="line"/>
      <point x="215" y="597" type="line"/>
      <point x="337" y="597" type="line"/>
      <point x="332" y="625"/>
      <point x="326" y="652"/>
      <point x="320" y="680" type="curve"/>
      <point x="212" y="680" type="line"/>
    </contour>
  </outline>
</glyph>
<glyph name="dv_Avagraha" format="1">
  <advance width="550"/>
  <unicode hex="093D"/>
  <outline>
    <contour>
      <point x="207" y="70"/>
      <point x="139" y="93"/>
      <point x="85" y="130" type="curve"/>
      <point x="40" y="46" type="line"/>
      <point x="108" y="2"/>
      <point x="199" y="-18"/>
      <point x="257" y="-18" type="curve"/>
      <point x="405" y="-18"/>
      <point x="484" y="63"/>
      <point x="484" y="168" type="curve"/>
      <point x="484" y="276"/>
      <point x="369" y="406"/>
      <point x="292" y="496" type="curve"/>
      <point x="202" y="599" type="line"/>
      <point x="490" y="599" type="line"/>
      <point x="473" y="680" type="line"/>
      <point x="77" y="680" type="line"/>
      <point x="77" y="608" type="line"/>
      <point x="232" y="432" type="line" smooth="yes"/>
      <point x="304" y="351"/>
      <point x="387" y="242"/>
      <point x="387" y="168" type="curve"/>
      <point x="387" y="106"/>
      <point x="338" y="70"/>
      <point x="268" y="70" type="curve"/>
    </contour>
  </outline>
</glyph>
<glyph name="dv_MatraI" format="1">
  <advance width="326"/>
  <unicode hex="093F"/>
  <outline>
    <contour>
      <point x="447" y="860"/>
      <point x="634" y="778"/>
      <point x="744" y="706" type="curve"/>
      <point x="783" y="771" type="line"/>
      <point x="696" y="835"/>
      <point x="470" y="946"/>
      <point x="295" y="946" type="curve"/>
      <point x="157" y="946"/>
      <point x="72" y="870"/>
      <point x="72" y="766" type="curve"/>
      <point x="72" y="722"/>
      <point x="86" y="695"/>
      <point x="95" y="680" type="curve"/>
      <point x="-11" y="680" type="line"/>
      <point x="4" y="597" type="line"/>
      <point x="110" y="597" type="line"/>
      <point x="110" y="0" type="line"/>
      <point x="215" y="-16" type="line"/>
      <point x="215" y="597" type="line"/>
      <point x="337" y="597" type="line"/>
      <point x="320" y="680" type="line"/>
      <point x="202" y="680" type="line"/>
      <point x="193" y="691"/>
      <point x="171" y="717"/>
      <point x="171" y="761" type="curve"/>
      <point x="171" y="815"/>
      <point x="220" y="860"/>
      <point x="305" y="860" type="curve"/>
    </contour>
  </outline>
</glyph>
<glyph name="dv_MatraUu" format="1">
  <advance width="0"/>
  <unicode hex="0942"/>
  <outline>
    <contour>
      <point x="-87" y="-101"/>
      <point x="-39" y="-153"/>
      <point x="33" y="-236" type="curve"/>
      <point x="96" y="-193" type="line"/>
      <point x="27" y="-85"/>
      <point x="-63" y="-18"/>
      <point x="-157" y="-18" type="curve"/>
      <point x="-248" y="-18"/>
      <point x="-322" y="-74"/>
      <point x="-322" y="-167" type="curve"/>
      <point x="-322" y="-261"/>
      <point x="-245" y="-317"/>
      <point x="-169" y="-317" type="curve"/>
      <point x="-97" y="-317" type="line"/>
      <point x="-97" y="-235" type="line"/>
      <point x="-159" y="-235" type="line" smooth="yes"/>
      <point x="-205" y="-235"/>
      <point x="-233" y="-207"/>
      <point x="-233" y="-167" type="curve"/>
      <point x="-233" y="-129"/>
      <point x="-207" y="-101"/>
      <point x="-159" y="-101" type="curve"/>
    </contour>
  </outline>
</glyph>
<glyph name="dv_MatraVocalicRr" format="1">
  <advance width="0"/>
  <unicode hex="0944"/>
  <outline>
    <contour>
      <point x="-269" y="-131"/>
      <point x="-252" y="-153"/>
      <point x="-237" y="-163" type="curve"/>
      <point x="-254" y="-175"/>
      <point x="-269" y="-196"/>
      <point x="-269" y="-219" type="curve"/>
      <point x="-269" y="-284"/>
      <point x="-212" y="-308"/>
      <point x="-161" y="-308" type="curve"/>
      <point x="-134" y="-308" type="line"/>
      <point x="-112" y="-244" type="line"/>
      <point x="-143" y="-244" type="line" smooth="yes"/>
      <point x="-175" y="-244"/>
      <point x="-191" y="-235"/>
      <point x="-191" y="-219" type="curve"/>
      <point x="-191" y="-201"/>
      <point x="-166" y="-194"/>
      <point x="-136" y="-194" type="curve"/>
      <point x="-113" y="-133" type="line"/>
      <point x="-143" y="-133" type="line" smooth="yes"/>
      <point x="-163" y="-133"/>
      <point x="-186" y="-125"/>
      <point x="-186" y="-109" type="curve"/>
      <point x="-186" y="-91"/>
      <point x="-163" y="-83"/>
      <point x="-143" y="-83" type="curve"/>
      <point x="-110" y="-83" type="line"/>
      <point x="-111" y="-18" type="line"/>
      <point x="-161" y="-18" type="line" smooth="yes"/>
      <point x="-212" y="-18"/>
      <point x="-269" y="-41"/>
      <point x="-269" y="-109" type="curve"/>
    </contour>
  </outline>
</glyph>
<glyph name="dv_MatraShortE" format="1">
  <advance width="0"/>
  <unicode hex="0946"/>
  <outline>
    <contour>
      <point x="-343" y="851"/>
      <point x="-394" y="865"/>
      <point x="-394" y="919" type="curve"/>
      <point x="-426" y="924"/>
      <point x="-457" y="929"/>
      <point x="-489" y="935" type="curve"/>
      <point x="-489" y="916" type="line" smooth="yes"/>
      <point x="-489" y="828"/>
      <point x="-426" y="766"/>
      <point x="-308" y="766" type="curve" smooth="yes"/>
      <point x="-241" y="766"/>
      <point x="-205" y="748"/>
      <point x="-205" y="689" type="curve" smooth="yes"/>
      <point x="-205" y="637" type="line"/>
      <point x="-106" y="637" type="line"/>
      <point x="-106" y="674" type="line" smooth="yes"/>
      <point x="-106" y="695"/>
      <point x="-108" y="716"/>
      <point x="-112" y="736" type="curve" smooth="yes"/>
      <point x="-124" y="802"/>
      <point x="-198" y="850"/>
      <point x="-287" y="851" type="curve" smooth="yes"/>
    </contour>
  </outline>
</glyph>
<glyph name="dv_MatraE" format="1">
  <advance width="0"/>
  <unicode hex="0947"/>
  <outline>
    <contour>
      <point x="-70" y="630" type="line"/>
      <point x="-396" y="953" type="line"/>
      <point x="-475" y="894" type="line"/>
      <point x="-188" y="630" type="line"/>
    </contour>
  </outline>
</glyph>
<glyph name="dv_MatraAi" format="1">
  <advance width="0"/>
  <unicode hex="0948"/>
  <outline>
    <contour>
      <point x="-121" y="676" type="line"/>
      <point x="-148" y="789"/>
      <point x="-175" y="903"/>
      <point x="-203" y="1017" type="curve"/>
      <point x="-300" y="987" type="line"/>
      <point x="-239" y="803" type="line"/>
      <point x="-294" y="858"/>
      <point x="-338" y="861"/>
      <point x="-395" y="861" type="curve" smooth="yes"/>
      <point x="-504" y="861" type="line"/>
      <point x="-483" y="771" type="line"/>
      <point x="-391" y="771" type="line" smooth="yes"/>
      <point x="-335" y="771"/>
      <point x="-300" y="764"/>
      <point x="-251" y="713" type="curve" smooth="yes"/>
      <point x="-215" y="676" type="line"/>
    </contour>
  </outline>
</glyph>
<glyph name="dv_MatraAu" format="1">
  <advance width="326"/>
  <unicode hex="094C"/>
  <outline>
    <contour>
      <point x="206" y="680" type="line"/>
      <point x="126" y="1017" type="line"/>
      <point x="29" y="987" type="line"/>
      <point x="89" y="803" type="line"/>
      <point x="31" y="859"/>
      <point x="-16" y="861"/>
      <point x="-82" y="861" type="curve" smooth="yes"/>
      <point x="-174" y="861" type="line"/>
      <point x="-155" y="771" type="line"/>
      <point x="-62" y="771" type="line" smooth="yes"/>
      <point x="-10" y="771"/>
      <point x="23" y="764"/>
      <point x="70" y="719" type="curve" smooth="yes"/>
      <point x="110" y="680" type="line"/>
      <point x="-11" y="680" type="line"/>
      <point x="-5" y="652"/>
      <point x="-1" y="625"/>
      <point x="4" y="597" type="curve"/>
      <point x="110" y="597" type="line"/>
      <point x="110" y="0" type="line"/>
      <point x="215" y="-16" type="line"/>
      <point x="215" y="597" type="line"/>
      <point x="337" y="597" type="line"/>
      <point x="332" y="625"/>
      <point x="326" y="652"/>
      <point x="320" y="680" type="curve"/>
    </contour>
  </outline>
</glyph>
<glyph name="dv_Halant" format="1">
  <advance width="0"/>
  <unicode hex="094D"/>
  <outline>
    <contour>
      <point x="-64" y="-332" type="line"/>
      <point x="-2" y="-276" type="line"/>
      <point x="-209" y="-67" type="line"/>
      <point x="-284" y="-135" type="line"/>
    </contour>
  </outline>
</glyph>
<glyph name="dv_PrishtaMatraE" format="1">
  <advance width="323"/>
  <unicode hex="094E"/>
  <outline>
    <contour>
      <point x="108" y="0" type="line"/>
      <point x="213" y="-16" type="line"/>
      <point x="213" y="597" type="line"/>
      <point x="335" y="597" type="line"/>
      <point x="318" y="680" type="line"/>
      <point x="108" y="680" type="line"/>
    </contour>
  </outline>
</glyph>
<glyph name="dv_Om" format="1">
  <advance width="872"/>
  <unicode hex="0950"/>
  <outline>
    <contour>
      <point x="501" y="608"/>
      <point x="437" y="696"/>
      <point x="287" y="696" type="curve" smooth="yes"/>
      <point x="206" y="696"/>
      <point x="132" y="670"/>
      <point x="77" y="631" type="curve"/>
      <point x="82" y="602"/>
      <point x="87" y="573"/>
      <point x="91" y="544" type="curve"/>
      <point x="153" y="588"/>
      <point x="212" y="611"/>
      <point x="279" y="611" type="curve" smooth="yes"/>
      <point x="356" y="611"/>
      <point x="394" y="563"/>
      <point x="394" y="508" type="curve" smooth="yes"/>
      <point x="394" y="441"/>
      <point x="346" y="388"/>
      <point x="241" y="388" type="curve" smooth="yes"/>
      <point x="137" y="388" type="line"/>
      <point x="155" y="313" type="line"/>
      <point x="234" y="313" type="line" smooth="yes"/>
      <point x="368" y="313"/>
      <point x="409" y="264"/>
      <point x="409" y="185" type="curve" smooth="yes"/>
      <point x="409" y="108"/>
      <point x="345" y="70"/>
      <point x="269" y="70" type="curve" smooth="yes"/>
      <point x="201" y="70"/>
      <point x="140" y="90"/>
      <point x="84" y="127" type="curve"/>
      <point x="65" y="41" type="line"/>
      <point x="115" y="10"/>
      <point x="190" y="-15"/>
      <point x="272" y="-15" type="curve" smooth="yes"/>
      <point x="426" y="-15"/>
      <point x="515" y="71"/>
      <point x="515" y="187" type="curve" smooth="yes"/>
      <point x="515" y="204"/>
      <point x="513" y="224"/>
      <point x="506" y="242" type="curve"/>
      <point x="530" y="271"/>
      <point x="569" y="301"/>
      <point x="630" y="301" type="curve" smooth="yes"/>
      <point x="694" y="301"/>
      <point x="742" y="254"/>
      <point x="742" y="184" type="curve" smooth="yes"/>
      <point x="742" y="113"/>
      <point x="691" y="66"/>
      <point x="609" y="66" type="curve"/>
      <point x="615" y="37"/>
      <point x="621" y="8"/>
      <point x="628" y="-20" type="curve"/>
      <point x="745" y="-20"/>
      <point x="846" y="52"/>
      <point x="846" y="184" type="curve" smooth="yes"/>
      <point x="846" y="303"/>
      <point x="767" y="388"/>
      <point x="631" y="388" type="curve" smooth="yes"/>
      <point x="553" y="388"/>
      <point x="492" y="349"/>
      <point x="458" y="316" type="curve"/>
      <point x="441" y="332"/>
      <point x="417" y="342"/>
      <point x="388" y="350" type="curve"/>
      <point x="466" y="374"/>
      <point x="501" y="450"/>
      <point x="501" y="510" type="curve" smooth="yes"/>
    </contour>
    <contour>
      <point x="782" y="880" type="line"/>
      <point x="743" y="806"/>
      <point x="687" y="777"/>
      <point x="632" y="777" type="curve"/>
      <point x="576" y="777"/>
      <point x="516" y="809"/>
      <point x="481" y="880" type="curve"/>
      <point x="410" y="835" type="line"/>
      <point x="460" y="736"/>
      <point x="540" y="698"/>
      <point x="632" y="698" type="curve"/>
      <point x="722" y="698"/>
      <point x="802" y="735"/>
      <point x="853" y="835" type="curve"/>
    </contour>
    <contour>
      <point x="567" y="856"/>
      <point x="596" y="827"/>
      <point x="632" y="827" type="curve"/>
      <point x="668" y="827"/>
      <point x="698" y="856"/>
      <point x="698" y="892" type="curve"/>
      <point x="698" y="928"/>
      <point x="668" y="958"/>
      <point x="632" y="958" type="curve"/>
      <point x="596" y="958"/>
      <point x="567" y="928"/>
      <point x="567" y="892" type="curve"/>
    </contour>
  </outline>
</glyph>
<glyph name="dv_Udatta" format="1">
  <advance width="0"/>
  <unicode hex="0951"/>
  <outline>
    <contour>
      <point x="102" y="751" type="line"/>
      <point x="115" y="946" type="line"/>
      <point x="17" y="946" type="line"/>
      <point x="29" y="751" type="line"/>
    </contour>
  </outline>
</glyph>
<glyph name="dv_MatraCandraLongE" format="1">
  <advance width="0"/>
  <unicode hex="0955"/>
  <outline>
    <contour>
      <point x="391" y="1015" type="line"/>
      <point x="352" y="942"/>
      <point x="290" y="916"/>
      <point x="241" y="916" type="curve" smooth="yes"/>
      <point x="185" y="916"/>
      <point x="125" y="946"/>
      <point x="90" y="1015" type="curve"/>
      <point x="66" y="1002"/>
      <point x="43" y="988"/>
      <point x="19" y="974" type="curve"/>
      <point x="69" y="875"/>
      <point x="150" y="840"/>
      <point x="241" y="840" type="curve" smooth="yes"/>
      <point x="331" y="840"/>
      <point x="411" y="874"/>
      <point x="462" y="974" type="curve"/>
    </contour>
    <contour>
      <point x="472" y="737" type="line"/>
      <point x="458" y="808" type="line"/>
      <point x="21" y="808" type="line"/>
      <point x="36" y="737" type="line"/>
    </contour>
  </outline>
</glyph>
<glyph name="dv_MatraUe" format="1">
  <advance width="0"/>
  <unicode hex="0956"/>
  <outline>
    <contour>
      <point x="389" y="-46" type="line"/>
      <point x="350" y="-118"/>
      <point x="294" y="-148"/>
      <point x="239" y="-148" type="curve"/>
      <point x="183" y="-148"/>
      <point x="123" y="-116"/>
      <point x="88" y="-46" type="curve"/>
      <point x="17" y="-89" type="line"/>
      <point x="67" y="-189"/>
      <point x="147" y="-226"/>
      <point x="239" y="-226" type="curve"/>
      <point x="329" y="-226"/>
      <point x="409" y="-189"/>
      <point x="460" y="-89" type="curve"/>
    </contour>
  </outline>
</glyph>
<glyph name="dv_Khha" format="1">
  <advance width="931"/>
  <unicode hex="0959"/>
  <outline>
    <contour>
      <point x="820" y="-16" type="line"/>
      <point x="820" y="597" type="line"/>
      <point x="942" y="597" type="line"/>
      <point x="927" y="680" type="line"/>
      <point x="-11" y="680" type="line"/>
      <point x="-5" y="652"/>
      <point x="-1" y="625"/>
      <point x="4" y="597" type="curve"/>
      <point x="209" y="597" type="line"/>
      <point x="244" y="572"/>
      <point x="266" y="517"/>
      <point x="266" y="465" type="curve" smooth="yes"/>
      <point x="266" y="406"/>
      <point x="231" y="361"/>
      <point x="188" y="345" type="curve"/>
      <point x="183" y="371"/>
      <point x="173" y="406"/>
      <point x="150" y="406" type="curve" smooth="yes"/>
      <point x="93" y="406"/>
      <point x="36" y="339"/>
      <point x="36" y="288" type="curve" smooth="yes"/>
      <point x="36" y="265"/>
      <point x="55" y="249"/>
      <point x="80" y="249" type="curve" smooth="yes"/>
      <point x="113" y="249" type="line"/>
      <point x="131" y="121"/>
      <point x="248" y="-17"/>
      <point x="451" y="-17" type="curve" smooth="yes"/>
      <point x="558" y="-17"/>
      <point x="652" y="24"/>
      <point x="715" y="86" type="curve"/>
      <point x="715" y="0" type="line"/>
    </contour>
    <contour>
      <point x="497" y="520"/>
      <point x="415" y="440"/>
      <point x="415" y="333" type="curve" smooth="yes"/>
      <point x="415" y="237"/>
      <point x="491" y="156"/>
      <point x="587" y="156" type="curve" smooth="yes"/>
      <point x="609" y="156"/>
      <point x="631" y="161"/>
      <point x="651" y="169" type="curve"/>
      <point x="616" y="115"/>
      <point x="543" y="70"/>
      <point x="451" y="70" type="curve" smooth="yes"/>
      <point x="311" y="70"/>
      <point x="226" y="179"/>
      <point x="212" y="260" type="curve"/>
      <point x="303" y="288"/>
      <point x="364" y="370"/>
      <point x="364" y="465" type="curve" smooth="yes"/>
      <point x="364" y="509"/>
      <point x="351" y="560"/>
      <point x="327" y="597" type="curve"/>
      <point x="715" y="597" type="line"/>
      <point x="715" y="495" type="line"/>
      <point x="689" y="512"/>
      <point x="655" y="520"/>
      <point x="618" y="520" type="curve" smooth="yes"/>
    </contour>
    <contour>
      <point x="566" y="234"/>
      <point x="522" y="270"/>
      <point x="522" y="334" type="curve" smooth="yes"/>
      <point x="522" y="396"/>
      <point x="567" y="434"/>
      <point x="618" y="434" type="curve" smooth="yes"/>
      <point x="671" y="434"/>
      <point x="715" y="396"/>
      <point x="715" y="333" type="curve" smooth="yes"/>
      <point x="715" y="271"/>
      <point x="672" y="234"/>
      <point x="618" y="234" type="curve" smooth="yes"/>
    </contour>
    <contour>
      <point x="37" y="-19"/>
      <point x="66" y="-48"/>
      <point x="102" y="-48" type="curve" smooth="yes"/>
      <point x="138" y="-48"/>
      <point x="167" y="-19"/>
      <point x="167" y="16" type="curve" smooth="yes"/>
      <point x="167" y="52"/>
      <point x="138" y="81"/>
      <point x="102" y="81" type="curve" smooth="yes"/>
      <point x="66" y="81"/>
      <point x="37" y="52"/>
      <point x="37" y="16" type="curve" smooth="yes"/>
    </contour>
  </outline>
</glyph>
<glyph name="dv_Ghha" format="1">
  <advance width="654"/>
  <unicode hex="095A"/>
  <outline>
    <contour>
      <point x="122" y="-19"/>
      <point x="150" y="-48"/>
      <point x="187" y="-48" type="curve" smooth="yes"/>
      <point x="223" y="-48"/>
      <point x="252" y="-19"/>
      <point x="252" y="16" type="curve" smooth="yes"/>
      <point x="252" y="52"/>
      <point x="223" y="81"/>
      <point x="187" y="81" type="curve" smooth="yes"/>
      <point x="150" y="81"/>
      <point x="122" y="52"/>
      <point x="122" y="16" type="curve" smooth="yes"/>
    </contour>
    <contour>
      <point x="439" y="0" type="line"/>
      <point x="544" y="-16" type="line"/>
      <point x="544" y="597" type="line"/>
      <point x="665" y="597" type="line"/>
      <point x="650" y="680" type="line"/>
      <point x="-11" y="680" type="line"/>
      <point x="-5" y="652"/>
      <point x="-1" y="625"/>
      <point x="4" y="597" type="curve"/>
      <point x="125" y="597" type="line"/>
      <point x="125" y="327" type="line"/>
      <point x="89" y="327"/>
      <point x="57" y="316"/>
      <point x="57" y="283" type="curve" smooth="yes"/>
      <point x="57" y="231"/>
      <point x="120" y="160"/>
      <point x="187" y="160" type="curve" smooth="yes"/>
      <point x="216" y="160"/>
      <point x="230" y="183"/>
      <point x="230" y="219" type="curve" smooth="yes"/>
      <point x="230" y="597" type="line"/>
      <point x="439" y="597" type="line"/>
    </contour>
  </outline>
</glyph>
<glyph name="dv_Za" format="1">
  <advance width="781"/>
  <unicode hex="095B"/>
  <outline>
    <contour>
      <point x="153" y="-93"/>
      <point x="182" y="-121"/>
      <point x="218" y="-121" type="curve" smooth="yes"/>
      <point x="254" y="-121"/>
      <point x="284" y="-93"/>
      <point x="284" y="-57" type="curve" smooth="yes"/>
      <point x="284" y="-21"/>
      <point x="254" y="8"/>
      <point x="218" y="8" type="curve" smooth="yes"/>
      <point x="182" y="8"/>
      <point x="153" y="-21"/>
      <point x="153" y="-57" type="curve" smooth="yes"/>
    </contour>
    <contour>
      <point x="567" y="380" type="line"/>
      <point x="567" y="0" type="line"/>
      <point x="670" y="-16" type="line"/>
      <point x="670" y="597" type="line"/>
      <point x="793" y="597" type="line"/>
      <point x="788" y="625"/>
      <point x="783" y="652"/>
      <point x="777" y="680" type="curve"/>
      <point x="-11" y="680" type="line"/>
      <point x="-5" y="652"/>
      <point x="-1" y="625"/>
      <point x="4" y="597" type="curve"/>
      <point x="567" y="597" type="line"/>
      <point x="567" y="464" type="line"/>
      <point x="149" y="464" type="line"/>
      <point x="154" y="436"/>
      <point x="160" y="408"/>
      <point x="166" y="380" type="curve"/>
      <point x="223" y="380" type="line" smooth="yes"/>
      <point x="303" y="380"/>
      <point x="345" y="337"/>
      <point x="345" y="270" type="curve" smooth="yes"/>
      <point x="345" y="197"/>
      <point x="291" y="154"/>
      <point x="213" y="154" type="curve" smooth="yes"/>
      <point x="151" y="154"/>
      <point x="88" y="183"/>
      <point x="33" y="224" type="curve"/>
      <point x="14" y="131" type="line"/>
      <point x="62" y="99"/>
      <point x="134" y="68"/>
      <point x="216" y="68" type="curve" smooth="yes"/>
      <point x="338" y="68"/>
      <point x="446" y="132"/>
      <point x="446" y="273" type="curve" smooth="yes"/>
      <point x="446" y="316"/>
      <point x="433" y="352"/>
      <point x="413" y="380" type="curve"/>
    </contour>
  </outline>
</glyph>
<glyph name="dv_VocalicRr" format="1">
  <advance width="897"/>
  <unicode hex="0960"/>
  <outline>
    <contour>
      <point x="639" y="-20"/>
      <point x="636" y="-55"/>
      <point x="636" y="-79" type="curve" smooth="yes"/>
      <point x="636" y="-144"/>
      <point x="707" y="-173"/>
      <point x="751" y="-173" type="curve" smooth="yes"/>
      <point x="781" y="-173" type="line"/>
      <point x="788" y="-147"/>
      <point x="795" y="-121"/>
      <point x="803" y="-95" type="curve"/>
      <point x="770" y="-95" type="line" smooth="yes"/>
      <point x="750" y="-95"/>
      <point x="727" y="-88"/>
      <point x="727" y="-66" type="curve" smooth="yes"/>
      <point x="727" y="-47"/>
      <point x="752" y="-38"/>
      <point x="773" y="-38" type="curve" smooth="yes"/>
      <point x="793" y="-38" type="line"/>
      <point x="814" y="39" type="line"/>
      <point x="781" y="39" type="line" smooth="yes"/>
      <point x="761" y="39"/>
      <point x="740" y="41"/>
      <point x="740" y="66" type="curve" smooth="yes"/>
      <point x="740" y="102"/>
      <point x="842" y="148"/>
      <point x="842" y="225" type="curve" smooth="yes"/>
      <point x="842" y="282"/>
      <point x="812" y="330"/>
      <point x="753" y="398" type="curve"/>
      <point x="768" y="414"/>
      <point x="775" y="429"/>
      <point x="775" y="445" type="curve" smooth="yes"/>
      <point x="775" y="494"/>
      <point x="722" y="525"/>
      <point x="676" y="525" type="curve" smooth="yes"/>
      <point x="643" y="525"/>
      <point x="618" y="508"/>
      <point x="618" y="472" type="curve" smooth="yes"/>
      <point x="618" y="444"/>
      <point x="628" y="423"/>
      <point x="640" y="409" type="curve"/>
      <point x="618" y="377"/>
      <point x="573" y="356"/>
      <point x="479" y="348" type="curve"/>
      <point x="479" y="597" type="line"/>
      <point x="908" y="597" type="line"/>
      <point x="893" y="680" type="line"/>
      <point x="-11" y="680" type="line"/>
      <point x="-5" y="652"/>
      <point x="-1" y="625"/>
      <point x="4" y="597" type="curve"/>
      <point x="374" y="597" type="line"/>
      <point x="374" y="404" type="line"/>
      <point x="304" y="475"/>
      <point x="240" y="483"/>
      <point x="184" y="483" type="curve" smooth="yes"/>
      <point x="161" y="483"/>
      <point x="83" y="470"/>
      <point x="39" y="449" type="curve"/>
      <point x="79" y="362" type="line"/>
      <point x="125" y="383"/>
      <point x="165" y="394"/>
      <point x="199" y="394" type="curve"/>
      <point x="241" y="391"/>
      <point x="286" y="374"/>
      <point x="349" y="306" type="curve"/>
      <point x="85" y="155" type="line"/>
      <point x="141" y="79" type="line"/>
      <point x="374" y="212" type="line"/>
      <point x="374" y="0" type="line"/>
      <point x="479" y="-16" type="line"/>
      <point x="479" y="264" type="line"/>
      <point x="570" y="264"/>
      <point x="659" y="299"/>
      <point x="692" y="340" type="curve"/>
      <point x="733" y="289"/>
      <point x="748" y="261"/>
      <point x="748" y="227" type="curve" smooth="yes"/>
      <point x="748" y="169"/>
      <point x="646" y="132"/>
      <point x="646" y="50" type="curve" smooth="yes"/>
      <point x="646" y="41"/>
      <point x="652" y="13"/>
      <point x="665" y="0" type="curve"/>
    </contour>
  </outline>
</glyph>
<glyph name="dv_VocalicLl" format="1">
  <advance width="864"/>
  <unicode hex="0961"/>
  <outline>
    <contour>
      <point x="592" y="29"/>
      <point x="611" y="3"/>
      <point x="628" y="-6" type="curve"/>
      <point x="611" y="-13"/>
      <point x="592" y="-41"/>
      <point x="592" y="-63" type="curve"/>
      <point x="592" y="-129"/>
      <point x="650" y="-156"/>
      <point x="701" y="-156" type="curve"/>
      <point x="731" y="-156" type="line"/>
      <point x="752" y="-92" type="line"/>
      <point x="722" y="-92" type="line" smooth="yes"/>
      <point x="689" y="-92"/>
      <point x="674" y="-82"/>
      <point x="674" y="-63" type="curve"/>
      <point x="674" y="-43"/>
      <point x="696" y="-35"/>
      <point x="728" y="-35" type="curve"/>
      <point x="751" y="25" type="line"/>
      <point x="722" y="25" type="line" smooth="yes"/>
      <point x="702" y="25"/>
      <point x="678" y="32"/>
      <point x="678" y="52" type="curve"/>
      <point x="678" y="73"/>
      <point x="702" y="81"/>
      <point x="722" y="81" type="curve"/>
      <point x="753" y="81" type="line"/>
      <point x="753" y="597" type="line"/>
      <point x="875" y="597" type="line"/>
      <point x="859" y="680" type="line"/>
      <point x="-11" y="680" type="line"/>
      <point x="4" y="597" type="line"/>
      <point x="649" y="597" type="line"/>
      <point x="649" y="464" type="line"/>
      <point x="624" y="481"/>
      <point x="591" y="491"/>
      <point x="557" y="491" type="curve"/>
      <point x="499" y="491"/>
      <point x="446" y="468"/>
      <point x="414" y="425" type="curve"/>
      <point x="380" y="467"/>
      <point x="325" y="490"/>
      <point x="264" y="491" type="curve"/>
      <point x="158" y="490"/>
      <point x="69" y="408"/>
      <point x="69" y="316" type="curve"/>
      <point x="69" y="207"/>
      <point x="119" y="117"/>
      <point x="191" y="-21" type="curve"/>
      <point x="275" y="7" type="line"/>
      <point x="200" y="158"/>
      <point x="166" y="224"/>
      <point x="166" y="308" type="curve"/>
      <point x="166" y="357"/>
      <point x="207" y="402"/>
      <point x="264" y="402" type="curve"/>
      <point x="337" y="401"/>
      <point x="367" y="351"/>
      <point x="367" y="275" type="curve"/>
      <point x="367" y="160" type="line"/>
      <point x="464" y="144" type="line"/>
      <point x="464" y="275" type="line" smooth="yes"/>
      <point x="464" y="351"/>
      <point x="498" y="404"/>
      <point x="556" y="404" type="curve"/>
      <point x="612" y="404"/>
      <point x="644" y="360"/>
      <point x="649" y="294" type="curve"/>
      <point x="649" y="132" type="line"/>
      <point x="618" y="121"/>
      <point x="592" y="95"/>
      <point x="592" y="52" type="curve"/>
    </contour>
  </outline>
</glyph>
<glyph name="dv_Zero" format="1">
  <advance width="683"/>
  <unicode hex="0966"/>
  <outline>
    <contour>
      <point x="60" y="183"/>
      <point x="179" y="57"/>
      <point x="342" y="57" type="curve"/>
      <point x="504" y="57"/>
      <point x="624" y="183"/>
      <point x="624" y="339" type="curve"/>
      <point x="624" y="496"/>
      <point x="504" y="622"/>
      <point x="341" y="622" type="curve"/>
      <point x="179" y="621"/>
      <point x="60" y="495"/>
      <point x="60" y="339" type="curve"/>
    </contour>
    <contour>
      <point x="232" y="144"/>
      <point x="156" y="226"/>
      <point x="156" y="339" type="curve"/>
      <point x="156" y="452"/>
      <point x="232" y="534"/>
      <point x="342" y="534" type="curve"/>
      <point x="451" y="534"/>
      <point x="527" y="452"/>
      <point x="527" y="339" type="curve"/>
      <point x="527" y="226"/>
      <point x="451" y="144"/>
      <point x="342" y="144" type="curve"/>
    </contour>
  </outline>
</glyph>
<glyph name="dv_One" format="1">
  <advance width="394"/>
  <unicode hex="0967"/>
  <outline>
    <contour>
      <point x="53" y="323" type="line"/>
      <point x="52" y="310"/>
      <point x="51" y="298"/>
      <point x="51" y="286" type="curve"/>
      <point x="246" y="-19" type="line"/>
      <point x="280" y="-10"/>
      <point x="315" y="-2"/>
      <point x="349" y="6" type="curve"/>
      <point x="149" y="286" type="line"/>
      <point x="149" y="287"/>
      <point x="150" y="288"/>
      <point x="150" y="289" type="curve"/>
      <point x="236" y="357" type="line"/>
      <point x="323" y="423"/>
      <point x="350" y="489"/>
      <point x="350" y="552" type="curve" smooth="yes"/>
      <point x="350" y="634"/>
      <point x="293" y="696"/>
      <point x="203" y="696" type="curve" smooth="yes"/>
      <point x="122" y="696"/>
      <point x="64" y="631"/>
      <point x="64" y="545" type="curve" smooth="yes"/>
      <point x="64" y="480"/>
      <point x="122" y="429"/>
      <point x="167" y="414" type="curve"/>
      <point x="147" y="397" type="line"/>
    </contour>
    <contour>
      <point x="159" y="582"/>
      <point x="177" y="610"/>
      <point x="207" y="610" type="curve" smooth="yes"/>
      <point x="240" y="610"/>
      <point x="260" y="578"/>
      <point x="260" y="542" type="curve" smooth="yes"/>
      <point x="260" y="514"/>
      <point x="244" y="483"/>
      <point x="223" y="464" type="curve"/>
      <point x="187" y="476"/>
      <point x="159" y="507"/>
      <point x="159" y="548" type="curve" smooth="yes"/>
    </contour>
  </outline>
</glyph>
<glyph name="dv_Two" format="1">
  <advance width="515"/>
  <unicode hex="0968"/>
  <outline>
    <contour>
      <point x="175" y="250" type="line"/>
      <point x="338" y="-19" type="line"/>
      <point x="438" y="6" type="line"/>
      <point x="271" y="259" type="line"/>
      <point x="382" y="286"/>
      <point x="458" y="369"/>
      <point x="458" y="474" type="curve" smooth="yes"/>
      <point x="458" y="570"/>
      <point x="394" y="696"/>
      <point x="232" y="696" type="curve" smooth="yes"/>
      <point x="149" y="696"/>
      <point x="78" y="652"/>
      <point x="57" y="637" type="curve"/>
      <point x="96" y="561" type="line"/>
      <point x="110" y="571"/>
      <point x="166" y="611"/>
      <point x="230" y="611" type="curve" smooth="yes"/>
      <point x="312" y="611"/>
      <point x="358" y="548"/>
      <point x="358" y="476" type="curve" smooth="yes"/>
      <point x="358" y="406"/>
      <point x="310" y="350"/>
      <point x="246" y="341" type="curve"/>
      <point x="236" y="370"/>
      <point x="218" y="408"/>
      <point x="196" y="408" type="curve" smooth="yes"/>
      <point x="140" y="408"/>
      <point x="96" y="336"/>
      <point x="96" y="289" type="curve" smooth="yes"/>
      <point x="96" y="264"/>
      <point x="112" y="250"/>
      <point x="138" y="250" type="curve" smooth="yes"/>
    </contour>
  </outline>
</glyph>
<glyph name="dv_Three" format="1">
  <advance width="533"/>
  <unicode hex="0969"/>
  <outline>
    <contour>
      <point x="197" y="696"/>
      <point x="133" y="674"/>
      <point x="81" y="637" type="curve"/>
      <point x="95" y="551" type="line"/>
      <point x="141" y="586"/>
      <point x="195" y="611"/>
      <point x="260" y="611" type="curve" smooth="yes"/>
      <point x="317" y="611"/>
      <point x="358" y="579"/>
      <point x="358" y="532" type="curve" smooth="yes"/>
      <point x="358" y="475"/>
      <point x="317" y="437"/>
      <point x="237" y="437" type="curve" smooth="yes"/>
      <point x="136" y="437" type="line"/>
      <point x="150" y="362" type="line"/>
      <point x="231" y="362" type="line" smooth="yes"/>
      <point x="332" y="362"/>
      <point x="369" y="310"/>
      <point x="369" y="253" type="curve" smooth="yes"/>
      <point x="369" y="198"/>
      <point x="309" y="162"/>
      <point x="244" y="161" type="curve" smooth="yes"/>
      <point x="233" y="161"/>
      <point x="222" y="162"/>
      <point x="212" y="164" type="curve"/>
      <point x="198" y="209"/>
      <point x="150" y="245"/>
      <point x="104" y="245" type="curve" smooth="yes"/>
      <point x="74" y="245"/>
      <point x="51" y="226"/>
      <point x="51" y="196" type="curve" smooth="yes"/>
      <point x="51" y="144"/>
      <point x="100" y="105"/>
      <point x="139" y="87" type="curve"/>
      <point x="266" y="-79" type="line"/>
      <point x="334" y="-30" type="line"/>
      <point x="307" y="5"/>
      <point x="278" y="39"/>
      <point x="251" y="74" type="curve"/>
      <point x="383" y="84"/>
      <point x="476" y="144"/>
      <point x="476" y="253" type="curve" smooth="yes"/>
      <point x="476" y="320"/>
      <point x="438" y="383"/>
      <point x="374" y="399" type="curve"/>
      <point x="432" y="417"/>
      <point x="463" y="475"/>
      <point x="463" y="534" type="curve" smooth="yes"/>
      <point x="463" y="621"/>
      <point x="396" y="696"/>
      <point x="273" y="696" type="curve" smooth="yes"/>
    </contour>
  </outline>
</glyph>
<glyph name="dv_Four" format="1">
  <advance width="704"/>
  <unicode hex="096A"/>
  <outline>
    <contour>
      <point x="460" y="-18"/>
      <point x="527" y="49"/>
      <point x="527" y="146" type="curve"/>
      <point x="527" y="217"/>
      <point x="477" y="299"/>
      <point x="412" y="384" type="curve"/>
      <point x="488" y="470"/>
      <point x="583" y="558"/>
      <point x="658" y="629" type="curve"/>
      <point x="600" y="704" type="line"/>
      <point x="497" y="606"/>
      <point x="420" y="534"/>
      <point x="352" y="456" type="curve"/>
      <point x="283" y="534"/>
      <point x="206" y="606"/>
      <point x="104" y="704" type="curve"/>
      <point x="45" y="629" type="line"/>
      <point x="120" y="558"/>
      <point x="215" y="470"/>
      <point x="291" y="384" type="curve"/>
      <point x="226" y="299"/>
      <point x="176" y="217"/>
      <point x="176" y="146" type="curve"/>
      <point x="176" y="50"/>
      <point x="243" y="-18"/>
      <point x="352" y="-18" type="curve"/>
    </contour>
    <contour>
      <point x="312" y="70"/>
      <point x="276" y="98"/>
      <point x="276" y="146" type="curve"/>
      <point x="276" y="192"/>
      <point x="309" y="247"/>
      <point x="352" y="306" type="curve"/>
      <point x="394" y="247"/>
      <point x="428" y="192"/>
      <point x="428" y="146" type="curve"/>
      <point x="428" y="98"/>
      <point x="392" y="70"/>
      <point x="352" y="70" type="curve"/>
    </contour>
  </outline>
</glyph>
